<svg xmlns="http://www.w3.org/2000/svg" xmlns:xlink="http://www.w3.org/1999/xlink" contentStyleType="text/css" height="775px" preserveAspectRatio="none" style="width:1357px;height:775px;background:#FFFFFF;" version="1.1" viewBox="0 0 1357 775" width="1357px" zoomAndPan="magnify"><defs/><g><!--cluster I2C UVM Testbench Topology--><g id="cluster_I2C UVM Testbench Topology"><path d="M8.5,6.602 L211.8833,6.602 A3.75,3.75 0 0 1 214.3833,9.102 L221.3833,31.6699 L1347.5,31.6699 A2.5,2.5 0 0 1 1350,34.1699 L1350,766.102 A2.5,2.5 0 0 1 1347.5,768.602 L8.5,768.602 A2.5,2.5 0 0 1 6,766.102 L6,9.102 A2.5,2.5 0 0 1 8.5,6.602 " fill="none" style="stroke:#000000;stroke-width:1.5;"/><line style="stroke:#000000;stroke-width:1.5;" x1="6" x2="221.3833" y1="31.6699" y2="31.6699"/><text fill="#000000" font-family="sans-serif" font-size="14" font-weight="bold" lengthAdjust="spacing" textLength="202.3833" x="10" y="23.5679">I2C UVM Testbench Topology</text></g><!--class uvm_test_top--><g id="elem_uvm_test_top"><rect codeLine="2" fill="#F1F1F1" height="67.0679" id="uvm_test_top" rx="2.5" ry="2.5" style="stroke:#181818;stroke-width:0.5;" width="120.1297" x="601" y="44.602"/><ellipse cx="616" cy="60.602" fill="#ADD1B2" rx="11" ry="11" style="stroke:#181818;stroke-width:1.0;"/><path d="M618.9688,66.2426 Q618.3906,66.5395 617.75,66.6801 Q617.1094,66.8364 616.4063,66.8364 Q613.9063,66.8364 612.5781,65.1957 Q611.2656,63.5395 611.2656,60.4145 Q611.2656,57.2895 612.5781,55.6332 Q613.9063,53.977 616.4063,53.977 Q617.1094,53.977 617.75,54.1332 Q618.4063,54.2895 618.9688,54.5864 L618.9688,57.3051 Q618.3438,56.727 617.75,56.4614 Q617.1563,56.1801 616.5313,56.1801 Q615.1875,56.1801 614.5,57.2582 Q613.8125,58.3207 613.8125,60.4145 Q613.8125,62.5082 614.5,63.5864 Q615.1875,64.6489 616.5313,64.6489 Q617.1563,64.6489 617.75,64.3832 Q618.3438,64.102 618.9688,63.5239 L618.9688,66.2426 Z " fill="#000000"/><text fill="#000000" font-family="sans-serif" font-size="14" lengthAdjust="spacing" textLength="88.1297" x="630" y="66.034">uvm_test_top</text><line style="stroke:#181818;stroke-width:0.5;" x1="602" x2="720.1297" y1="76.602" y2="76.602"/><text fill="#000000" font-family="sans-serif" font-size="14" lengthAdjust="spacing" textLength="23.6599" x="607" y="95.5679">env</text><line style="stroke:#181818;stroke-width:0.5;" x1="602" x2="720.1297" y1="103.6699" y2="103.6699"/></g><!--class env--><g id="elem_env"><rect codeLine="5" fill="#F1F1F1" height="86.1358" id="env" rx="2.5" ry="2.5" style="stroke:#181818;stroke-width:0.5;" width="55.6599" x="633" y="171.602"/><ellipse cx="648" cy="187.602" fill="#ADD1B2" rx="11" ry="11" style="stroke:#181818;stroke-width:1.0;"/><path d="M650.9688,193.2426 Q650.3906,193.5395 649.75,193.6801 Q649.1094,193.8364 648.4063,193.8364 Q645.9063,193.8364 644.5781,192.1957 Q643.2656,190.5395 643.2656,187.4145 Q643.2656,184.2895 644.5781,182.6332 Q645.9063,180.977 648.4063,180.977 Q649.1094,180.977 649.75,181.1332 Q650.4063,181.2895 650.9688,181.5864 L650.9688,184.3051 Q650.3438,183.727 649.75,183.4614 Q649.1563,183.1801 648.5313,183.1801 Q647.1875,183.1801 646.5,184.2582 Q645.8125,185.3207 645.8125,187.4145 Q645.8125,189.5082 646.5,190.5864 Q647.1875,191.6489 648.5313,191.6489 Q649.1563,191.6489 649.75,191.3832 Q650.3438,191.102 650.9688,190.5239 L650.9688,193.2426 Z " fill="#000000"/><text fill="#000000" font-family="sans-serif" font-size="14" lengthAdjust="spacing" textLength="23.6599" x="662" y="193.034">env</text><line style="stroke:#181818;stroke-width:0.5;" x1="634" x2="687.6599" y1="203.602" y2="203.602"/><text fill="#000000" font-family="sans-serif" font-size="14" lengthAdjust="spacing" textLength="7.854" x="639" y="222.5679">a</text><text fill="#000000" font-family="sans-serif" font-size="14" lengthAdjust="spacing" textLength="6.706" x="639" y="241.6358">s</text><line style="stroke:#181818;stroke-width:0.5;" x1="634" x2="687.6599" y1="249.7378" y2="249.7378"/></g><!--class a--><g id="elem_a"><rect codeLine="9" fill="#F1F1F1" height="105.2038" id="a" rx="2.5" ry="2.5" style="stroke:#181818;stroke-width:0.5;" width="40.9939" x="567.5" y="317.602"/><ellipse cx="583.013" cy="333.602" fill="#ADD1B2" rx="11" ry="11" style="stroke:#181818;stroke-width:1.0;"/><path d="M585.9817,339.2426 Q585.4036,339.5395 584.763,339.6801 Q584.1223,339.8364 583.4192,339.8364 Q580.9192,339.8364 579.5911,338.1957 Q578.2786,336.5395 578.2786,333.4145 Q578.2786,330.2895 579.5911,328.6332 Q580.9192,326.977 583.4192,326.977 Q584.1223,326.977 584.763,327.1332 Q585.4192,327.2895 585.9817,327.5864 L585.9817,330.3051 Q585.3567,329.727 584.763,329.4614 Q584.1692,329.1801 583.5442,329.1801 Q582.2005,329.1801 581.513,330.2582 Q580.8255,331.3207 580.8255,333.4145 Q580.8255,335.5082 581.513,336.5864 Q582.2005,337.6489 583.5442,337.6489 Q584.1692,337.6489 584.763,337.3832 Q585.3567,337.102 585.9817,336.5239 L585.9817,339.2426 Z " fill="#000000"/><text fill="#000000" font-family="sans-serif" font-size="14" lengthAdjust="spacing" textLength="7.854" x="597.127" y="339.034">a</text><line style="stroke:#181818;stroke-width:0.5;" x1="568.5" x2="607.4939" y1="349.602" y2="349.602"/><text fill="#000000" font-family="sans-serif" font-size="14" lengthAdjust="spacing" textLength="8.61" x="573.5" y="368.5679">d</text><text fill="#000000" font-family="sans-serif" font-size="14" lengthAdjust="spacing" textLength="13.09" x="573.5" y="387.6358">m</text><text fill="#000000" font-family="sans-serif" font-size="14" lengthAdjust="spacing" textLength="28.9939" x="573.5" y="406.7038">seqr</text><line style="stroke:#181818;stroke-width:0.5;" x1="568.5" x2="607.4939" y1="414.8057" y2="414.8057"/></g><!--class d--><g id="elem_d"><rect codeLine="14" fill="#F1F1F1" height="86.1358" id="d" rx="2.5" ry="2.5" style="stroke:#181818;stroke-width:0.5;" width="285.587" x="64" y="520.602"/><ellipse cx="198.2385" cy="536.602" fill="#ADD1B2" rx="11" ry="11" style="stroke:#181818;stroke-width:1.0;"/><path d="M201.2073,542.2426 Q200.6291,542.5395 199.9885,542.6801 Q199.3479,542.8364 198.6448,542.8364 Q196.1448,542.8364 194.8166,541.1957 Q193.5041,539.5395 193.5041,536.4145 Q193.5041,533.2895 194.8166,531.6332 Q196.1448,529.977 198.6448,529.977 Q199.3479,529.977 199.9885,530.1332 Q200.6448,530.2895 201.2073,530.5864 L201.2073,533.3051 Q200.5823,532.727 199.9885,532.4614 Q199.3948,532.1801 198.7698,532.1801 Q197.426,532.1801 196.7385,533.2582 Q196.051,534.3207 196.051,536.4145 Q196.051,538.5082 196.7385,539.5864 Q197.426,540.6489 198.7698,540.6489 Q199.3948,540.6489 199.9885,540.3832 Q200.5823,540.102 201.2073,539.5239 L201.2073,542.2426 Z " fill="#000000"/><text fill="#000000" font-family="sans-serif" font-size="14" lengthAdjust="spacing" textLength="8.61" x="218.7385" y="542.034">d</text><line style="stroke:#181818;stroke-width:0.5;" x1="65" x2="348.587" y1="552.602" y2="552.602"/><ellipse cx="75" cy="567.6359" fill="none" rx="3" ry="3" style="stroke:#038048;stroke-width:1.0;"/><text fill="#000000" font-family="sans-serif" font-size="14" lengthAdjust="spacing" textLength="183.9593" x="84" y="571.5679">rsp_port: uvm_analysis_port</text><ellipse cx="75" cy="586.7039" fill="none" rx="3" ry="3" style="stroke:#038048;stroke-width:1.0;"/><text fill="#000000" font-family="sans-serif" font-size="14" lengthAdjust="spacing" textLength="259.587" x="84" y="590.6358">seq_item_port: uvm_seq_item_pull_port</text><line style="stroke:#181818;stroke-width:0.5;" x1="65" x2="348.587" y1="598.7378" y2="598.7378"/></g><!--class m--><g id="elem_m"><rect codeLine="18" fill="#F1F1F1" height="67.0679" id="m" rx="2.5" ry="2.5" style="stroke:#181818;stroke-width:0.5;" width="186.5934" x="403.5" y="530.102"/><ellipse cx="486.0017" cy="546.102" fill="#ADD1B2" rx="11" ry="11" style="stroke:#181818;stroke-width:1.0;"/><path d="M488.9705,551.7426 Q488.3923,552.0395 487.7517,552.1801 Q487.1111,552.3364 486.408,552.3364 Q483.908,552.3364 482.5798,550.6957 Q481.2673,549.0395 481.2673,545.9145 Q481.2673,542.7895 482.5798,541.1332 Q483.908,539.477 486.408,539.477 Q487.1111,539.477 487.7517,539.6332 Q488.408,539.7895 488.9705,540.0864 L488.9705,542.8051 Q488.3455,542.227 487.7517,541.9614 Q487.158,541.6801 486.533,541.6801 Q485.1892,541.6801 484.5017,542.7582 Q483.8142,543.8207 483.8142,545.9145 Q483.8142,548.0082 484.5017,549.0864 Q485.1892,550.1489 486.533,550.1489 Q487.158,550.1489 487.7517,549.8832 Q488.3455,549.602 488.9705,549.0239 L488.9705,551.7426 Z " fill="#000000"/><text fill="#000000" font-family="sans-serif" font-size="14" lengthAdjust="spacing" textLength="13.09" x="506.5017" y="551.534">m</text><line style="stroke:#181818;stroke-width:0.5;" x1="404.5" x2="589.0934" y1="562.102" y2="562.102"/><ellipse cx="414.5" cy="577.1359" fill="none" rx="3" ry="3" style="stroke:#038048;stroke-width:1.0;"/><text fill="#000000" font-family="sans-serif" font-size="14" lengthAdjust="spacing" textLength="160.5934" x="423.5" y="581.0679">send: uvm_analysis_port</text><line style="stroke:#181818;stroke-width:0.5;" x1="404.5" x2="589.0934" y1="589.1699" y2="589.1699"/></g><!--class seqr--><g id="elem_seqr"><rect codeLine="21" fill="#F1F1F1" height="162.4075" id="seqr" rx="2.5" ry="2.5" style="stroke:#181818;stroke-width:0.5;" width="298.285" x="635" y="482.602"/><ellipse cx="765.3955" cy="498.602" fill="#ADD1B2" rx="11" ry="11" style="stroke:#181818;stroke-width:1.0;"/><path d="M768.3643,504.2426 Q767.7862,504.5395 767.1455,504.6801 Q766.5049,504.8364 765.8018,504.8364 Q763.3018,504.8364 761.9737,503.1957 Q760.6612,501.5395 760.6612,498.4145 Q760.6612,495.2895 761.9737,493.6332 Q763.3018,491.977 765.8018,491.977 Q766.5049,491.977 767.1455,492.1332 Q767.8018,492.2895 768.3643,492.5864 L768.3643,495.3051 Q767.7393,494.727 767.1455,494.4614 Q766.5518,494.1801 765.9268,494.1801 Q764.583,494.1801 763.8955,495.2582 Q763.208,496.3207 763.208,498.4145 Q763.208,500.5082 763.8955,501.5864 Q764.583,502.6489 765.9268,502.6489 Q766.5518,502.6489 767.1455,502.3832 Q767.7393,502.102 768.3643,501.5239 L768.3643,504.2426 Z " fill="#000000"/><text fill="#000000" font-family="sans-serif" font-size="14" lengthAdjust="spacing" textLength="28.9939" x="785.8955" y="504.034">seqr</text><line style="stroke:#181818;stroke-width:0.5;" x1="636" x2="932.285" y1="514.602" y2="514.602"/><ellipse cx="646" cy="529.6359" fill="none" rx="3" ry="3" style="stroke:#038048;stroke-width:1.0;"/><text fill="#000000" font-family="sans-serif" font-size="14" lengthAdjust="spacing" textLength="214.5632" x="655" y="533.5679">rsp_export: uvm_analysis_export</text><ellipse cx="646" cy="548.7039" fill="none" rx="3" ry="3" style="stroke:#038048;stroke-width:1.0;"/><text fill="#000000" font-family="sans-serif" font-size="14" lengthAdjust="spacing" textLength="272.285" x="655" y="552.6358">seq_item_export: uvm_seq_item_pull_imp</text><ellipse cx="646" cy="567.7718" fill="none" rx="3" ry="3" style="stroke:#038048;stroke-width:1.0;"/><text fill="#000000" font-family="sans-serif" font-size="14" lengthAdjust="spacing" textLength="160.0614" x="655" y="571.7038">arbitration_queue: array</text><ellipse cx="646" cy="586.8397" fill="none" rx="3" ry="3" style="stroke:#038048;stroke-width:1.0;"/><text fill="#000000" font-family="sans-serif" font-size="14" lengthAdjust="spacing" textLength="116.0035" x="655" y="590.7717">lock_queue: array</text><ellipse cx="646" cy="605.9076" fill="none" rx="3" ry="3" style="stroke:#038048;stroke-width:1.0;"/><text fill="#000000" font-family="sans-serif" font-size="14" lengthAdjust="spacing" textLength="153.5094" x="655" y="609.8396">num_last_reqs: integral</text><ellipse cx="646" cy="624.9755" fill="none" rx="3" ry="3" style="stroke:#038048;stroke-width:1.0;"/><text fill="#000000" font-family="sans-serif" font-size="14" lengthAdjust="spacing" textLength="152.3194" x="655" y="628.9075">num_last_rsps: integral</text><line style="stroke:#181818;stroke-width:0.5;" x1="636" x2="932.285" y1="637.0095" y2="637.0095"/></g><!--class s--><g id="elem_s"><rect codeLine="29" fill="#F1F1F1" height="67.0679" id="s" rx="2.5" ry="2.5" style="stroke:#181818;stroke-width:0.5;" width="179.6354" x="817" y="336.602"/><ellipse cx="899.2147" cy="352.602" fill="#ADD1B2" rx="11" ry="11" style="stroke:#181818;stroke-width:1.0;"/><path d="M902.1835,358.2426 Q901.6053,358.5395 900.9647,358.6801 Q900.3241,358.8364 899.621,358.8364 Q897.121,358.8364 895.7928,357.1957 Q894.4803,355.5395 894.4803,352.4145 Q894.4803,349.2895 895.7928,347.6332 Q897.121,345.977 899.621,345.977 Q900.3241,345.977 900.9647,346.1332 Q901.621,346.2895 902.1835,346.5864 L902.1835,349.3051 Q901.5585,348.727 900.9647,348.4614 Q900.371,348.1801 899.746,348.1801 Q898.4022,348.1801 897.7147,349.2582 Q897.0272,350.3207 897.0272,352.4145 Q897.0272,354.5082 897.7147,355.5864 Q898.4022,356.6489 899.746,356.6489 Q900.371,356.6489 900.9647,356.3832 Q901.5585,356.102 902.1835,355.5239 L902.1835,358.2426 Z " fill="#000000"/><text fill="#000000" font-family="sans-serif" font-size="14" lengthAdjust="spacing" textLength="6.706" x="919.7147" y="358.034">s</text><line style="stroke:#181818;stroke-width:0.5;" x1="818" x2="995.6354" y1="368.602" y2="368.602"/><ellipse cx="828" cy="383.6359" fill="none" rx="3" ry="3" style="stroke:#038048;stroke-width:1.0;"/><text fill="#000000" font-family="sans-serif" font-size="14" lengthAdjust="spacing" textLength="153.6354" x="837" y="387.5679">recv: uvm_analysis_imp</text><line style="stroke:#181818;stroke-width:0.5;" x1="818" x2="995.6354" y1="395.6699" y2="395.6699"/></g><!--class rsp_port--><g id="elem_rsp_port"><rect fill="#F1F1F1" height="48" id="rsp_port" rx="2.5" ry="2.5" style="stroke:#181818;stroke-width:0.5;" width="87.2298" x="22.5" y="704.602"/><ellipse cx="37.5" cy="720.602" fill="#ADD1B2" rx="11" ry="11" style="stroke:#181818;stroke-width:1.0;"/><path d="M40.4688,726.2426 Q39.8906,726.5395 39.25,726.6801 Q38.6094,726.8364 37.9063,726.8364 Q35.4063,726.8364 34.0781,725.1957 Q32.7656,723.5395 32.7656,720.4145 Q32.7656,717.2895 34.0781,715.6332 Q35.4063,713.977 37.9063,713.977 Q38.6094,713.977 39.25,714.1332 Q39.9063,714.2895 40.4688,714.5864 L40.4688,717.3051 Q39.8438,716.727 39.25,716.4614 Q38.6563,716.1801 38.0313,716.1801 Q36.6875,716.1801 36,717.2582 Q35.3125,718.3207 35.3125,720.4145 Q35.3125,722.5082 36,723.5864 Q36.6875,724.6489 38.0313,724.6489 Q38.6563,724.6489 39.25,724.3832 Q39.8438,724.102 40.4688,723.5239 L40.4688,726.2426 Z " fill="#000000"/><text fill="#000000" font-family="sans-serif" font-size="14" lengthAdjust="spacing" textLength="55.2298" x="51.5" y="726.034">rsp_port</text><line style="stroke:#181818;stroke-width:0.5;" x1="23.5" x2="108.7298" y1="736.602" y2="736.602"/><line style="stroke:#181818;stroke-width:0.5;" x1="23.5" x2="108.7298" y1="744.602" y2="744.602"/></g><!--class seq_item_port--><g id="elem_seq_item_port"><rect fill="#F1F1F1" height="48" id="seq_item_port" rx="2.5" ry="2.5" style="stroke:#181818;stroke-width:0.5;" width="125.2117" x="144.5" y="704.602"/><ellipse cx="159.5" cy="720.602" fill="#ADD1B2" rx="11" ry="11" style="stroke:#181818;stroke-width:1.0;"/><path d="M162.4688,726.2426 Q161.8906,726.5395 161.25,726.6801 Q160.6094,726.8364 159.9063,726.8364 Q157.4063,726.8364 156.0781,725.1957 Q154.7656,723.5395 154.7656,720.4145 Q154.7656,717.2895 156.0781,715.6332 Q157.4063,713.977 159.9063,713.977 Q160.6094,713.977 161.25,714.1332 Q161.9063,714.2895 162.4688,714.5864 L162.4688,717.3051 Q161.8438,716.727 161.25,716.4614 Q160.6563,716.1801 160.0313,716.1801 Q158.6875,716.1801 158,717.2582 Q157.3125,718.3207 157.3125,720.4145 Q157.3125,722.5082 158,723.5864 Q158.6875,724.6489 160.0313,724.6489 Q160.6563,724.6489 161.25,724.3832 Q161.8438,724.102 162.4688,723.5239 L162.4688,726.2426 Z " fill="#000000"/><text fill="#000000" font-family="sans-serif" font-size="14" lengthAdjust="spacing" textLength="93.2117" x="173.5" y="726.034">seq_item_port</text><line style="stroke:#181818;stroke-width:0.5;" x1="145.5" x2="268.7117" y1="736.602" y2="736.602"/><line style="stroke:#181818;stroke-width:0.5;" x1="145.5" x2="268.7117" y1="744.602" y2="744.602"/></g><!--class send--><g id="elem_send"><rect fill="#F1F1F1" height="48" id="send" rx="2.5" ry="2.5" style="stroke:#181818;stroke-width:0.5;" width="63.8639" x="305" y="704.602"/><ellipse cx="320" cy="720.602" fill="#ADD1B2" rx="11" ry="11" style="stroke:#181818;stroke-width:1.0;"/><path d="M322.9688,726.2426 Q322.3906,726.5395 321.75,726.6801 Q321.1094,726.8364 320.4063,726.8364 Q317.9063,726.8364 316.5781,725.1957 Q315.2656,723.5395 315.2656,720.4145 Q315.2656,717.2895 316.5781,715.6332 Q317.9063,713.977 320.4063,713.977 Q321.1094,713.977 321.75,714.1332 Q322.4063,714.2895 322.9688,714.5864 L322.9688,717.3051 Q322.3438,716.727 321.75,716.4614 Q321.1563,716.1801 320.5313,716.1801 Q319.1875,716.1801 318.5,717.2582 Q317.8125,718.3207 317.8125,720.4145 Q317.8125,722.5082 318.5,723.5864 Q319.1875,724.6489 320.5313,724.6489 Q321.1563,724.6489 321.75,724.3832 Q322.3438,724.102 322.9688,723.5239 L322.9688,726.2426 Z " fill="#000000"/><text fill="#000000" font-family="sans-serif" font-size="14" lengthAdjust="spacing" textLength="31.8639" x="334" y="726.034">send</text><line style="stroke:#181818;stroke-width:0.5;" x1="306" x2="367.8639" y1="736.602" y2="736.602"/><line style="stroke:#181818;stroke-width:0.5;" x1="306" x2="367.8639" y1="744.602" y2="744.602"/></g><!--class rsp_export--><g id="elem_rsp_export"><rect fill="#F1F1F1" height="48" id="rsp_export" rx="2.5" ry="2.5" style="stroke:#181818;stroke-width:0.5;" width="102.5318" x="404.5" y="704.602"/><ellipse cx="419.5" cy="720.602" fill="#ADD1B2" rx="11" ry="11" style="stroke:#181818;stroke-width:1.0;"/><path d="M422.4688,726.2426 Q421.8906,726.5395 421.25,726.6801 Q420.6094,726.8364 419.9063,726.8364 Q417.4063,726.8364 416.0781,725.1957 Q414.7656,723.5395 414.7656,720.4145 Q414.7656,717.2895 416.0781,715.6332 Q417.4063,713.977 419.9063,713.977 Q420.6094,713.977 421.25,714.1332 Q421.9063,714.2895 422.4688,714.5864 L422.4688,717.3051 Q421.8438,716.727 421.25,716.4614 Q420.6563,716.1801 420.0313,716.1801 Q418.6875,716.1801 418,717.2582 Q417.3125,718.3207 417.3125,720.4145 Q417.3125,722.5082 418,723.5864 Q418.6875,724.6489 420.0313,724.6489 Q420.6563,724.6489 421.25,724.3832 Q421.8438,724.102 422.4688,723.5239 L422.4688,726.2426 Z " fill="#000000"/><text fill="#000000" font-family="sans-serif" font-size="14" lengthAdjust="spacing" textLength="70.5318" x="433.5" y="726.034">rsp_export</text><line style="stroke:#181818;stroke-width:0.5;" x1="405.5" x2="506.0318" y1="736.602" y2="736.602"/><line style="stroke:#181818;stroke-width:0.5;" x1="405.5" x2="506.0318" y1="744.602" y2="744.602"/></g><!--class seq_item_export--><g id="elem_seq_item_export"><rect fill="#F1F1F1" height="48" id="seq_item_export" rx="2.5" ry="2.5" style="stroke:#181818;stroke-width:0.5;" width="140.5136" x="542.5" y="704.602"/><ellipse cx="557.5" cy="720.602" fill="#ADD1B2" rx="11" ry="11" style="stroke:#181818;stroke-width:1.0;"/><path d="M560.4688,726.2426 Q559.8906,726.5395 559.25,726.6801 Q558.6094,726.8364 557.9063,726.8364 Q555.4063,726.8364 554.0781,725.1957 Q552.7656,723.5395 552.7656,720.4145 Q552.7656,717.2895 554.0781,715.6332 Q555.4063,713.977 557.9063,713.977 Q558.6094,713.977 559.25,714.1332 Q559.9063,714.2895 560.4688,714.5864 L560.4688,717.3051 Q559.8438,716.727 559.25,716.4614 Q558.6563,716.1801 558.0313,716.1801 Q556.6875,716.1801 556,717.2582 Q555.3125,718.3207 555.3125,720.4145 Q555.3125,722.5082 556,723.5864 Q556.6875,724.6489 558.0313,724.6489 Q558.6563,724.6489 559.25,724.3832 Q559.8438,724.102 560.4688,723.5239 L560.4688,726.2426 Z " fill="#000000"/><text fill="#000000" font-family="sans-serif" font-size="14" lengthAdjust="spacing" textLength="108.5136" x="571.5" y="726.034">seq_item_export</text><line style="stroke:#181818;stroke-width:0.5;" x1="543.5" x2="682.0136" y1="736.602" y2="736.602"/><line style="stroke:#181818;stroke-width:0.5;" x1="543.5" x2="682.0136" y1="744.602" y2="744.602"/></g><!--class arbitration_queue--><g id="elem_arbitration_queue"><rect fill="#F1F1F1" height="48" id="arbitration_queue" rx="2.5" ry="2.5" style="stroke:#181818;stroke-width:0.5;" width="150.2576" x="719" y="704.602"/><ellipse cx="734" cy="720.602" fill="#ADD1B2" rx="11" ry="11" style="stroke:#181818;stroke-width:1.0;"/><path d="M736.9688,726.2426 Q736.3906,726.5395 735.75,726.6801 Q735.1094,726.8364 734.4063,726.8364 Q731.9063,726.8364 730.5781,725.1957 Q729.2656,723.5395 729.2656,720.4145 Q729.2656,717.2895 730.5781,715.6332 Q731.9063,713.977 734.4063,713.977 Q735.1094,713.977 735.75,714.1332 Q736.4063,714.2895 736.9688,714.5864 L736.9688,717.3051 Q736.3438,716.727 735.75,716.4614 Q735.1563,716.1801 734.5313,716.1801 Q733.1875,716.1801 732.5,717.2582 Q731.8125,718.3207 731.8125,720.4145 Q731.8125,722.5082 732.5,723.5864 Q733.1875,724.6489 734.5313,724.6489 Q735.1563,724.6489 735.75,724.3832 Q736.3438,724.102 736.9688,723.5239 L736.9688,726.2426 Z " fill="#000000"/><text fill="#000000" font-family="sans-serif" font-size="14" lengthAdjust="spacing" textLength="118.2576" x="748" y="726.034">arbitration_queue</text><line style="stroke:#181818;stroke-width:0.5;" x1="720" x2="868.2576" y1="736.602" y2="736.602"/><line style="stroke:#181818;stroke-width:0.5;" x1="720" x2="868.2576" y1="744.602" y2="744.602"/></g><!--class lock_queue--><g id="elem_lock_queue"><rect fill="#F1F1F1" height="48" id="lock_queue" rx="2.5" ry="2.5" style="stroke:#181818;stroke-width:0.5;" width="106.1997" x="904" y="704.602"/><ellipse cx="919" cy="720.602" fill="#ADD1B2" rx="11" ry="11" style="stroke:#181818;stroke-width:1.0;"/><path d="M921.9688,726.2426 Q921.3906,726.5395 920.75,726.6801 Q920.1094,726.8364 919.4063,726.8364 Q916.9063,726.8364 915.5781,725.1957 Q914.2656,723.5395 914.2656,720.4145 Q914.2656,717.2895 915.5781,715.6332 Q916.9063,713.977 919.4063,713.977 Q920.1094,713.977 920.75,714.1332 Q921.4063,714.2895 921.9688,714.5864 L921.9688,717.3051 Q921.3438,716.727 920.75,716.4614 Q920.1563,716.1801 919.5313,716.1801 Q918.1875,716.1801 917.5,717.2582 Q916.8125,718.3207 916.8125,720.4145 Q916.8125,722.5082 917.5,723.5864 Q918.1875,724.6489 919.5313,724.6489 Q920.1563,724.6489 920.75,724.3832 Q921.3438,724.102 921.9688,723.5239 L921.9688,726.2426 Z " fill="#000000"/><text fill="#000000" font-family="sans-serif" font-size="14" lengthAdjust="spacing" textLength="74.1997" x="933" y="726.034">lock_queue</text><line style="stroke:#181818;stroke-width:0.5;" x1="905" x2="1009.1997" y1="736.602" y2="736.602"/><line style="stroke:#181818;stroke-width:0.5;" x1="905" x2="1009.1997" y1="744.602" y2="744.602"/></g><!--class num_last_reqs--><g id="elem_num_last_reqs"><rect fill="#F1F1F1" height="48" id="num_last_reqs" rx="2.5" ry="2.5" style="stroke:#181818;stroke-width:0.5;" width="127.0456" x="1045.5" y="704.602"/><ellipse cx="1060.5" cy="720.602" fill="#ADD1B2" rx="11" ry="11" style="stroke:#181818;stroke-width:1.0;"/><path d="M1063.4688,726.2426 Q1062.8906,726.5395 1062.25,726.6801 Q1061.6094,726.8364 1060.9063,726.8364 Q1058.4063,726.8364 1057.0781,725.1957 Q1055.7656,723.5395 1055.7656,720.4145 Q1055.7656,717.2895 1057.0781,715.6332 Q1058.4063,713.977 1060.9063,713.977 Q1061.6094,713.977 1062.25,714.1332 Q1062.9063,714.2895 1063.4688,714.5864 L1063.4688,717.3051 Q1062.8438,716.727 1062.25,716.4614 Q1061.6563,716.1801 1061.0313,716.1801 Q1059.6875,716.1801 1059,717.2582 Q1058.3125,718.3207 1058.3125,720.4145 Q1058.3125,722.5082 1059,723.5864 Q1059.6875,724.6489 1061.0313,724.6489 Q1061.6563,724.6489 1062.25,724.3832 Q1062.8438,724.102 1063.4688,723.5239 L1063.4688,726.2426 Z " fill="#000000"/><text fill="#000000" font-family="sans-serif" font-size="14" lengthAdjust="spacing" textLength="95.0456" x="1074.5" y="726.034">num_last_reqs</text><line style="stroke:#181818;stroke-width:0.5;" x1="1046.5" x2="1171.5456" y1="736.602" y2="736.602"/><line style="stroke:#181818;stroke-width:0.5;" x1="1046.5" x2="1171.5456" y1="744.602" y2="744.602"/></g><!--class num_last_rsps--><g id="elem_num_last_rsps"><rect fill="#F1F1F1" height="48" id="num_last_rsps" rx="2.5" ry="2.5" style="stroke:#181818;stroke-width:0.5;" width="125.8557" x="1208" y="704.602"/><ellipse cx="1223" cy="720.602" fill="#ADD1B2" rx="11" ry="11" style="stroke:#181818;stroke-width:1.0;"/><path d="M1225.9688,726.2426 Q1225.3906,726.5395 1224.75,726.6801 Q1224.1094,726.8364 1223.4063,726.8364 Q1220.9063,726.8364 1219.5781,725.1957 Q1218.2656,723.5395 1218.2656,720.4145 Q1218.2656,717.2895 1219.5781,715.6332 Q1220.9063,713.977 1223.4063,713.977 Q1224.1094,713.977 1224.75,714.1332 Q1225.4063,714.2895 1225.9688,714.5864 L1225.9688,717.3051 Q1225.3438,716.727 1224.75,716.4614 Q1224.1563,716.1801 1223.5313,716.1801 Q1222.1875,716.1801 1221.5,717.2582 Q1220.8125,718.3207 1220.8125,720.4145 Q1220.8125,722.5082 1221.5,723.5864 Q1222.1875,724.6489 1223.5313,724.6489 Q1224.1563,724.6489 1224.75,724.3832 Q1225.3438,724.102 1225.9688,723.5239 L1225.9688,726.2426 Z " fill="#000000"/><text fill="#000000" font-family="sans-serif" font-size="14" lengthAdjust="spacing" textLength="93.8557" x="1237" y="726.034">num_last_rsps</text><line style="stroke:#181818;stroke-width:0.5;" x1="1209" x2="1332.8557" y1="736.602" y2="736.602"/><line style="stroke:#181818;stroke-width:0.5;" x1="1209" x2="1332.8557" y1="744.602" y2="744.602"/></g><!--class recv--><g id="elem_recv"><rect fill="#F1F1F1" height="48" id="recv" rx="2.5" ry="2.5" style="stroke:#181818;stroke-width:0.5;" width="59.5099" x="968" y="539.602"/><ellipse cx="983" cy="555.602" fill="#ADD1B2" rx="11" ry="11" style="stroke:#181818;stroke-width:1.0;"/><path d="M985.9688,561.2426 Q985.3906,561.5395 984.75,561.6801 Q984.1094,561.8364 983.4063,561.8364 Q980.9063,561.8364 979.5781,560.1957 Q978.2656,558.5395 978.2656,555.4145 Q978.2656,552.2895 979.5781,550.6332 Q980.9063,548.977 983.4063,548.977 Q984.1094,548.977 984.75,549.1332 Q985.4063,549.2895 985.9688,549.5864 L985.9688,552.3051 Q985.3438,551.727 984.75,551.4614 Q984.1563,551.1801 983.5313,551.1801 Q982.1875,551.1801 981.5,552.2582 Q980.8125,553.3207 980.8125,555.4145 Q980.8125,557.5082 981.5,558.5864 Q982.1875,559.6489 983.5313,559.6489 Q984.1563,559.6489 984.75,559.3832 Q985.3438,559.102 985.9688,558.5239 L985.9688,561.2426 Z " fill="#000000"/><text fill="#000000" font-family="sans-serif" font-size="14" lengthAdjust="spacing" textLength="27.5099" x="997" y="561.034">recv</text><line style="stroke:#181818;stroke-width:0.5;" x1="969" x2="1026.5099" y1="571.602" y2="571.602"/><line style="stroke:#181818;stroke-width:0.5;" x1="969" x2="1026.5099" y1="579.602" y2="579.602"/></g><!--link uvm_test_top to env--><g id="link_uvm_test_top_env"><path codeLine="33" d="M661,111.662 C661,129.622 661,134.122 661,153.422 " fill="none" id="uvm_test_top-to-env" style="stroke:#181818;stroke-width:1.0;"/><polygon fill="none" points="661,171.422,667,153.422,655,153.422,661,171.422" style="stroke:#181818;stroke-width:1.0;"/></g><!--link env to a--><g id="link_env_a"><path codeLine="34" d="M640.86,257.952 C630.82,279.072 626.4232,288.3178 616.3132,309.5678 " fill="none" id="env-to-a" style="stroke:#181818;stroke-width:1.0;"/><polygon fill="none" points="608.58,325.822,621.7312,312.1455,610.8951,306.9901,608.58,325.822" style="stroke:#181818;stroke-width:1.0;"/></g><!--link env to s--><g id="link_env_s"><path codeLine="35" d="M689.22,233.212 C729.48,258.332 788.8387,295.3737 839.3887,326.9137 " fill="none" id="env-to-s" style="stroke:#181818;stroke-width:1.0;"/><polygon fill="none" points="854.66,336.442,842.5648,321.8233,836.2126,332.0041,854.66,336.442" style="stroke:#181818;stroke-width:1.0;"/></g><!--link a to d--><g id="link_a_d"><path codeLine="36" d="M567.25,381.532 C515.85,407.372 396.4224,467.3876 307.0424,512.3176 " fill="none" id="a-to-d" style="stroke:#181818;stroke-width:1.0;"/><polygon fill="none" points="290.96,520.402,309.7372,517.6784,304.3476,506.9568,290.96,520.402" style="stroke:#181818;stroke-width:1.0;"/></g><!--link a to m--><g id="link_a_m"><path codeLine="37" d="M567.35,414.552 C550.68,449.652 535.3093,482.006 520.1893,513.806 " fill="none" id="a-to-m" style="stroke:#181818;stroke-width:1.0;"/><polygon fill="none" points="512.46,530.062,525.608,516.3824,514.7706,511.2295,512.46,530.062" style="stroke:#181818;stroke-width:1.0;"/></g><!--link a to seqr--><g id="link_a_seqr"><path codeLine="38" d="M608.6,391.232 C630.82,412.932 654.7141,436.2938 688.8741,469.6638 " fill="none" id="a-to-seqr" style="stroke:#181818;stroke-width:1.0;"/><polygon fill="none" points="701.75,482.242,693.0668,465.3718,684.6813,473.9558,701.75,482.242" style="stroke:#181818;stroke-width:1.0;"/></g><!--link d to rsp_port--><g id="link_d_rsp_port"><path codeLine="39" d="M170.32,607.002 C143.39,638.132 119.614,665.6168 97.744,690.9068 " fill="none" id="d-to-rsp_port" style="stroke:#181818;stroke-width:1.0;"/><polygon fill="none" points="85.97,704.522,102.2824,694.8315,93.2056,686.9821,85.97,704.522" style="stroke:#181818;stroke-width:1.0;"/></g><!--link d to seq_item_port--><g id="link_d_seq_item_port"><path codeLine="40" d="M207,607.002 C207,638.132 207,661.232 207,686.522 " fill="none" id="d-to-seq_item_port" style="stroke:#181818;stroke-width:1.0;"/><polygon fill="none" points="207,704.522,213,686.522,201,686.522,207,704.522" style="stroke:#181818;stroke-width:1.0;"/></g><!--link m to send--><g id="link_m_send"><path codeLine="41" d="M465.01,597.192 C433.82,628.972 399.7883,663.6355 372.2583,691.6855 " fill="none" id="m-to-send" style="stroke:#181818;stroke-width:1.0;"/><polygon fill="none" points="359.65,704.532,376.5404,695.8883,367.9761,687.4828,359.65,704.532" style="stroke:#181818;stroke-width:1.0;"/></g><!--link seqr to rsp_export--><g id="link_seqr_rsp_export"><path codeLine="42" d="M634.88,638.712 C586.98,662.512 553.5109,679.1548 518.7209,696.4348 " fill="none" id="seqr-to-rsp_export" style="stroke:#181818;stroke-width:1.0;"/><polygon fill="none" points="502.6,704.442,521.39,701.8084,516.0519,691.0611,502.6,704.442" style="stroke:#181818;stroke-width:1.0;"/></g><!--link seqr to seq_item_export--><g id="link_seqr_seq_item_export"><path codeLine="43" d="M700,644.672 C677.03,666.572 666.9398,676.1833 650.3098,692.0333 " fill="none" id="seqr-to-seq_item_export" style="stroke:#181818;stroke-width:1.0;"/><polygon fill="none" points="637.28,704.452,654.4494,696.3766,646.1703,687.69,637.28,704.452" style="stroke:#181818;stroke-width:1.0;"/></g><!--link seqr to arbitration_queue--><g id="link_seqr_arbitration_queue"><path codeLine="44" d="M788.91,644.672 C790.26,666.572 790.5105,670.6356 791.4805,686.4856 " fill="none" id="seqr-to-arbitration_queue" style="stroke:#181818;stroke-width:1.0;"/><polygon fill="none" points="792.58,704.452,797.4693,686.1191,785.4917,686.8521,792.58,704.452" style="stroke:#181818;stroke-width:1.0;"/></g><!--link seqr to lock_queue--><g id="link_seqr_lock_queue"><path codeLine="45" d="M868.98,644.672 C892.22,666.572 902.5099,676.2574 919.3299,692.1074 " fill="none" id="seqr-to-lock_queue" style="stroke:#181818;stroke-width:1.0;"/><polygon fill="none" points="932.43,704.452,923.4448,687.7407,915.2151,696.4741,932.43,704.452" style="stroke:#181818;stroke-width:1.0;"/></g><!--link seqr to num_last_reqs--><g id="link_seqr_num_last_reqs"><path codeLine="46" d="M933.18,639.422 C980.24,663.022 1012.7088,679.3152 1046.8388,696.4252 " fill="none" id="seqr-to-num_last_reqs" style="stroke:#181818;stroke-width:1.0;"/><polygon fill="none" points="1062.93,704.492,1049.5277,691.0614,1044.1499,701.7889,1062.93,704.492" style="stroke:#181818;stroke-width:1.0;"/></g><!--link seqr to num_last_rsps--><g id="link_seqr_num_last_rsps"><path codeLine="47" d="M933.14,637.832 C939.14,640.202 945.1,642.472 951,644.602 C1054.01,681.782 1084.2,676.312 1190,704.602 C1195.79,706.152 1184.455,702.9803 1190.475,704.6503 " fill="none" id="seqr-to-num_last_rsps" style="stroke:#181818;stroke-width:1.0;"/><polygon fill="none" points="1207.82,709.462,1192.0789,698.8687,1188.8711,710.432,1207.82,709.462" style="stroke:#181818;stroke-width:1.0;"/></g><!--link s to recv--><g id="link_s_recv"><path codeLine="48" d="M922.64,404.022 C940.99,442.622 963.205,489.3739 979.265,523.1739 " fill="none" id="s-to-recv" style="stroke:#181818;stroke-width:1.0;"/><polygon fill="none" points="986.99,539.432,984.6844,520.5989,973.8457,525.7489,986.99,539.432" style="stroke:#181818;stroke-width:1.0;"/></g><!--SRC=[TLAxSiCW4Epr5OpRZ9kKAjoaIf7EISkSfHj7Oru6f8acqRy78LiSMAOHTxi7YtODD1Su8zkzlxwnpwyFTaJdJwYQRtRKHWjz7dVijs9XDGASO_qWkGySxhMv0VD2DSJzHAYXHnYmxjm34mYlNNSoJU3LFWorPEZ5EiEDjhwE0a6165tdOYkHmZ6yyoW9CxLw8HATtYFfFGvL- -mEEZGhBlNXpuR2fRcXaR9pbPqqYG_sr7aBljEANtliiMPWBOo98NHpUGAfNl8WrtEBLrUpJdayMn1R16TAGlRSxAtO3CKhxvAdAdwo4EttVuSrFtDcOWFoSiaCB4LB2qcBDIZjKjzZGNjP2Y8Wxu1QJexchVF4eGGKDXNeWoa5dYmfWCoGfrZmOi5k8iF_hgP_]--></g></svg>