<svg xmlns="http://www.w3.org/2000/svg" xmlns:xlink="http://www.w3.org/1999/xlink" contentStyleType="text/css" height="953px" preserveAspectRatio="none" style="width:1359px;height:953px;background:#FFFFFF;" version="1.1" viewBox="0 0 1359 953" width="1359px" zoomAndPan="magnify"><defs/><g><!--cluster adder_tb UVM Testbench Topology--><g id="cluster_adder_tb UVM Testbench Topology"><path d="M8.5,6.602 L251.0131,6.602 A3.75,3.75 0 0 1 253.5131,9.102 L260.5131,31.6699 L1349.5,31.6699 A2.5,2.5 0 0 1 1352,34.1699 L1352,944.102 A2.5,2.5 0 0 1 1349.5,946.602 L8.5,946.602 A2.5,2.5 0 0 1 6,944.102 L6,9.102 A2.5,2.5 0 0 1 8.5,6.602 " fill="none" style="stroke:#000000;stroke-width:1.5;"/><line style="stroke:#000000;stroke-width:1.5;" x1="6" x2="260.5131" y1="31.6699" y2="31.6699"/><text fill="#000000" font-family="sans-serif" font-size="14" font-weight="bold" lengthAdjust="spacing" textLength="241.5131" x="10" y="23.5679">adder_tb UVM Testbench Topology</text></g><!--cluster uvm_test_top--><g id="cluster_uvm_test_top"><path d="M59.5,60.602 L153.9077,60.602 A3.75,3.75 0 0 1 156.4077,63.102 L163.4077,85.6699 L954.5,85.6699 A2.5,2.5 0 0 1 957,88.1699 L957,622.102 A2.5,2.5 0 0 1 954.5,624.602 L59.5,624.602 A2.5,2.5 0 0 1 57,622.102 L57,63.102 A2.5,2.5 0 0 1 59.5,60.602 " fill="none" style="stroke:#000000;stroke-width:1.5;"/><line style="stroke:#000000;stroke-width:1.5;" x1="57" x2="163.4077" y1="85.6699" y2="85.6699"/><text fill="#000000" font-family="sans-serif" font-size="14" font-weight="bold" lengthAdjust="spacing" textLength="93.4077" x="61" y="77.5679">uvm_test_top</text></g><!--class TEST--><g id="elem_TEST"><rect codeLine="2" fill="#F1F1F1" height="67.0679" id="TEST" rx="2.5" ry="2.5" style="stroke:#181818;stroke-width:0.5;" width="63.0379" x="988.5" y="137.102"/><ellipse cx="1003.5" cy="153.102" fill="#ADD1B2" rx="11" ry="11" style="stroke:#181818;stroke-width:1.0;"/><path d="M1006.4688,158.7426 Q1005.8906,159.0395 1005.25,159.1801 Q1004.6094,159.3364 1003.9063,159.3364 Q1001.4063,159.3364 1000.0781,157.6957 Q998.7656,156.0395 998.7656,152.9145 Q998.7656,149.7895 1000.0781,148.1332 Q1001.4063,146.477 1003.9063,146.477 Q1004.6094,146.477 1005.25,146.6332 Q1005.9063,146.7895 1006.4688,147.0864 L1006.4688,149.8051 Q1005.8438,149.227 1005.25,148.9614 Q1004.6563,148.6801 1004.0313,148.6801 Q1002.6875,148.6801 1002,149.7582 Q1001.3125,150.8207 1001.3125,152.9145 Q1001.3125,155.0082 1002,156.0864 Q1002.6875,157.1489 1004.0313,157.1489 Q1004.6563,157.1489 1005.25,156.8832 Q1005.8438,156.602 1006.4688,156.0239 L1006.4688,158.7426 Z " fill="#000000"/><text fill="#000000" font-family="sans-serif" font-size="14" lengthAdjust="spacing" textLength="31.0379" x="1017.5" y="158.534">TEST</text><line style="stroke:#181818;stroke-width:0.5;" x1="989.5" x2="1050.5379" y1="169.102" y2="169.102"/><text fill="#000000" font-family="sans-serif" font-size="14" lengthAdjust="spacing" textLength="26.8239" x="994.5" y="188.0679">ENV</text><line style="stroke:#181818;stroke-width:0.5;" x1="989.5" x2="1050.5379" y1="196.1699" y2="196.1699"/></g><!--class ENV--><g id="elem_ENV"><rect codeLine="5" fill="#F1F1F1" height="86.1358" id="ENV" rx="2.5" ry="2.5" style="stroke:#181818;stroke-width:0.5;" width="58.8239" x="990.5" y="283.102"/><ellipse cx="1005.5" cy="299.102" fill="#ADD1B2" rx="11" ry="11" style="stroke:#181818;stroke-width:1.0;"/><path d="M1008.4688,304.7426 Q1007.8906,305.0395 1007.25,305.1801 Q1006.6094,305.3364 1005.9063,305.3364 Q1003.4063,305.3364 1002.0781,303.6957 Q1000.7656,302.0395 1000.7656,298.9145 Q1000.7656,295.7895 1002.0781,294.1332 Q1003.4063,292.477 1005.9063,292.477 Q1006.6094,292.477 1007.25,292.6332 Q1007.9063,292.7895 1008.4688,293.0864 L1008.4688,295.8051 Q1007.8438,295.227 1007.25,294.9614 Q1006.6563,294.6801 1006.0313,294.6801 Q1004.6875,294.6801 1004,295.7582 Q1003.3125,296.8207 1003.3125,298.9145 Q1003.3125,301.0082 1004,302.0864 Q1004.6875,303.1489 1006.0313,303.1489 Q1006.6563,303.1489 1007.25,302.8832 Q1007.8438,302.602 1008.4688,302.0239 L1008.4688,304.7426 Z " fill="#000000"/><text fill="#000000" font-family="sans-serif" font-size="14" lengthAdjust="spacing" textLength="26.8239" x="1019.5" y="304.534">ENV</text><line style="stroke:#181818;stroke-width:0.5;" x1="991.5" x2="1048.3239" y1="315.102" y2="315.102"/><text fill="#000000" font-family="sans-serif" font-size="14" lengthAdjust="spacing" textLength="45.3458" x="996.5" y="334.0679">AGENT</text><text fill="#000000" font-family="sans-serif" font-size="14" lengthAdjust="spacing" textLength="27.4679" x="996.5" y="353.1358">SCO</text><line style="stroke:#181818;stroke-width:0.5;" x1="991.5" x2="1048.3239" y1="361.2378" y2="361.2378"/></g><!--class AGENT--><g id="elem_AGENT"><rect codeLine="9" fill="#F1F1F1" height="105.2038" id="AGENT" rx="2.5" ry="2.5" style="stroke:#181818;stroke-width:0.5;" width="77.3458" x="981.5" y="467.102"/><ellipse cx="996.5" cy="483.102" fill="#ADD1B2" rx="11" ry="11" style="stroke:#181818;stroke-width:1.0;"/><path d="M999.4688,488.7426 Q998.8906,489.0395 998.25,489.1801 Q997.6094,489.3364 996.9063,489.3364 Q994.4063,489.3364 993.0781,487.6957 Q991.7656,486.0395 991.7656,482.9145 Q991.7656,479.7895 993.0781,478.1332 Q994.4063,476.477 996.9063,476.477 Q997.6094,476.477 998.25,476.6332 Q998.9063,476.7895 999.4688,477.0864 L999.4688,479.8051 Q998.8438,479.227 998.25,478.9614 Q997.6563,478.6801 997.0313,478.6801 Q995.6875,478.6801 995,479.7582 Q994.3125,480.8207 994.3125,482.9145 Q994.3125,485.0082 995,486.0864 Q995.6875,487.1489 997.0313,487.1489 Q997.6563,487.1489 998.25,486.8832 Q998.8438,486.602 999.4688,486.0239 L999.4688,488.7426 Z " fill="#000000"/><text fill="#000000" font-family="sans-serif" font-size="14" lengthAdjust="spacing" textLength="45.3458" x="1010.5" y="488.534">AGENT</text><line style="stroke:#181818;stroke-width:0.5;" x1="982.5" x2="1057.8458" y1="499.102" y2="499.102"/><text fill="#000000" font-family="sans-serif" font-size="14" lengthAdjust="spacing" textLength="27.3279" x="987.5" y="518.0679">DRV</text><text fill="#000000" font-family="sans-serif" font-size="14" lengthAdjust="spacing" textLength="34.2719" x="987.5" y="537.1358">MON</text><text fill="#000000" font-family="sans-serif" font-size="14" lengthAdjust="spacing" textLength="26.4039" x="987.5" y="556.2038">SEQ</text><line style="stroke:#181818;stroke-width:0.5;" x1="982.5" x2="1057.8458" y1="564.3057" y2="564.3057"/></g><!--class DRV--><g id="elem_DRV"><rect codeLine="14" fill="#F1F1F1" height="86.1358" id="DRV" rx="2.5" ry="2.5" style="stroke:#181818;stroke-width:0.5;" width="285.587" x="949" y="698.602"/><ellipse cx="1073.8796" cy="714.602" fill="#ADD1B2" rx="11" ry="11" style="stroke:#181818;stroke-width:1.0;"/><path d="M1076.8483,720.2426 Q1076.2702,720.5395 1075.6296,720.6801 Q1074.9889,720.8364 1074.2858,720.8364 Q1071.7858,720.8364 1070.4577,719.1957 Q1069.1452,717.5395 1069.1452,714.4145 Q1069.1452,711.2895 1070.4577,709.6332 Q1071.7858,707.977 1074.2858,707.977 Q1074.9889,707.977 1075.6296,708.1332 Q1076.2858,708.2895 1076.8483,708.5864 L1076.8483,711.3051 Q1076.2233,710.727 1075.6296,710.4614 Q1075.0358,710.1801 1074.4108,710.1801 Q1073.0671,710.1801 1072.3796,711.2582 Q1071.6921,712.3207 1071.6921,714.4145 Q1071.6921,716.5082 1072.3796,717.5864 Q1073.0671,718.6489 1074.4108,718.6489 Q1075.0358,718.6489 1075.6296,718.3832 Q1076.2233,718.102 1076.8483,717.5239 L1076.8483,720.2426 Z " fill="#000000"/><text fill="#000000" font-family="sans-serif" font-size="14" lengthAdjust="spacing" textLength="27.3279" x="1094.3796" y="720.034">DRV</text><line style="stroke:#181818;stroke-width:0.5;" x1="950" x2="1233.587" y1="730.602" y2="730.602"/><ellipse cx="960" cy="745.6359" fill="none" rx="3" ry="3" style="stroke:#038048;stroke-width:1.0;"/><text fill="#000000" font-family="sans-serif" font-size="14" lengthAdjust="spacing" textLength="183.9593" x="969" y="749.5679">rsp_port: uvm_analysis_port</text><ellipse cx="960" cy="764.7039" fill="none" rx="3" ry="3" style="stroke:#038048;stroke-width:1.0;"/><text fill="#000000" font-family="sans-serif" font-size="14" lengthAdjust="spacing" textLength="259.587" x="969" y="768.6358">seq_item_port: uvm_seq_item_pull_port</text><line style="stroke:#181818;stroke-width:0.5;" x1="950" x2="1233.587" y1="776.7378" y2="776.7378"/></g><!--class MON--><g id="elem_MON"><rect codeLine="18" fill="#F1F1F1" height="67.0679" id="MON" rx="2.5" ry="2.5" style="stroke:#181818;stroke-width:0.5;" width="190.0934" x="687" y="708.102"/><ellipse cx="760.6608" cy="724.102" fill="#ADD1B2" rx="11" ry="11" style="stroke:#181818;stroke-width:1.0;"/><path d="M763.6295,729.7426 Q763.0514,730.0395 762.4108,730.1801 Q761.7701,730.3364 761.067,730.3364 Q758.567,730.3364 757.2389,728.6957 Q755.9264,727.0395 755.9264,723.9145 Q755.9264,720.7895 757.2389,719.1332 Q758.567,717.477 761.067,717.477 Q761.7701,717.477 762.4108,717.6332 Q763.067,717.7895 763.6295,718.0864 L763.6295,720.8051 Q763.0045,720.227 762.4108,719.9614 Q761.817,719.6801 761.192,719.6801 Q759.8483,719.6801 759.1608,720.7582 Q758.4733,721.8207 758.4733,723.9145 Q758.4733,726.0082 759.1608,727.0864 Q759.8483,728.1489 761.192,728.1489 Q761.817,728.1489 762.4108,727.8832 Q763.0045,727.602 763.6295,727.0239 L763.6295,729.7426 Z " fill="#000000"/><text fill="#000000" font-family="sans-serif" font-size="14" lengthAdjust="spacing" textLength="34.2719" x="781.1608" y="729.534">MON</text><line style="stroke:#181818;stroke-width:0.5;" x1="688" x2="876.0934" y1="740.102" y2="740.102"/><ellipse cx="698" cy="755.1359" fill="none" rx="3" ry="3" style="stroke:#038048;stroke-width:1.0;"/><text fill="#000000" font-family="sans-serif" font-size="14" lengthAdjust="spacing" textLength="164.0934" x="707" y="759.0679">Write: uvm_analysis_port</text><line style="stroke:#181818;stroke-width:0.5;" x1="688" x2="876.0934" y1="767.1699" y2="767.1699"/></g><!--class SEQ--><g id="elem_SEQ"><rect codeLine="21" fill="#F1F1F1" height="162.4075" id="SEQ" rx="2.5" ry="2.5" style="stroke:#181818;stroke-width:0.5;" width="298.285" x="206" y="660.602"/><ellipse cx="337.6905" cy="676.602" fill="#ADD1B2" rx="11" ry="11" style="stroke:#181818;stroke-width:1.0;"/><path d="M340.6593,682.2426 Q340.0812,682.5395 339.4405,682.6801 Q338.7999,682.8364 338.0968,682.8364 Q335.5968,682.8364 334.2687,681.1957 Q332.9562,679.5395 332.9562,676.4145 Q332.9562,673.2895 334.2687,671.6332 Q335.5968,669.977 338.0968,669.977 Q338.7999,669.977 339.4405,670.1332 Q340.0968,670.2895 340.6593,670.5864 L340.6593,673.3051 Q340.0343,672.727 339.4405,672.4614 Q338.8468,672.1801 338.2218,672.1801 Q336.878,672.1801 336.1905,673.2582 Q335.503,674.3207 335.503,676.4145 Q335.503,678.5082 336.1905,679.5864 Q336.878,680.6489 338.2218,680.6489 Q338.8468,680.6489 339.4405,680.3832 Q340.0343,680.102 340.6593,679.5239 L340.6593,682.2426 Z " fill="#000000"/><text fill="#000000" font-family="sans-serif" font-size="14" lengthAdjust="spacing" textLength="26.4039" x="358.1905" y="682.034">SEQ</text><line style="stroke:#181818;stroke-width:0.5;" x1="207" x2="503.285" y1="692.602" y2="692.602"/><ellipse cx="217" cy="707.6359" fill="none" rx="3" ry="3" style="stroke:#038048;stroke-width:1.0;"/><text fill="#000000" font-family="sans-serif" font-size="14" lengthAdjust="spacing" textLength="214.5632" x="226" y="711.5679">rsp_export: uvm_analysis_export</text><ellipse cx="217" cy="726.7039" fill="none" rx="3" ry="3" style="stroke:#038048;stroke-width:1.0;"/><text fill="#000000" font-family="sans-serif" font-size="14" lengthAdjust="spacing" textLength="272.285" x="226" y="730.6358">seq_item_export: uvm_seq_item_pull_imp</text><ellipse cx="217" cy="745.7718" fill="none" rx="3" ry="3" style="stroke:#038048;stroke-width:1.0;"/><text fill="#000000" font-family="sans-serif" font-size="14" lengthAdjust="spacing" textLength="160.0614" x="226" y="749.7038">arbitration_queue: array</text><ellipse cx="217" cy="764.8397" fill="none" rx="3" ry="3" style="stroke:#038048;stroke-width:1.0;"/><text fill="#000000" font-family="sans-serif" font-size="14" lengthAdjust="spacing" textLength="116.0035" x="226" y="768.7717">lock_queue: array</text><ellipse cx="217" cy="783.9076" fill="none" rx="3" ry="3" style="stroke:#038048;stroke-width:1.0;"/><text fill="#000000" font-family="sans-serif" font-size="14" lengthAdjust="spacing" textLength="153.5094" x="226" y="787.8396">num_last_reqs: integral</text><ellipse cx="217" cy="802.9755" fill="none" rx="3" ry="3" style="stroke:#038048;stroke-width:1.0;"/><text fill="#000000" font-family="sans-serif" font-size="14" lengthAdjust="spacing" textLength="152.3194" x="226" y="806.9075">num_last_rsps: integral</text><line style="stroke:#181818;stroke-width:0.5;" x1="207" x2="503.285" y1="815.0095" y2="815.0095"/></g><!--class SCO--><g id="elem_SCO"><rect codeLine="29" fill="#F1F1F1" height="67.0679" id="SCO" rx="2.5" ry="2.5" style="stroke:#181818;stroke-width:0.5;" width="185.1934" x="1146.5" y="486.102"/><ellipse cx="1221.1127" cy="502.102" fill="#ADD1B2" rx="11" ry="11" style="stroke:#181818;stroke-width:1.0;"/><path d="M1224.0815,507.7426 Q1223.5034,508.0395 1222.8627,508.1801 Q1222.2221,508.3364 1221.519,508.3364 Q1219.019,508.3364 1217.6909,506.6957 Q1216.3784,505.0395 1216.3784,501.9145 Q1216.3784,498.7895 1217.6909,497.1332 Q1219.019,495.477 1221.519,495.477 Q1222.2221,495.477 1222.8627,495.6332 Q1223.519,495.7895 1224.0815,496.0864 L1224.0815,498.8051 Q1223.4565,498.227 1222.8627,497.9614 Q1222.269,497.6801 1221.644,497.6801 Q1220.3002,497.6801 1219.6127,498.7582 Q1218.9252,499.8207 1218.9252,501.9145 Q1218.9252,504.0082 1219.6127,505.0864 Q1220.3002,506.1489 1221.644,506.1489 Q1222.269,506.1489 1222.8627,505.8832 Q1223.4565,505.602 1224.0815,505.0239 L1224.0815,507.7426 Z " fill="#000000"/><text fill="#000000" font-family="sans-serif" font-size="14" lengthAdjust="spacing" textLength="27.4679" x="1241.6127" y="507.534">SCO</text><line style="stroke:#181818;stroke-width:0.5;" x1="1147.5" x2="1330.6934" y1="518.102" y2="518.102"/><ellipse cx="1157.5" cy="533.1359" fill="none" rx="3" ry="3" style="stroke:#038048;stroke-width:1.0;"/><text fill="#000000" font-family="sans-serif" font-size="14" lengthAdjust="spacing" textLength="159.1934" x="1166.5" y="537.0679">Read: uvm_analysis_imp</text><line style="stroke:#181818;stroke-width:0.5;" x1="1147.5" x2="1330.6934" y1="545.1699" y2="545.1699"/></g><!--class rsp_port--><g id="elem_rsp_port"><rect fill="#F1F1F1" height="48" id="rsp_port" rx="2.5" ry="2.5" style="stroke:#181818;stroke-width:0.5;" width="87.2298" x="1088.5" y="882.602"/><ellipse cx="1103.5" cy="898.602" fill="#ADD1B2" rx="11" ry="11" style="stroke:#181818;stroke-width:1.0;"/><path d="M1106.4688,904.2426 Q1105.8906,904.5395 1105.25,904.6801 Q1104.6094,904.8364 1103.9063,904.8364 Q1101.4063,904.8364 1100.0781,903.1957 Q1098.7656,901.5395 1098.7656,898.4145 Q1098.7656,895.2895 1100.0781,893.6332 Q1101.4063,891.977 1103.9063,891.977 Q1104.6094,891.977 1105.25,892.1332 Q1105.9063,892.2895 1106.4688,892.5864 L1106.4688,895.3051 Q1105.8438,894.727 1105.25,894.4614 Q1104.6563,894.1801 1104.0313,894.1801 Q1102.6875,894.1801 1102,895.2582 Q1101.3125,896.3207 1101.3125,898.4145 Q1101.3125,900.5082 1102,901.5864 Q1102.6875,902.6489 1104.0313,902.6489 Q1104.6563,902.6489 1105.25,902.3832 Q1105.8438,902.102 1106.4688,901.5239 L1106.4688,904.2426 Z " fill="#000000"/><text fill="#000000" font-family="sans-serif" font-size="14" lengthAdjust="spacing" textLength="55.2298" x="1117.5" y="904.034">rsp_port</text><line style="stroke:#181818;stroke-width:0.5;" x1="1089.5" x2="1174.7298" y1="914.602" y2="914.602"/><line style="stroke:#181818;stroke-width:0.5;" x1="1089.5" x2="1174.7298" y1="922.602" y2="922.602"/></g><!--class seq_item_port--><g id="elem_seq_item_port"><rect fill="#F1F1F1" height="48" id="seq_item_port" rx="2.5" ry="2.5" style="stroke:#181818;stroke-width:0.5;" width="125.2117" x="1210.5" y="882.602"/><ellipse cx="1225.5" cy="898.602" fill="#ADD1B2" rx="11" ry="11" style="stroke:#181818;stroke-width:1.0;"/><path d="M1228.4688,904.2426 Q1227.8906,904.5395 1227.25,904.6801 Q1226.6094,904.8364 1225.9063,904.8364 Q1223.4063,904.8364 1222.0781,903.1957 Q1220.7656,901.5395 1220.7656,898.4145 Q1220.7656,895.2895 1222.0781,893.6332 Q1223.4063,891.977 1225.9063,891.977 Q1226.6094,891.977 1227.25,892.1332 Q1227.9063,892.2895 1228.4688,892.5864 L1228.4688,895.3051 Q1227.8438,894.727 1227.25,894.4614 Q1226.6563,894.1801 1226.0313,894.1801 Q1224.6875,894.1801 1224,895.2582 Q1223.3125,896.3207 1223.3125,898.4145 Q1223.3125,900.5082 1224,901.5864 Q1224.6875,902.6489 1226.0313,902.6489 Q1226.6563,902.6489 1227.25,902.3832 Q1227.8438,902.102 1228.4688,901.5239 L1228.4688,904.2426 Z " fill="#000000"/><text fill="#000000" font-family="sans-serif" font-size="14" lengthAdjust="spacing" textLength="93.2117" x="1239.5" y="904.034">seq_item_port</text><line style="stroke:#181818;stroke-width:0.5;" x1="1211.5" x2="1334.7117" y1="914.602" y2="914.602"/><line style="stroke:#181818;stroke-width:0.5;" x1="1211.5" x2="1334.7117" y1="922.602" y2="922.602"/></g><!--class Write--><g id="elem_Write"><rect fill="#F1F1F1" height="48" id="Write" rx="2.5" ry="2.5" style="stroke:#181818;stroke-width:0.5;" width="67.3639" x="986.5" y="882.602"/><ellipse cx="1001.5" cy="898.602" fill="#ADD1B2" rx="11" ry="11" style="stroke:#181818;stroke-width:1.0;"/><path d="M1004.4688,904.2426 Q1003.8906,904.5395 1003.25,904.6801 Q1002.6094,904.8364 1001.9063,904.8364 Q999.4063,904.8364 998.0781,903.1957 Q996.7656,901.5395 996.7656,898.4145 Q996.7656,895.2895 998.0781,893.6332 Q999.4063,891.977 1001.9063,891.977 Q1002.6094,891.977 1003.25,892.1332 Q1003.9063,892.2895 1004.4688,892.5864 L1004.4688,895.3051 Q1003.8438,894.727 1003.25,894.4614 Q1002.6563,894.1801 1002.0313,894.1801 Q1000.6875,894.1801 1000,895.2582 Q999.3125,896.3207 999.3125,898.4145 Q999.3125,900.5082 1000,901.5864 Q1000.6875,902.6489 1002.0313,902.6489 Q1002.6563,902.6489 1003.25,902.3832 Q1003.8438,902.102 1004.4688,901.5239 L1004.4688,904.2426 Z " fill="#000000"/><text fill="#000000" font-family="sans-serif" font-size="14" lengthAdjust="spacing" textLength="35.3639" x="1015.5" y="904.034">Write</text><line style="stroke:#181818;stroke-width:0.5;" x1="987.5" x2="1052.8639" y1="914.602" y2="914.602"/><line style="stroke:#181818;stroke-width:0.5;" x1="987.5" x2="1052.8639" y1="922.602" y2="922.602"/></g><!--class rsp_export--><g id="elem_rsp_export"><rect fill="#F1F1F1" height="48" id="rsp_export" rx="2.5" ry="2.5" style="stroke:#181818;stroke-width:0.5;" width="102.5318" x="207.5" y="882.602"/><ellipse cx="222.5" cy="898.602" fill="#ADD1B2" rx="11" ry="11" style="stroke:#181818;stroke-width:1.0;"/><path d="M225.4688,904.2426 Q224.8906,904.5395 224.25,904.6801 Q223.6094,904.8364 222.9063,904.8364 Q220.4063,904.8364 219.0781,903.1957 Q217.7656,901.5395 217.7656,898.4145 Q217.7656,895.2895 219.0781,893.6332 Q220.4063,891.977 222.9063,891.977 Q223.6094,891.977 224.25,892.1332 Q224.9063,892.2895 225.4688,892.5864 L225.4688,895.3051 Q224.8438,894.727 224.25,894.4614 Q223.6563,894.1801 223.0313,894.1801 Q221.6875,894.1801 221,895.2582 Q220.3125,896.3207 220.3125,898.4145 Q220.3125,900.5082 221,901.5864 Q221.6875,902.6489 223.0313,902.6489 Q223.6563,902.6489 224.25,902.3832 Q224.8438,902.102 225.4688,901.5239 L225.4688,904.2426 Z " fill="#000000"/><text fill="#000000" font-family="sans-serif" font-size="14" lengthAdjust="spacing" textLength="70.5318" x="236.5" y="904.034">rsp_export</text><line style="stroke:#181818;stroke-width:0.5;" x1="208.5" x2="309.0318" y1="914.602" y2="914.602"/><line style="stroke:#181818;stroke-width:0.5;" x1="208.5" x2="309.0318" y1="922.602" y2="922.602"/></g><!--class seq_item_export--><g id="elem_seq_item_export"><rect fill="#F1F1F1" height="48" id="seq_item_export" rx="2.5" ry="2.5" style="stroke:#181818;stroke-width:0.5;" width="140.5136" x="810.5" y="882.602"/><ellipse cx="825.5" cy="898.602" fill="#ADD1B2" rx="11" ry="11" style="stroke:#181818;stroke-width:1.0;"/><path d="M828.4688,904.2426 Q827.8906,904.5395 827.25,904.6801 Q826.6094,904.8364 825.9063,904.8364 Q823.4063,904.8364 822.0781,903.1957 Q820.7656,901.5395 820.7656,898.4145 Q820.7656,895.2895 822.0781,893.6332 Q823.4063,891.977 825.9063,891.977 Q826.6094,891.977 827.25,892.1332 Q827.9063,892.2895 828.4688,892.5864 L828.4688,895.3051 Q827.8438,894.727 827.25,894.4614 Q826.6563,894.1801 826.0313,894.1801 Q824.6875,894.1801 824,895.2582 Q823.3125,896.3207 823.3125,898.4145 Q823.3125,900.5082 824,901.5864 Q824.6875,902.6489 826.0313,902.6489 Q826.6563,902.6489 827.25,902.3832 Q827.8438,902.102 828.4688,901.5239 L828.4688,904.2426 Z " fill="#000000"/><text fill="#000000" font-family="sans-serif" font-size="14" lengthAdjust="spacing" textLength="108.5136" x="839.5" y="904.034">seq_item_export</text><line style="stroke:#181818;stroke-width:0.5;" x1="811.5" x2="950.0136" y1="914.602" y2="914.602"/><line style="stroke:#181818;stroke-width:0.5;" x1="811.5" x2="950.0136" y1="922.602" y2="922.602"/></g><!--class arbitration_queue--><g id="elem_arbitration_queue"><rect fill="#F1F1F1" height="48" id="arbitration_queue" rx="2.5" ry="2.5" style="stroke:#181818;stroke-width:0.5;" width="150.2576" x="22" y="882.602"/><ellipse cx="37" cy="898.602" fill="#ADD1B2" rx="11" ry="11" style="stroke:#181818;stroke-width:1.0;"/><path d="M39.9688,904.2426 Q39.3906,904.5395 38.75,904.6801 Q38.1094,904.8364 37.4063,904.8364 Q34.9063,904.8364 33.5781,903.1957 Q32.2656,901.5395 32.2656,898.4145 Q32.2656,895.2895 33.5781,893.6332 Q34.9063,891.977 37.4063,891.977 Q38.1094,891.977 38.75,892.1332 Q39.4063,892.2895 39.9688,892.5864 L39.9688,895.3051 Q39.3438,894.727 38.75,894.4614 Q38.1563,894.1801 37.5313,894.1801 Q36.1875,894.1801 35.5,895.2582 Q34.8125,896.3207 34.8125,898.4145 Q34.8125,900.5082 35.5,901.5864 Q36.1875,902.6489 37.5313,902.6489 Q38.1563,902.6489 38.75,902.3832 Q39.3438,902.102 39.9688,901.5239 L39.9688,904.2426 Z " fill="#000000"/><text fill="#000000" font-family="sans-serif" font-size="14" lengthAdjust="spacing" textLength="118.2576" x="51" y="904.034">arbitration_queue</text><line style="stroke:#181818;stroke-width:0.5;" x1="23" x2="171.2576" y1="914.602" y2="914.602"/><line style="stroke:#181818;stroke-width:0.5;" x1="23" x2="171.2576" y1="922.602" y2="922.602"/></g><!--class lock_queue--><g id="elem_lock_queue"><rect fill="#F1F1F1" height="48" id="lock_queue" rx="2.5" ry="2.5" style="stroke:#181818;stroke-width:0.5;" width="106.1997" x="508" y="882.602"/><ellipse cx="523" cy="898.602" fill="#ADD1B2" rx="11" ry="11" style="stroke:#181818;stroke-width:1.0;"/><path d="M525.9688,904.2426 Q525.3906,904.5395 524.75,904.6801 Q524.1094,904.8364 523.4063,904.8364 Q520.9063,904.8364 519.5781,903.1957 Q518.2656,901.5395 518.2656,898.4145 Q518.2656,895.2895 519.5781,893.6332 Q520.9063,891.977 523.4063,891.977 Q524.1094,891.977 524.75,892.1332 Q525.4063,892.2895 525.9688,892.5864 L525.9688,895.3051 Q525.3438,894.727 524.75,894.4614 Q524.1563,894.1801 523.5313,894.1801 Q522.1875,894.1801 521.5,895.2582 Q520.8125,896.3207 520.8125,898.4145 Q520.8125,900.5082 521.5,901.5864 Q522.1875,902.6489 523.5313,902.6489 Q524.1563,902.6489 524.75,902.3832 Q525.3438,902.102 525.9688,901.5239 L525.9688,904.2426 Z " fill="#000000"/><text fill="#000000" font-family="sans-serif" font-size="14" lengthAdjust="spacing" textLength="74.1997" x="537" y="904.034">lock_queue</text><line style="stroke:#181818;stroke-width:0.5;" x1="509" x2="613.1997" y1="914.602" y2="914.602"/><line style="stroke:#181818;stroke-width:0.5;" x1="509" x2="613.1997" y1="922.602" y2="922.602"/></g><!--class num_last_reqs--><g id="elem_num_last_reqs"><rect fill="#F1F1F1" height="48" id="num_last_reqs" rx="2.5" ry="2.5" style="stroke:#181818;stroke-width:0.5;" width="127.0456" x="345.5" y="882.602"/><ellipse cx="360.5" cy="898.602" fill="#ADD1B2" rx="11" ry="11" style="stroke:#181818;stroke-width:1.0;"/><path d="M363.4688,904.2426 Q362.8906,904.5395 362.25,904.6801 Q361.6094,904.8364 360.9063,904.8364 Q358.4063,904.8364 357.0781,903.1957 Q355.7656,901.5395 355.7656,898.4145 Q355.7656,895.2895 357.0781,893.6332 Q358.4063,891.977 360.9063,891.977 Q361.6094,891.977 362.25,892.1332 Q362.9063,892.2895 363.4688,892.5864 L363.4688,895.3051 Q362.8438,894.727 362.25,894.4614 Q361.6563,894.1801 361.0313,894.1801 Q359.6875,894.1801 359,895.2582 Q358.3125,896.3207 358.3125,898.4145 Q358.3125,900.5082 359,901.5864 Q359.6875,902.6489 361.0313,902.6489 Q361.6563,902.6489 362.25,902.3832 Q362.8438,902.102 363.4688,901.5239 L363.4688,904.2426 Z " fill="#000000"/><text fill="#000000" font-family="sans-serif" font-size="14" lengthAdjust="spacing" textLength="95.0456" x="374.5" y="904.034">num_last_reqs</text><line style="stroke:#181818;stroke-width:0.5;" x1="346.5" x2="471.5456" y1="914.602" y2="914.602"/><line style="stroke:#181818;stroke-width:0.5;" x1="346.5" x2="471.5456" y1="922.602" y2="922.602"/></g><!--class num_last_rsps--><g id="elem_num_last_rsps"><rect fill="#F1F1F1" height="48" id="num_last_rsps" rx="2.5" ry="2.5" style="stroke:#181818;stroke-width:0.5;" width="125.8557" x="649" y="882.602"/><ellipse cx="664" cy="898.602" fill="#ADD1B2" rx="11" ry="11" style="stroke:#181818;stroke-width:1.0;"/><path d="M666.9688,904.2426 Q666.3906,904.5395 665.75,904.6801 Q665.1094,904.8364 664.4063,904.8364 Q661.9063,904.8364 660.5781,903.1957 Q659.2656,901.5395 659.2656,898.4145 Q659.2656,895.2895 660.5781,893.6332 Q661.9063,891.977 664.4063,891.977 Q665.1094,891.977 665.75,892.1332 Q666.4063,892.2895 666.9688,892.5864 L666.9688,895.3051 Q666.3438,894.727 665.75,894.4614 Q665.1563,894.1801 664.5313,894.1801 Q663.1875,894.1801 662.5,895.2582 Q661.8125,896.3207 661.8125,898.4145 Q661.8125,900.5082 662.5,901.5864 Q663.1875,902.6489 664.5313,902.6489 Q665.1563,902.6489 665.75,902.3832 Q666.3438,902.102 666.9688,901.5239 L666.9688,904.2426 Z " fill="#000000"/><text fill="#000000" font-family="sans-serif" font-size="14" lengthAdjust="spacing" textLength="93.8557" x="678" y="904.034">num_last_rsps</text><line style="stroke:#181818;stroke-width:0.5;" x1="650" x2="773.8557" y1="914.602" y2="914.602"/><line style="stroke:#181818;stroke-width:0.5;" x1="650" x2="773.8557" y1="922.602" y2="922.602"/></g><!--class Read--><g id="elem_Read"><rect fill="#F1F1F1" height="48" id="Read" rx="2.5" ry="2.5" style="stroke:#181818;stroke-width:0.5;" width="65.0679" x="1270.5" y="717.602"/><ellipse cx="1285.5" cy="733.602" fill="#ADD1B2" rx="11" ry="11" style="stroke:#181818;stroke-width:1.0;"/><path d="M1288.4688,739.2426 Q1287.8906,739.5395 1287.25,739.6801 Q1286.6094,739.8364 1285.9063,739.8364 Q1283.4063,739.8364 1282.0781,738.1957 Q1280.7656,736.5395 1280.7656,733.4145 Q1280.7656,730.2895 1282.0781,728.6332 Q1283.4063,726.977 1285.9063,726.977 Q1286.6094,726.977 1287.25,727.1332 Q1287.9063,727.2895 1288.4688,727.5864 L1288.4688,730.3051 Q1287.8438,729.727 1287.25,729.4614 Q1286.6563,729.1801 1286.0313,729.1801 Q1284.6875,729.1801 1284,730.2582 Q1283.3125,731.3207 1283.3125,733.4145 Q1283.3125,735.5082 1284,736.5864 Q1284.6875,737.6489 1286.0313,737.6489 Q1286.6563,737.6489 1287.25,737.3832 Q1287.8438,737.102 1288.4688,736.5239 L1288.4688,739.2426 Z " fill="#000000"/><text fill="#000000" font-family="sans-serif" font-size="14" lengthAdjust="spacing" textLength="33.0679" x="1299.5" y="739.034">Read</text><line style="stroke:#181818;stroke-width:0.5;" x1="1271.5" x2="1334.5679" y1="749.602" y2="749.602"/><line style="stroke:#181818;stroke-width:0.5;" x1="1271.5" x2="1334.5679" y1="757.602" y2="757.602"/></g><!--class ENV--><g id="elem_ENV"><rect codeLine="55" fill="#F1F1F1" height="86.1358" id="ENV" rx="2.5" ry="2.5" style="stroke:#181818;stroke-width:0.5;" width="58.8239" x="640.5" y="127.602"/><ellipse cx="655.5" cy="143.602" fill="#ADD1B2" rx="11" ry="11" style="stroke:#181818;stroke-width:1.0;"/><path d="M658.4688,149.2426 Q657.8906,149.5395 657.25,149.6801 Q656.6094,149.8364 655.9063,149.8364 Q653.4063,149.8364 652.0781,148.1957 Q650.7656,146.5395 650.7656,143.4145 Q650.7656,140.2895 652.0781,138.6332 Q653.4063,136.977 655.9063,136.977 Q656.6094,136.977 657.25,137.1332 Q657.9063,137.2895 658.4688,137.5864 L658.4688,140.3051 Q657.8438,139.727 657.25,139.4614 Q656.6563,139.1801 656.0313,139.1801 Q654.6875,139.1801 654,140.2582 Q653.3125,141.3207 653.3125,143.4145 Q653.3125,145.5082 654,146.5864 Q654.6875,147.6489 656.0313,147.6489 Q656.6563,147.6489 657.25,147.3832 Q657.8438,147.102 658.4688,146.5239 L658.4688,149.2426 Z " fill="#000000"/><text fill="#000000" font-family="sans-serif" font-size="14" lengthAdjust="spacing" textLength="26.8239" x="669.5" y="149.034">ENV</text><line style="stroke:#181818;stroke-width:0.5;" x1="641.5" x2="698.3239" y1="159.602" y2="159.602"/><text fill="#000000" font-family="sans-serif" font-size="14" lengthAdjust="spacing" textLength="45.3458" x="646.5" y="178.5679">AGENT</text><text fill="#000000" font-family="sans-serif" font-size="14" lengthAdjust="spacing" textLength="27.4679" x="646.5" y="197.6358">SCO</text><line style="stroke:#181818;stroke-width:0.5;" x1="641.5" x2="698.3239" y1="205.7378" y2="205.7378"/></g><!--class AGENT--><g id="elem_AGENT"><rect codeLine="59" fill="#F1F1F1" height="105.2038" id="AGENT" rx="2.5" ry="2.5" style="stroke:#181818;stroke-width:0.5;" width="77.3458" x="509.5" y="273.602"/><ellipse cx="524.5" cy="289.602" fill="#ADD1B2" rx="11" ry="11" style="stroke:#181818;stroke-width:1.0;"/><path d="M527.4688,295.2426 Q526.8906,295.5395 526.25,295.6801 Q525.6094,295.8364 524.9063,295.8364 Q522.4063,295.8364 521.0781,294.1957 Q519.7656,292.5395 519.7656,289.4145 Q519.7656,286.2895 521.0781,284.6332 Q522.4063,282.977 524.9063,282.977 Q525.6094,282.977 526.25,283.1332 Q526.9063,283.2895 527.4688,283.5864 L527.4688,286.3051 Q526.8438,285.727 526.25,285.4614 Q525.6563,285.1801 525.0313,285.1801 Q523.6875,285.1801 523,286.2582 Q522.3125,287.3207 522.3125,289.4145 Q522.3125,291.5082 523,292.5864 Q523.6875,293.6489 525.0313,293.6489 Q525.6563,293.6489 526.25,293.3832 Q526.8438,293.102 527.4688,292.5239 L527.4688,295.2426 Z " fill="#000000"/><text fill="#000000" font-family="sans-serif" font-size="14" lengthAdjust="spacing" textLength="45.3458" x="538.5" y="295.034">AGENT</text><line style="stroke:#181818;stroke-width:0.5;" x1="510.5" x2="585.8458" y1="305.602" y2="305.602"/><text fill="#000000" font-family="sans-serif" font-size="14" lengthAdjust="spacing" textLength="27.3279" x="515.5" y="324.5679">DRV</text><text fill="#000000" font-family="sans-serif" font-size="14" lengthAdjust="spacing" textLength="34.2719" x="515.5" y="343.6358">MON</text><text fill="#000000" font-family="sans-serif" font-size="14" lengthAdjust="spacing" textLength="26.4039" x="515.5" y="362.7038">SEQ</text><line style="stroke:#181818;stroke-width:0.5;" x1="510.5" x2="585.8458" y1="370.8057" y2="370.8057"/></g><!--class DRV--><g id="elem_DRV"><rect codeLine="64" fill="#F1F1F1" height="86.1358" id="DRV" rx="2.5" ry="2.5" style="stroke:#181818;stroke-width:0.5;" width="285.587" x="639" y="476.602"/><ellipse cx="763.8796" cy="492.602" fill="#ADD1B2" rx="11" ry="11" style="stroke:#181818;stroke-width:1.0;"/><path d="M766.8483,498.2426 Q766.2702,498.5395 765.6296,498.6801 Q764.9889,498.8364 764.2858,498.8364 Q761.7858,498.8364 760.4577,497.1957 Q759.1452,495.5395 759.1452,492.4145 Q759.1452,489.2895 760.4577,487.6332 Q761.7858,485.977 764.2858,485.977 Q764.9889,485.977 765.6296,486.1332 Q766.2858,486.2895 766.8483,486.5864 L766.8483,489.3051 Q766.2233,488.727 765.6296,488.4614 Q765.0358,488.1801 764.4108,488.1801 Q763.0671,488.1801 762.3796,489.2582 Q761.6921,490.3207 761.6921,492.4145 Q761.6921,494.5082 762.3796,495.5864 Q763.0671,496.6489 764.4108,496.6489 Q765.0358,496.6489 765.6296,496.3832 Q766.2233,496.102 766.8483,495.5239 L766.8483,498.2426 Z " fill="#000000"/><text fill="#000000" font-family="sans-serif" font-size="14" lengthAdjust="spacing" textLength="27.3279" x="784.3796" y="498.034">DRV</text><line style="stroke:#181818;stroke-width:0.5;" x1="640" x2="923.587" y1="508.602" y2="508.602"/><ellipse cx="650" cy="523.6359" fill="none" rx="3" ry="3" style="stroke:#038048;stroke-width:1.0;"/><text fill="#000000" font-family="sans-serif" font-size="14" lengthAdjust="spacing" textLength="183.9593" x="659" y="527.5679">rsp_port: uvm_analysis_port</text><ellipse cx="650" cy="542.7039" fill="none" rx="3" ry="3" style="stroke:#038048;stroke-width:1.0;"/><text fill="#000000" font-family="sans-serif" font-size="14" lengthAdjust="spacing" textLength="259.587" x="659" y="546.6358">seq_item_port: uvm_seq_item_pull_port</text><line style="stroke:#181818;stroke-width:0.5;" x1="640" x2="923.587" y1="554.7378" y2="554.7378"/></g><!--class MON--><g id="elem_MON"><rect codeLine="68" fill="#F1F1F1" height="67.0679" id="MON" rx="2.5" ry="2.5" style="stroke:#181818;stroke-width:0.5;" width="190.0934" x="414" y="486.102"/><ellipse cx="487.6608" cy="502.102" fill="#ADD1B2" rx="11" ry="11" style="stroke:#181818;stroke-width:1.0;"/><path d="M490.6295,507.7426 Q490.0514,508.0395 489.4108,508.1801 Q488.7701,508.3364 488.067,508.3364 Q485.567,508.3364 484.2389,506.6957 Q482.9264,505.0395 482.9264,501.9145 Q482.9264,498.7895 484.2389,497.1332 Q485.567,495.477 488.067,495.477 Q488.7701,495.477 489.4108,495.6332 Q490.067,495.7895 490.6295,496.0864 L490.6295,498.8051 Q490.0045,498.227 489.4108,497.9614 Q488.817,497.6801 488.192,497.6801 Q486.8483,497.6801 486.1608,498.7582 Q485.4733,499.8207 485.4733,501.9145 Q485.4733,504.0082 486.1608,505.0864 Q486.8483,506.1489 488.192,506.1489 Q488.817,506.1489 489.4108,505.8832 Q490.0045,505.602 490.6295,505.0239 L490.6295,507.7426 Z " fill="#000000"/><text fill="#000000" font-family="sans-serif" font-size="14" lengthAdjust="spacing" textLength="34.2719" x="508.1608" y="507.534">MON</text><line style="stroke:#181818;stroke-width:0.5;" x1="415" x2="603.0934" y1="518.102" y2="518.102"/><ellipse cx="425" cy="533.1359" fill="none" rx="3" ry="3" style="stroke:#038048;stroke-width:1.0;"/><text fill="#000000" font-family="sans-serif" font-size="14" lengthAdjust="spacing" textLength="164.0934" x="434" y="537.0679">Write: uvm_analysis_port</text><line style="stroke:#181818;stroke-width:0.5;" x1="415" x2="603.0934" y1="545.1699" y2="545.1699"/></g><!--class SEQ--><g id="elem_SEQ"><rect codeLine="71" fill="#F1F1F1" height="162.4075" id="SEQ" rx="2.5" ry="2.5" style="stroke:#181818;stroke-width:0.5;" width="298.285" x="81" y="438.602"/><ellipse cx="212.6905" cy="454.602" fill="#ADD1B2" rx="11" ry="11" style="stroke:#181818;stroke-width:1.0;"/><path d="M215.6593,460.2426 Q215.0812,460.5395 214.4405,460.6801 Q213.7999,460.8364 213.0968,460.8364 Q210.5968,460.8364 209.2687,459.1957 Q207.9562,457.5395 207.9562,454.4145 Q207.9562,451.2895 209.2687,449.6332 Q210.5968,447.977 213.0968,447.977 Q213.7999,447.977 214.4405,448.1332 Q215.0968,448.2895 215.6593,448.5864 L215.6593,451.3051 Q215.0343,450.727 214.4405,450.4614 Q213.8468,450.1801 213.2218,450.1801 Q211.878,450.1801 211.1905,451.2582 Q210.503,452.3207 210.503,454.4145 Q210.503,456.5082 211.1905,457.5864 Q211.878,458.6489 213.2218,458.6489 Q213.8468,458.6489 214.4405,458.3832 Q215.0343,458.102 215.6593,457.5239 L215.6593,460.2426 Z " fill="#000000"/><text fill="#000000" font-family="sans-serif" font-size="14" lengthAdjust="spacing" textLength="26.4039" x="233.1905" y="460.034">SEQ</text><line style="stroke:#181818;stroke-width:0.5;" x1="82" x2="378.285" y1="470.602" y2="470.602"/><ellipse cx="92" cy="485.6359" fill="none" rx="3" ry="3" style="stroke:#038048;stroke-width:1.0;"/><text fill="#000000" font-family="sans-serif" font-size="14" lengthAdjust="spacing" textLength="214.5632" x="101" y="489.5679">rsp_export: uvm_analysis_export</text><ellipse cx="92" cy="504.7039" fill="none" rx="3" ry="3" style="stroke:#038048;stroke-width:1.0;"/><text fill="#000000" font-family="sans-serif" font-size="14" lengthAdjust="spacing" textLength="272.285" x="101" y="508.6358">seq_item_export: uvm_seq_item_pull_imp</text><ellipse cx="92" cy="523.7718" fill="none" rx="3" ry="3" style="stroke:#038048;stroke-width:1.0;"/><text fill="#000000" font-family="sans-serif" font-size="14" lengthAdjust="spacing" textLength="160.0614" x="101" y="527.7038">arbitration_queue: array</text><ellipse cx="92" cy="542.8397" fill="none" rx="3" ry="3" style="stroke:#038048;stroke-width:1.0;"/><text fill="#000000" font-family="sans-serif" font-size="14" lengthAdjust="spacing" textLength="116.0035" x="101" y="546.7717">lock_queue: array</text><ellipse cx="92" cy="561.9076" fill="none" rx="3" ry="3" style="stroke:#038048;stroke-width:1.0;"/><text fill="#000000" font-family="sans-serif" font-size="14" lengthAdjust="spacing" textLength="153.5094" x="101" y="565.8396">num_last_reqs: integral</text><ellipse cx="92" cy="580.9755" fill="none" rx="3" ry="3" style="stroke:#038048;stroke-width:1.0;"/><text fill="#000000" font-family="sans-serif" font-size="14" lengthAdjust="spacing" textLength="152.3194" x="101" y="584.9075">num_last_rsps: integral</text><line style="stroke:#181818;stroke-width:0.5;" x1="82" x2="378.285" y1="593.0095" y2="593.0095"/></g><!--class SCO--><g id="elem_SCO"><rect codeLine="79" fill="#F1F1F1" height="67.0679" id="SCO" rx="2.5" ry="2.5" style="stroke:#181818;stroke-width:0.5;" width="185.1934" x="700.5" y="292.602"/><ellipse cx="775.1127" cy="308.602" fill="#ADD1B2" rx="11" ry="11" style="stroke:#181818;stroke-width:1.0;"/><path d="M778.0815,314.2426 Q777.5034,314.5395 776.8627,314.6801 Q776.2221,314.8364 775.519,314.8364 Q773.019,314.8364 771.6909,313.1957 Q770.3784,311.5395 770.3784,308.4145 Q770.3784,305.2895 771.6909,303.6332 Q773.019,301.977 775.519,301.977 Q776.2221,301.977 776.8627,302.1332 Q777.519,302.2895 778.0815,302.5864 L778.0815,305.3051 Q777.4565,304.727 776.8627,304.4614 Q776.269,304.1801 775.644,304.1801 Q774.3002,304.1801 773.6127,305.2582 Q772.9252,306.3207 772.9252,308.4145 Q772.9252,310.5082 773.6127,311.5864 Q774.3002,312.6489 775.644,312.6489 Q776.269,312.6489 776.8627,312.3832 Q777.4565,312.102 778.0815,311.5239 L778.0815,314.2426 Z " fill="#000000"/><text fill="#000000" font-family="sans-serif" font-size="14" lengthAdjust="spacing" textLength="27.4679" x="795.6127" y="314.034">SCO</text><line style="stroke:#181818;stroke-width:0.5;" x1="701.5" x2="884.6934" y1="324.602" y2="324.602"/><ellipse cx="711.5" cy="339.6359" fill="none" rx="3" ry="3" style="stroke:#038048;stroke-width:1.0;"/><text fill="#000000" font-family="sans-serif" font-size="14" lengthAdjust="spacing" textLength="159.1934" x="720.5" y="343.5679">Read: uvm_analysis_imp</text><line style="stroke:#181818;stroke-width:0.5;" x1="701.5" x2="884.6934" y1="351.6699" y2="351.6699"/></g><!--link TEST to ENV--><g id="link_TEST_ENV"><path codeLine="36" d="M1020,204.152 C1020,227.122 1020,240.102 1020,264.962 " fill="none" id="TEST-to-ENV" style="stroke:#181818;stroke-width:1.0;"/><polygon fill="none" points="1020,282.962,1026,264.962,1014,264.962,1020,282.962" style="stroke:#181818;stroke-width:1.0;"/></g><!--link ENV to AGENT--><g id="link_ENV_AGENT"><path codeLine="37" d="M1020,369.132 C1020,397.862 1020,418.142 1020,448.772 " fill="none" id="ENV-to-AGENT" style="stroke:#181818;stroke-width:1.0;"/><polygon fill="none" points="1020,466.772,1026,448.772,1014,448.772,1020,466.772" style="stroke:#181818;stroke-width:1.0;"/></g><!--link ENV to SCO--><g id="link_ENV_SCO"><path codeLine="38" d="M1049.54,352.932 C1088.88,387.332 1144.9584,436.3749 1187.9684,473.9749 " fill="none" id="ENV-to-SCO" style="stroke:#181818;stroke-width:1.0;"/><polygon fill="none" points="1201.52,485.822,1191.9174,469.4577,1184.0193,478.4921,1201.52,485.822" style="stroke:#181818;stroke-width:1.0;"/></g><!--link AGENT to DRV--><g id="link_AGENT_DRV"><path codeLine="39" d="M1036.88,572.182 C1049.47,610.662 1060.8736,645.4741 1072.6436,681.4541 " fill="none" id="AGENT-to-DRV" style="stroke:#181818;stroke-width:1.0;"/><polygon fill="none" points="1078.24,698.562,1078.3462,679.5886,1066.9409,683.3196,1078.24,698.562" style="stroke:#181818;stroke-width:1.0;"/></g><!--link AGENT to MON--><g id="link_AGENT_MON"><path codeLine="40" d="M992.62,572.342 C979.05,594.962 961.23,620.792 941,640.602 C913.63,667.412 893.5522,681.8287 862.8922,699.1487 " fill="none" id="AGENT-to-MON" style="stroke:#181818;stroke-width:1.0;"/><polygon fill="none" points="847.22,708.002,865.8433,704.3727,859.9411,693.9246,847.22,708.002" style="stroke:#181818;stroke-width:1.0;"/></g><!--link AGENT to SEQ--><g id="link_AGENT_SEQ"><path codeLine="41" d="M999.29,572.152 C986.41,597.212 967.24,625.192 941,640.602 C888.74,671.292 728.82,650.862 669,660.602 C614.59,669.462 573.2254,678.6738 521.4054,692.3338 " fill="none" id="AGENT-to-SEQ" style="stroke:#181818;stroke-width:1.0;"/><polygon fill="none" points="504,696.922,522.9348,698.1356,519.876,686.532,504,696.922" style="stroke:#181818;stroke-width:1.0;"/></g><!--link DRV to rsp_port--><g id="link_DRV_rsp_port"><path codeLine="42" d="M1102.41,785.002 C1110.04,816.132 1115.8376,839.7513 1122.0476,865.0413 " fill="none" id="DRV-to-rsp_port" style="stroke:#181818;stroke-width:1.0;"/><polygon fill="none" points="1126.34,882.522,1127.8745,863.6105,1116.2207,866.4721,1126.34,882.522" style="stroke:#181818;stroke-width:1.0;"/></g><!--link DRV to seq_item_port--><g id="link_DRV_seq_item_port"><path codeLine="43" d="M1139.08,785.002 C1173.65,816.132 1205.915,845.1859 1233.995,870.4759 " fill="none" id="DRV-to-seq_item_port" style="stroke:#181818;stroke-width:1.0;"/><polygon fill="none" points="1247.37,882.522,1238.0103,866.0175,1229.9796,874.9342,1247.37,882.522" style="stroke:#181818;stroke-width:1.0;"/></g><!--link MON to Write--><g id="link_MON_Write"><path codeLine="44" d="M829.59,775.192 C875.98,806.972 930.5098,844.3099 971.4598,872.3599 " fill="none" id="MON-to-Write" style="stroke:#181818;stroke-width:1.0;"/><polygon fill="none" points="986.31,882.532,974.8505,867.4098,968.0691,877.3099,986.31,882.532" style="stroke:#181818;stroke-width:1.0;"/></g><!--link SEQ to rsp_export--><g id="link_SEQ_rsp_export"><path codeLine="45" d="M307.84,822.672 C294.95,844.572 291.1083,851.0942 281.7683,866.9442 " fill="none" id="SEQ-to-rsp_export" style="stroke:#181818;stroke-width:1.0;"/><polygon fill="none" points="272.63,882.452,286.9376,869.9903,276.5991,863.8981,272.63,882.452" style="stroke:#181818;stroke-width:1.0;"/></g><!--link SEQ to seq_item_export--><g id="link_SEQ_seq_item_export"><path codeLine="46" d="M504.17,800.782 C525.47,808.462 547.21,815.962 568,822.602 C591.09,829.982 707.7599,860.5697 792.7799,882.6897 " fill="none" id="SEQ-to-seq_item_export" style="stroke:#181818;stroke-width:1.0;"/><polygon fill="none" points="810.2,887.222,794.2907,876.883,791.2692,888.4964,810.2,887.222" style="stroke:#181818;stroke-width:1.0;"/></g><!--link SEQ to arbitration_queue--><g id="link_SEQ_arbitration_queue"><path codeLine="47" d="M228.27,822.672 C193.61,844.572 173.9361,856.9858 148.8561,872.8358 " fill="none" id="SEQ-to-arbitration_queue" style="stroke:#181818;stroke-width:1.0;"/><polygon fill="none" points="133.64,882.452,152.0615,877.9078,145.6507,867.7638,133.64,882.452" style="stroke:#181818;stroke-width:1.0;"/></g><!--link SEQ to lock_queue--><g id="link_SEQ_lock_queue"><path codeLine="48" d="M456.19,822.672 C483.87,844.572 497.6075,855.429 517.6275,871.279 " fill="none" id="SEQ-to-lock_queue" style="stroke:#181818;stroke-width:1.0;"/><polygon fill="none" points="531.74,882.452,521.3518,866.5748,513.9031,875.9831,531.74,882.452" style="stroke:#181818;stroke-width:1.0;"/></g><!--link SEQ to num_last_reqs--><g id="link_SEQ_num_last_reqs"><path codeLine="49" d="M381.53,822.672 C388.78,844.572 390.4203,849.5149 395.6703,865.3649 " fill="none" id="SEQ-to-num_last_reqs" style="stroke:#181818;stroke-width:1.0;"/><polygon fill="none" points="401.33,882.452,401.3659,863.4784,389.9746,867.2515,401.33,882.452" style="stroke:#181818;stroke-width:1.0;"/></g><!--link SEQ to num_last_rsps--><g id="link_SEQ_num_last_rsps"><path codeLine="50" d="M504.07,810.662 C560.28,836.332 604.1258,856.3462 645.2158,875.1062 " fill="none" id="SEQ-to-num_last_rsps" style="stroke:#181818;stroke-width:1.0;"/><polygon fill="none" points="661.59,882.582,647.7078,869.6482,642.7239,880.5643,661.59,882.582" style="stroke:#181818;stroke-width:1.0;"/></g><!--link SCO to Read--><g id="link_SCO_Read"><path codeLine="51" d="M1248.58,553.542 C1261.69,598.612 1279.8735,661.078 1291.2735,700.278 " fill="none" id="SCO-to-Read" style="stroke:#181818;stroke-width:1.0;"/><polygon fill="none" points="1296.3,717.562,1297.0349,698.6026,1285.5122,701.9535,1296.3,717.562" style="stroke:#181818;stroke-width:1.0;"/></g><!--link uvm_test_top to ENV--><g id="link_uvm_test_top_ENV"><path codeLine="52" d="M957.0562,224.7203 C957.0961,224.8203 957.136,224.9204 957.1761,225.0204 C957.2562,225.2205 957.3367,225.4205 957.4175,225.6205 C957.7407,226.4205 958.0692,227.22 958.4028,228.0188 C959.07,229.6163 959.7575,231.2109 960.4633,232.8012 C963.2866,239.1623 966.4031,245.4539 969.6863,251.5832 C976.2525,263.842 973.428,260.5236 980.313,270.7436 " fill="none" id="uvm_test_top-to-ENV" style="stroke:#181818;stroke-width:1.0;"/><polygon fill="none" points="990.37,285.672,985.2892,267.3912,975.3369,274.0959,990.37,285.672" style="stroke:#181818;stroke-width:1.0;"/></g><!--link ENV to AGENT--><g id="link_ENV_AGENT"><path codeLine="83" d="M640.47,208.762 C624.32,229.082 615.3205,240.4012 597.9205,262.2912 " fill="none" id="ENV-to-AGENT-1" style="stroke:#181818;stroke-width:1.0;"/><polygon fill="none" points="586.72,276.382,602.6174,266.0247,593.2236,258.5577,586.72,276.382" style="stroke:#181818;stroke-width:1.0;"/></g><!--link ENV to SCO--><g id="link_ENV_SCO"><path codeLine="84" d="M699.84,209.622 C700.9,210.962 701.96,212.292 703,213.602 C724.23,240.262 737.1712,256.3423 755.1612,278.5223 " fill="none" id="ENV-to-SCO-1" style="stroke:#181818;stroke-width:1.0;"/><polygon fill="none" points="766.5,292.502,759.8211,274.7427,750.5013,282.3019,766.5,292.502" style="stroke:#181818;stroke-width:1.0;"/></g><!--link AGENT to DRV--><g id="link_AGENT_DRV"><path codeLine="85" d="M586.64,358.722 C625.97,390.912 673.2408,429.5913 716.6508,465.1213 " fill="none" id="AGENT-to-DRV-1" style="stroke:#181818;stroke-width:1.0;"/><polygon fill="none" points="730.58,476.522,720.451,460.4782,712.8505,469.7643,730.58,476.522" style="stroke:#181818;stroke-width:1.0;"/></g><!--link AGENT to MON--><g id="link_AGENT_MON"><path codeLine="86" d="M537.5,378.672 C530.55,412.792 525.2423,438.8641 519.2523,468.2741 " fill="none" id="AGENT-to-MON-1" style="stroke:#181818;stroke-width:1.0;"/><polygon fill="none" points="515.66,485.912,525.1316,469.4715,513.3731,467.0766,515.66,485.912" style="stroke:#181818;stroke-width:1.0;"/></g><!--link AGENT to SEQ--><g id="link_AGENT_SEQ"><path codeLine="87" d="M509.32,350.392 C472.83,372.372 431.3797,397.3358 378.4597,429.2058 " fill="none" id="AGENT-to-SEQ-1" style="stroke:#181818;stroke-width:1.0;"/><polygon fill="none" points="363.04,438.492,381.5551,434.3457,375.3643,424.0659,363.04,438.492" style="stroke:#181818;stroke-width:1.0;"/></g><!--link DRV to rsp_port--><g id="link_DRV_rsp_port"><path codeLine="88" d="M735.19,562.632 C710.35,588.182 682.26,623.052 669,660.602 C645.02,728.492 622,768.062 669,822.602 C727.97,891.022 983.58,859.872 1071,882.602 C1076.7,884.082 1065.5493,880.114 1071.3393,882.084 " fill="none" id="DRV-to-rsp_port-1" style="stroke:#181818;stroke-width:1.0;"/><polygon fill="none" points="1088.38,887.882,1073.272,876.4038,1069.4067,887.7643,1088.38,887.882" style="stroke:#181818;stroke-width:1.0;"/></g><!--link DRV to seq_item_port--><g id="link_DRV_seq_item_port"><path codeLine="89" d="M824.18,562.782 C848.03,588.902 876.48,624.302 894,660.602 C926.1,727.112 878.79,770.362 931,822.602 C1015.45,907.092 1077.33,852.752 1193,882.602 C1198.6,884.042 1187.0405,880.8431 1192.8405,882.4331 " fill="none" id="DRV-to-seq_item_port-1" style="stroke:#181818;stroke-width:1.0;"/><polygon fill="none" points="1210.2,887.192,1194.4268,876.6466,1191.2542,888.2196,1210.2,887.192" style="stroke:#181818;stroke-width:1.0;"/></g><!--link MON to Write--><g id="link_MON_Write"><path codeLine="90" d="M529.6,553.262 C546.45,581.012 570.02,622.332 586,660.602 C614.93,729.902 578.04,772.522 634,822.602 C746.72,923.472 824.52,837.842 969,882.602 C974.75,884.382 964.1178,879.6734 969.8478,882.0834 " fill="none" id="MON-to-Write-1" style="stroke:#181818;stroke-width:1.0;"/><polygon fill="none" points="986.44,889.062,972.174,876.5527,967.5217,887.6141,986.44,889.062" style="stroke:#181818;stroke-width:1.0;"/></g><!--link SEQ to rsp_export--><g id="link_SEQ_rsp_export"><path codeLine="91" d="M155.54,600.982 C142.59,619.332 131.04,639.652 124,660.602 C101.08,728.852 88.87,759.752 124,822.602 C141.79,854.422 160.7931,868.4336 190.9431,881.3936 " fill="none" id="SEQ-to-rsp_export-1" style="stroke:#181818;stroke-width:1.0;"/><polygon fill="none" points="207.48,888.502,193.3125,875.8813,188.5736,886.9059,207.48,888.502" style="stroke:#181818;stroke-width:1.0;"/></g><!--link SEQ to seq_item_export--><g id="link_SEQ_seq_item_export"><path codeLine="92" d="M323.95,600.742 C346.34,616.262 371.03,630.742 396,640.602 C428.92,653.592 528.42,636.152 554,660.602 C606.82,711.082 532.97,768.422 582,822.602 C585.94,826.952 705.6411,859.2193 792.8111,882.3293 " fill="none" id="SEQ-to-seq_item_export-1" style="stroke:#181818;stroke-width:1.0;"/><polygon fill="none" points="810.21,886.942,794.3486,876.5296,791.2735,888.1289,810.21,886.942" style="stroke:#181818;stroke-width:1.0;"/></g><!--link SEQ to arbitration_queue--><g id="link_SEQ_arbitration_queue"><path codeLine="93" d="M132.39,600.892 C116.72,618.782 102.79,638.932 94,660.602 C63.05,736.872 76.5171,820.2912 86.9371,865.0312 " fill="none" id="SEQ-to-arbitration_queue-1" style="stroke:#181818;stroke-width:1.0;"/><polygon fill="none" points="91.02,882.562,92.7807,863.6702,81.0934,866.3921,91.02,882.562" style="stroke:#181818;stroke-width:1.0;"/></g><!--link SEQ to lock_queue--><g id="link_SEQ_lock_queue"><path codeLine="94" d="M201.6,600.762 C195.96,620.112 190.89,640.892 188,660.602 C177.54,731.842 142.32,766.952 188,822.602 C274.83,928.372 357.57,848.122 490,882.602 C495.77,884.102 484.5175,880.645 490.4575,882.425 " fill="none" id="SEQ-to-lock_queue-1" style="stroke:#181818;stroke-width:1.0;"/><polygon fill="none" points="507.7,887.592,492.1798,876.6776,488.7352,888.1725,507.7,887.592" style="stroke:#181818;stroke-width:1.0;"/></g><!--link SEQ to num_last_reqs--><g id="link_SEQ_num_last_reqs"><path codeLine="95" d="M179.38,600.692 C145.24,665.932 114.18,757.562 161,822.602 C166.63,830.422 256.6232,859.0774 328.2232,881.0674 " fill="none" id="SEQ-to-num_last_reqs-1" style="stroke:#181818;stroke-width:1.0;"/><polygon fill="none" points="345.43,886.352,329.9848,875.3318,326.4617,886.803,345.43,886.352" style="stroke:#181818;stroke-width:1.0;"/></g><!--link SEQ to num_last_rsps--><g id="link_SEQ_num_last_rsps"><path codeLine="96" d="M325.09,600.752 C347.23,616.082 371.52,630.472 396,640.602 C447.99,662.112 478.83,623.352 521,660.602 C577.19,710.232 521.73,763.612 568,822.602 C588.93,849.282 604.7031,861.2668 633.2531,874.7468 " fill="none" id="SEQ-to-num_last_rsps-1" style="stroke:#181818;stroke-width:1.0;"/><polygon fill="none" points="649.53,882.432,635.8148,869.3211,630.6914,880.1724,649.53,882.432" style="stroke:#181818;stroke-width:1.0;"/></g><!--link SCO to Read--><g id="link_SCO_Read"><path codeLine="97" d="M849.53,359.622 C862.3,366.342 875.94,373.062 889,378.602 C969.35,412.712 1015.97,375.242 1076,438.602 C1139.84,505.982 1060.27,578.222 1129,640.602 C1170.33,678.122 1206.49,629.732 1253,660.602 C1273.33,674.102 1279.9056,682.4092 1287.7256,700.8592 " fill="none" id="SCO-to-Read-1" style="stroke:#181818;stroke-width:1.0;"/><polygon fill="none" points="1294.75,717.432,1293.2499,698.5177,1282.2014,703.2006,1294.75,717.432" style="stroke:#181818;stroke-width:1.0;"/></g><!--SRC=[dPJBRi8m44Nt-GgBRSKFiAXKqQYhWWefNKOcM3GY3sCxLL7BlzTn7XudDWxDXd3dsfvaRWx5oGaV2PhXmu6mMEpH- -uLHOIBFIcIJnILjCpAusM6VW8ahoJ3dACet4QjK5_XQgVkhy0YDU1uUWbNKVzlkroF_Ce1LZnlTltzwtgbruPlexNI2rO-C4vZMZAnGDLN7kC2PnUUSYLf4oVdE1Ka1qujLLccxV0asGaywOD9l-iOk4vsFUoGV5jwR4HBbz1jzfdcLFinswU2OP6MHNokI2MRmupXYtPaPN9ob8egZsMt8cRap1SeBGGvCfpP39mE3SRJBjVmQJS47mRFsJKDLzK68OCNYv9QmwL-LFJcyz_7lb0dJGawPBtK9Qr9bvAwO06fonUGkfZLqL925ofJDL8Kj5bjIYeRGHjPlGUOSAyFfcmMHoCrotgUfcuCqrMIOmpQ3x8frQDIYZ6C_dMh4ksG0JqpC34R0COGW23GKN03OGY58HWW76pxcP2O38exOM4xsOI67nosFKo0t0MH_u1a6amyG9a45IzOh6_308mFCe0U3bvOcU7WXeCT3dwu6UBXY8CbjtZYPSe4hjnYYuSl7iROENCDhdy0]--></g></svg>