<svg xmlns="http://www.w3.org/2000/svg" xmlns:xlink="http://www.w3.org/1999/xlink" contentStyleType="text/css" height="775px" preserveAspectRatio="none" style="width:1367px;height:775px;background:#FFFFFF;" version="1.1" viewBox="0 0 1367 775" width="1367px" zoomAndPan="magnify"><defs/><g><!--cluster RAM UVM Testbench Topology--><g id="cluster_RAM UVM Testbench Topology"><path d="M8.5,6.602 L221.6132,6.602 A3.75,3.75 0 0 1 224.1132,9.102 L231.1132,31.6699 L1357.5,31.6699 A2.5,2.5 0 0 1 1360,34.1699 L1360,766.102 A2.5,2.5 0 0 1 1357.5,768.602 L8.5,768.602 A2.5,2.5 0 0 1 6,766.102 L6,9.102 A2.5,2.5 0 0 1 8.5,6.602 " fill="none" style="stroke:#000000;stroke-width:1.5;"/><line style="stroke:#000000;stroke-width:1.5;" x1="6" x2="231.1132" y1="31.6699" y2="31.6699"/><text fill="#000000" font-family="sans-serif" font-size="14" font-weight="bold" lengthAdjust="spacing" textLength="212.1132" x="10" y="23.5679">RAM UVM Testbench Topology</text></g><!--class TEST--><g id="elem_TEST"><rect codeLine="2" fill="#F1F1F1" height="67.0679" id="TEST" rx="2.5" ry="2.5" style="stroke:#181818;stroke-width:0.5;" width="63.0379" x="789.5" y="44.602"/><ellipse cx="804.5" cy="60.602" fill="#ADD1B2" rx="11" ry="11" style="stroke:#181818;stroke-width:1.0;"/><path d="M807.4688,66.2426 Q806.8906,66.5395 806.25,66.6801 Q805.6094,66.8364 804.9063,66.8364 Q802.4063,66.8364 801.0781,65.1957 Q799.7656,63.5395 799.7656,60.4145 Q799.7656,57.2895 801.0781,55.6332 Q802.4063,53.977 804.9063,53.977 Q805.6094,53.977 806.25,54.1332 Q806.9063,54.2895 807.4688,54.5864 L807.4688,57.3051 Q806.8438,56.727 806.25,56.4614 Q805.6563,56.1801 805.0313,56.1801 Q803.6875,56.1801 803,57.2582 Q802.3125,58.3207 802.3125,60.4145 Q802.3125,62.5082 803,63.5864 Q803.6875,64.6489 805.0313,64.6489 Q805.6563,64.6489 806.25,64.3832 Q806.8438,64.102 807.4688,63.5239 L807.4688,66.2426 Z " fill="#000000"/><text fill="#000000" font-family="sans-serif" font-size="14" lengthAdjust="spacing" textLength="31.0379" x="818.5" y="66.034">TEST</text><line style="stroke:#181818;stroke-width:0.5;" x1="790.5" x2="851.5379" y1="76.602" y2="76.602"/><text fill="#000000" font-family="sans-serif" font-size="14" lengthAdjust="spacing" textLength="26.8239" x="795.5" y="95.5679">ENV</text><line style="stroke:#181818;stroke-width:0.5;" x1="790.5" x2="851.5379" y1="103.6699" y2="103.6699"/></g><!--class ENV--><g id="elem_ENV"><rect codeLine="5" fill="#F1F1F1" height="86.1358" id="ENV" rx="2.5" ry="2.5" style="stroke:#181818;stroke-width:0.5;" width="58.8239" x="727.5" y="171.602"/><ellipse cx="742.5" cy="187.602" fill="#ADD1B2" rx="11" ry="11" style="stroke:#181818;stroke-width:1.0;"/><path d="M745.4688,193.2426 Q744.8906,193.5395 744.25,193.6801 Q743.6094,193.8364 742.9063,193.8364 Q740.4063,193.8364 739.0781,192.1957 Q737.7656,190.5395 737.7656,187.4145 Q737.7656,184.2895 739.0781,182.6332 Q740.4063,180.977 742.9063,180.977 Q743.6094,180.977 744.25,181.1332 Q744.9063,181.2895 745.4688,181.5864 L745.4688,184.3051 Q744.8438,183.727 744.25,183.4614 Q743.6563,183.1801 743.0313,183.1801 Q741.6875,183.1801 741,184.2582 Q740.3125,185.3207 740.3125,187.4145 Q740.3125,189.5082 741,190.5864 Q741.6875,191.6489 743.0313,191.6489 Q743.6563,191.6489 744.25,191.3832 Q744.8438,191.102 745.4688,190.5239 L745.4688,193.2426 Z " fill="#000000"/><text fill="#000000" font-family="sans-serif" font-size="14" lengthAdjust="spacing" textLength="26.8239" x="756.5" y="193.034">ENV</text><line style="stroke:#181818;stroke-width:0.5;" x1="728.5" x2="785.3239" y1="203.602" y2="203.602"/><text fill="#000000" font-family="sans-serif" font-size="14" lengthAdjust="spacing" textLength="45.3458" x="733.5" y="222.5679">AGENT</text><text fill="#000000" font-family="sans-serif" font-size="14" lengthAdjust="spacing" textLength="27.4679" x="733.5" y="241.6358">SCO</text><line style="stroke:#181818;stroke-width:0.5;" x1="728.5" x2="785.3239" y1="249.7378" y2="249.7378"/></g><!--class AGENT--><g id="elem_AGENT"><rect codeLine="9" fill="#F1F1F1" height="105.2038" id="AGENT" rx="2.5" ry="2.5" style="stroke:#181818;stroke-width:0.5;" width="77.3458" x="551.5" y="317.602"/><ellipse cx="566.5" cy="333.602" fill="#ADD1B2" rx="11" ry="11" style="stroke:#181818;stroke-width:1.0;"/><path d="M569.4688,339.2426 Q568.8906,339.5395 568.25,339.6801 Q567.6094,339.8364 566.9063,339.8364 Q564.4063,339.8364 563.0781,338.1957 Q561.7656,336.5395 561.7656,333.4145 Q561.7656,330.2895 563.0781,328.6332 Q564.4063,326.977 566.9063,326.977 Q567.6094,326.977 568.25,327.1332 Q568.9063,327.2895 569.4688,327.5864 L569.4688,330.3051 Q568.8438,329.727 568.25,329.4614 Q567.6563,329.1801 567.0313,329.1801 Q565.6875,329.1801 565,330.2582 Q564.3125,331.3207 564.3125,333.4145 Q564.3125,335.5082 565,336.5864 Q565.6875,337.6489 567.0313,337.6489 Q567.6563,337.6489 568.25,337.3832 Q568.8438,337.102 569.4688,336.5239 L569.4688,339.2426 Z " fill="#000000"/><text fill="#000000" font-family="sans-serif" font-size="14" lengthAdjust="spacing" textLength="45.3458" x="580.5" y="339.034">AGENT</text><line style="stroke:#181818;stroke-width:0.5;" x1="552.5" x2="627.8458" y1="349.602" y2="349.602"/><text fill="#000000" font-family="sans-serif" font-size="14" lengthAdjust="spacing" textLength="27.3279" x="557.5" y="368.5679">DRV</text><text fill="#000000" font-family="sans-serif" font-size="14" lengthAdjust="spacing" textLength="34.2719" x="557.5" y="387.6358">MON</text><text fill="#000000" font-family="sans-serif" font-size="14" lengthAdjust="spacing" textLength="26.4039" x="557.5" y="406.7038">SEQ</text><line style="stroke:#181818;stroke-width:0.5;" x1="552.5" x2="627.8458" y1="414.8057" y2="414.8057"/></g><!--class DRV--><g id="elem_DRV"><rect codeLine="14" fill="#F1F1F1" height="86.1358" id="DRV" rx="2.5" ry="2.5" style="stroke:#181818;stroke-width:0.5;" width="285.587" x="64" y="520.602"/><ellipse cx="188.8796" cy="536.602" fill="#ADD1B2" rx="11" ry="11" style="stroke:#181818;stroke-width:1.0;"/><path d="M191.8483,542.2426 Q191.2702,542.5395 190.6296,542.6801 Q189.9889,542.8364 189.2858,542.8364 Q186.7858,542.8364 185.4577,541.1957 Q184.1452,539.5395 184.1452,536.4145 Q184.1452,533.2895 185.4577,531.6332 Q186.7858,529.977 189.2858,529.977 Q189.9889,529.977 190.6296,530.1332 Q191.2858,530.2895 191.8483,530.5864 L191.8483,533.3051 Q191.2233,532.727 190.6296,532.4614 Q190.0358,532.1801 189.4108,532.1801 Q188.0671,532.1801 187.3796,533.2582 Q186.6921,534.3207 186.6921,536.4145 Q186.6921,538.5082 187.3796,539.5864 Q188.0671,540.6489 189.4108,540.6489 Q190.0358,540.6489 190.6296,540.3832 Q191.2233,540.102 191.8483,539.5239 L191.8483,542.2426 Z " fill="#000000"/><text fill="#000000" font-family="sans-serif" font-size="14" lengthAdjust="spacing" textLength="27.3279" x="209.3796" y="542.034">DRV</text><line style="stroke:#181818;stroke-width:0.5;" x1="65" x2="348.587" y1="552.602" y2="552.602"/><ellipse cx="75" cy="567.6359" fill="none" rx="3" ry="3" style="stroke:#038048;stroke-width:1.0;"/><text fill="#000000" font-family="sans-serif" font-size="14" lengthAdjust="spacing" textLength="183.9593" x="84" y="571.5679">rsp_port: uvm_analysis_port</text><ellipse cx="75" cy="586.7039" fill="none" rx="3" ry="3" style="stroke:#038048;stroke-width:1.0;"/><text fill="#000000" font-family="sans-serif" font-size="14" lengthAdjust="spacing" textLength="259.587" x="84" y="590.6358">seq_item_port: uvm_seq_item_pull_port</text><line style="stroke:#181818;stroke-width:0.5;" x1="65" x2="348.587" y1="598.7378" y2="598.7378"/></g><!--class MON--><g id="elem_MON"><rect codeLine="18" fill="#F1F1F1" height="67.0679" id="MON" rx="2.5" ry="2.5" style="stroke:#181818;stroke-width:0.5;" width="196.7713" x="403.5" y="530.102"/><ellipse cx="480.4997" cy="546.102" fill="#ADD1B2" rx="11" ry="11" style="stroke:#181818;stroke-width:1.0;"/><path d="M483.4685,551.7426 Q482.8904,552.0395 482.2497,552.1801 Q481.6091,552.3364 480.906,552.3364 Q478.406,552.3364 477.0779,550.6957 Q475.7654,549.0395 475.7654,545.9145 Q475.7654,542.7895 477.0779,541.1332 Q478.406,539.477 480.906,539.477 Q481.6091,539.477 482.2497,539.6332 Q482.906,539.7895 483.4685,540.0864 L483.4685,542.8051 Q482.8435,542.227 482.2497,541.9614 Q481.656,541.6801 481.031,541.6801 Q479.6872,541.6801 478.9997,542.7582 Q478.3122,543.8207 478.3122,545.9145 Q478.3122,548.0082 478.9997,549.0864 Q479.6872,550.1489 481.031,550.1489 Q481.656,550.1489 482.2497,549.8832 Q482.8435,549.602 483.4685,549.0239 L483.4685,551.7426 Z " fill="#000000"/><text fill="#000000" font-family="sans-serif" font-size="14" lengthAdjust="spacing" textLength="34.2719" x="500.9997" y="551.534">MON</text><line style="stroke:#181818;stroke-width:0.5;" x1="404.5" x2="599.2713" y1="562.102" y2="562.102"/><ellipse cx="414.5" cy="577.1359" fill="none" rx="3" ry="3" style="stroke:#038048;stroke-width:1.0;"/><text fill="#000000" font-family="sans-serif" font-size="14" lengthAdjust="spacing" textLength="170.7713" x="423.5" y="581.0679">WRITE: uvm_analysis_port</text><line style="stroke:#181818;stroke-width:0.5;" x1="404.5" x2="599.2713" y1="589.1699" y2="589.1699"/></g><!--class SEQ--><g id="elem_SEQ"><rect codeLine="21" fill="#F1F1F1" height="162.4075" id="SEQ" rx="2.5" ry="2.5" style="stroke:#181818;stroke-width:0.5;" width="298.285" x="645" y="482.602"/><ellipse cx="776.6905" cy="498.602" fill="#ADD1B2" rx="11" ry="11" style="stroke:#181818;stroke-width:1.0;"/><path d="M779.6593,504.2426 Q779.0812,504.5395 778.4405,504.6801 Q777.7999,504.8364 777.0968,504.8364 Q774.5968,504.8364 773.2687,503.1957 Q771.9562,501.5395 771.9562,498.4145 Q771.9562,495.2895 773.2687,493.6332 Q774.5968,491.977 777.0968,491.977 Q777.7999,491.977 778.4405,492.1332 Q779.0968,492.2895 779.6593,492.5864 L779.6593,495.3051 Q779.0343,494.727 778.4405,494.4614 Q777.8468,494.1801 777.2218,494.1801 Q775.878,494.1801 775.1905,495.2582 Q774.503,496.3207 774.503,498.4145 Q774.503,500.5082 775.1905,501.5864 Q775.878,502.6489 777.2218,502.6489 Q777.8468,502.6489 778.4405,502.3832 Q779.0343,502.102 779.6593,501.5239 L779.6593,504.2426 Z " fill="#000000"/><text fill="#000000" font-family="sans-serif" font-size="14" lengthAdjust="spacing" textLength="26.4039" x="797.1905" y="504.034">SEQ</text><line style="stroke:#181818;stroke-width:0.5;" x1="646" x2="942.285" y1="514.602" y2="514.602"/><ellipse cx="656" cy="529.6359" fill="none" rx="3" ry="3" style="stroke:#038048;stroke-width:1.0;"/><text fill="#000000" font-family="sans-serif" font-size="14" lengthAdjust="spacing" textLength="214.5632" x="665" y="533.5679">rsp_export: uvm_analysis_export</text><ellipse cx="656" cy="548.7039" fill="none" rx="3" ry="3" style="stroke:#038048;stroke-width:1.0;"/><text fill="#000000" font-family="sans-serif" font-size="14" lengthAdjust="spacing" textLength="272.285" x="665" y="552.6358">seq_item_export: uvm_seq_item_pull_imp</text><ellipse cx="656" cy="567.7718" fill="none" rx="3" ry="3" style="stroke:#038048;stroke-width:1.0;"/><text fill="#000000" font-family="sans-serif" font-size="14" lengthAdjust="spacing" textLength="160.0614" x="665" y="571.7038">arbitration_queue: array</text><ellipse cx="656" cy="586.8397" fill="none" rx="3" ry="3" style="stroke:#038048;stroke-width:1.0;"/><text fill="#000000" font-family="sans-serif" font-size="14" lengthAdjust="spacing" textLength="116.0035" x="665" y="590.7717">lock_queue: array</text><ellipse cx="656" cy="605.9076" fill="none" rx="3" ry="3" style="stroke:#038048;stroke-width:1.0;"/><text fill="#000000" font-family="sans-serif" font-size="14" lengthAdjust="spacing" textLength="153.5094" x="665" y="609.8396">num_last_reqs: integral</text><ellipse cx="656" cy="624.9755" fill="none" rx="3" ry="3" style="stroke:#038048;stroke-width:1.0;"/><text fill="#000000" font-family="sans-serif" font-size="14" lengthAdjust="spacing" textLength="152.3194" x="665" y="628.9075">num_last_rsps: integral</text><line style="stroke:#181818;stroke-width:0.5;" x1="646" x2="942.285" y1="637.0095" y2="637.0095"/></g><!--class SCO--><g id="elem_SCO"><rect codeLine="29" fill="#F1F1F1" height="67.0679" id="SCO" rx="2.5" ry="2.5" style="stroke:#181818;stroke-width:0.5;" width="187.7834" x="830" y="336.602"/><ellipse cx="905.9077" cy="352.602" fill="#ADD1B2" rx="11" ry="11" style="stroke:#181818;stroke-width:1.0;"/><path d="M908.8765,358.2426 Q908.2984,358.5395 907.6577,358.6801 Q907.0171,358.8364 906.314,358.8364 Q903.814,358.8364 902.4859,357.1957 Q901.1734,355.5395 901.1734,352.4145 Q901.1734,349.2895 902.4859,347.6332 Q903.814,345.977 906.314,345.977 Q907.0171,345.977 907.6577,346.1332 Q908.314,346.2895 908.8765,346.5864 L908.8765,349.3051 Q908.2515,348.727 907.6577,348.4614 Q907.064,348.1801 906.439,348.1801 Q905.0952,348.1801 904.4077,349.2582 Q903.7202,350.3207 903.7202,352.4145 Q903.7202,354.5082 904.4077,355.5864 Q905.0952,356.6489 906.439,356.6489 Q907.064,356.6489 907.6577,356.3832 Q908.2515,356.102 908.8765,355.5239 L908.8765,358.2426 Z " fill="#000000"/><text fill="#000000" font-family="sans-serif" font-size="14" lengthAdjust="spacing" textLength="27.4679" x="926.4077" y="358.034">SCO</text><line style="stroke:#181818;stroke-width:0.5;" x1="831" x2="1016.7834" y1="368.602" y2="368.602"/><ellipse cx="841" cy="383.6359" fill="none" rx="3" ry="3" style="stroke:#038048;stroke-width:1.0;"/><text fill="#000000" font-family="sans-serif" font-size="14" lengthAdjust="spacing" textLength="161.7834" x="850" y="387.5679">READ: uvm_analysis_imp</text><line style="stroke:#181818;stroke-width:0.5;" x1="831" x2="1016.7834" y1="395.6699" y2="395.6699"/></g><!--class uvm_test_top--><g id="elem_uvm_test_top"><rect codeLine="32" fill="#F1F1F1" height="67.0679" id="uvm_test_top" rx="2.5" ry="2.5" style="stroke:#181818;stroke-width:0.5;" width="120.1297" x="634" y="44.602"/><ellipse cx="649" cy="60.602" fill="#ADD1B2" rx="11" ry="11" style="stroke:#181818;stroke-width:1.0;"/><path d="M651.9688,66.2426 Q651.3906,66.5395 650.75,66.6801 Q650.1094,66.8364 649.4063,66.8364 Q646.9063,66.8364 645.5781,65.1957 Q644.2656,63.5395 644.2656,60.4145 Q644.2656,57.2895 645.5781,55.6332 Q646.9063,53.977 649.4063,53.977 Q650.1094,53.977 650.75,54.1332 Q651.4063,54.2895 651.9688,54.5864 L651.9688,57.3051 Q651.3438,56.727 650.75,56.4614 Q650.1563,56.1801 649.5313,56.1801 Q648.1875,56.1801 647.5,57.2582 Q646.8125,58.3207 646.8125,60.4145 Q646.8125,62.5082 647.5,63.5864 Q648.1875,64.6489 649.5313,64.6489 Q650.1563,64.6489 650.75,64.3832 Q651.3438,64.102 651.9688,63.5239 L651.9688,66.2426 Z " fill="#000000"/><text fill="#000000" font-family="sans-serif" font-size="14" lengthAdjust="spacing" textLength="88.1297" x="663" y="66.034">uvm_test_top</text><line style="stroke:#181818;stroke-width:0.5;" x1="635" x2="753.1297" y1="76.602" y2="76.602"/><text fill="#000000" font-family="sans-serif" font-size="14" lengthAdjust="spacing" textLength="26.8239" x="640" y="95.5679">ENV</text><line style="stroke:#181818;stroke-width:0.5;" x1="635" x2="753.1297" y1="103.6699" y2="103.6699"/></g><!--class rsp_port--><g id="elem_rsp_port"><rect fill="#F1F1F1" height="48" id="rsp_port" rx="2.5" ry="2.5" style="stroke:#181818;stroke-width:0.5;" width="87.2298" x="22.5" y="704.602"/><ellipse cx="37.5" cy="720.602" fill="#ADD1B2" rx="11" ry="11" style="stroke:#181818;stroke-width:1.0;"/><path d="M40.4688,726.2426 Q39.8906,726.5395 39.25,726.6801 Q38.6094,726.8364 37.9063,726.8364 Q35.4063,726.8364 34.0781,725.1957 Q32.7656,723.5395 32.7656,720.4145 Q32.7656,717.2895 34.0781,715.6332 Q35.4063,713.977 37.9063,713.977 Q38.6094,713.977 39.25,714.1332 Q39.9063,714.2895 40.4688,714.5864 L40.4688,717.3051 Q39.8438,716.727 39.25,716.4614 Q38.6563,716.1801 38.0313,716.1801 Q36.6875,716.1801 36,717.2582 Q35.3125,718.3207 35.3125,720.4145 Q35.3125,722.5082 36,723.5864 Q36.6875,724.6489 38.0313,724.6489 Q38.6563,724.6489 39.25,724.3832 Q39.8438,724.102 40.4688,723.5239 L40.4688,726.2426 Z " fill="#000000"/><text fill="#000000" font-family="sans-serif" font-size="14" lengthAdjust="spacing" textLength="55.2298" x="51.5" y="726.034">rsp_port</text><line style="stroke:#181818;stroke-width:0.5;" x1="23.5" x2="108.7298" y1="736.602" y2="736.602"/><line style="stroke:#181818;stroke-width:0.5;" x1="23.5" x2="108.7298" y1="744.602" y2="744.602"/></g><!--class seq_item_port--><g id="elem_seq_item_port"><rect fill="#F1F1F1" height="48" id="seq_item_port" rx="2.5" ry="2.5" style="stroke:#181818;stroke-width:0.5;" width="125.2117" x="144.5" y="704.602"/><ellipse cx="159.5" cy="720.602" fill="#ADD1B2" rx="11" ry="11" style="stroke:#181818;stroke-width:1.0;"/><path d="M162.4688,726.2426 Q161.8906,726.5395 161.25,726.6801 Q160.6094,726.8364 159.9063,726.8364 Q157.4063,726.8364 156.0781,725.1957 Q154.7656,723.5395 154.7656,720.4145 Q154.7656,717.2895 156.0781,715.6332 Q157.4063,713.977 159.9063,713.977 Q160.6094,713.977 161.25,714.1332 Q161.9063,714.2895 162.4688,714.5864 L162.4688,717.3051 Q161.8438,716.727 161.25,716.4614 Q160.6563,716.1801 160.0313,716.1801 Q158.6875,716.1801 158,717.2582 Q157.3125,718.3207 157.3125,720.4145 Q157.3125,722.5082 158,723.5864 Q158.6875,724.6489 160.0313,724.6489 Q160.6563,724.6489 161.25,724.3832 Q161.8438,724.102 162.4688,723.5239 L162.4688,726.2426 Z " fill="#000000"/><text fill="#000000" font-family="sans-serif" font-size="14" lengthAdjust="spacing" textLength="93.2117" x="173.5" y="726.034">seq_item_port</text><line style="stroke:#181818;stroke-width:0.5;" x1="145.5" x2="268.7117" y1="736.602" y2="736.602"/><line style="stroke:#181818;stroke-width:0.5;" x1="145.5" x2="268.7117" y1="744.602" y2="744.602"/></g><!--class WRITE--><g id="elem_WRITE"><rect fill="#F1F1F1" height="48" id="WRITE" rx="2.5" ry="2.5" style="stroke:#181818;stroke-width:0.5;" width="74.0418" x="305" y="704.602"/><ellipse cx="320" cy="720.602" fill="#ADD1B2" rx="11" ry="11" style="stroke:#181818;stroke-width:1.0;"/><path d="M322.9688,726.2426 Q322.3906,726.5395 321.75,726.6801 Q321.1094,726.8364 320.4063,726.8364 Q317.9063,726.8364 316.5781,725.1957 Q315.2656,723.5395 315.2656,720.4145 Q315.2656,717.2895 316.5781,715.6332 Q317.9063,713.977 320.4063,713.977 Q321.1094,713.977 321.75,714.1332 Q322.4063,714.2895 322.9688,714.5864 L322.9688,717.3051 Q322.3438,716.727 321.75,716.4614 Q321.1563,716.1801 320.5313,716.1801 Q319.1875,716.1801 318.5,717.2582 Q317.8125,718.3207 317.8125,720.4145 Q317.8125,722.5082 318.5,723.5864 Q319.1875,724.6489 320.5313,724.6489 Q321.1563,724.6489 321.75,724.3832 Q322.3438,724.102 322.9688,723.5239 L322.9688,726.2426 Z " fill="#000000"/><text fill="#000000" font-family="sans-serif" font-size="14" lengthAdjust="spacing" textLength="42.0418" x="334" y="726.034">WRITE</text><line style="stroke:#181818;stroke-width:0.5;" x1="306" x2="378.0418" y1="736.602" y2="736.602"/><line style="stroke:#181818;stroke-width:0.5;" x1="306" x2="378.0418" y1="744.602" y2="744.602"/></g><!--class rsp_export--><g id="elem_rsp_export"><rect fill="#F1F1F1" height="48" id="rsp_export" rx="2.5" ry="2.5" style="stroke:#181818;stroke-width:0.5;" width="102.5318" x="414.5" y="704.602"/><ellipse cx="429.5" cy="720.602" fill="#ADD1B2" rx="11" ry="11" style="stroke:#181818;stroke-width:1.0;"/><path d="M432.4688,726.2426 Q431.8906,726.5395 431.25,726.6801 Q430.6094,726.8364 429.9063,726.8364 Q427.4063,726.8364 426.0781,725.1957 Q424.7656,723.5395 424.7656,720.4145 Q424.7656,717.2895 426.0781,715.6332 Q427.4063,713.977 429.9063,713.977 Q430.6094,713.977 431.25,714.1332 Q431.9063,714.2895 432.4688,714.5864 L432.4688,717.3051 Q431.8438,716.727 431.25,716.4614 Q430.6563,716.1801 430.0313,716.1801 Q428.6875,716.1801 428,717.2582 Q427.3125,718.3207 427.3125,720.4145 Q427.3125,722.5082 428,723.5864 Q428.6875,724.6489 430.0313,724.6489 Q430.6563,724.6489 431.25,724.3832 Q431.8438,724.102 432.4688,723.5239 L432.4688,726.2426 Z " fill="#000000"/><text fill="#000000" font-family="sans-serif" font-size="14" lengthAdjust="spacing" textLength="70.5318" x="443.5" y="726.034">rsp_export</text><line style="stroke:#181818;stroke-width:0.5;" x1="415.5" x2="516.0318" y1="736.602" y2="736.602"/><line style="stroke:#181818;stroke-width:0.5;" x1="415.5" x2="516.0318" y1="744.602" y2="744.602"/></g><!--class seq_item_export--><g id="elem_seq_item_export"><rect fill="#F1F1F1" height="48" id="seq_item_export" rx="2.5" ry="2.5" style="stroke:#181818;stroke-width:0.5;" width="140.5136" x="552.5" y="704.602"/><ellipse cx="567.5" cy="720.602" fill="#ADD1B2" rx="11" ry="11" style="stroke:#181818;stroke-width:1.0;"/><path d="M570.4688,726.2426 Q569.8906,726.5395 569.25,726.6801 Q568.6094,726.8364 567.9063,726.8364 Q565.4063,726.8364 564.0781,725.1957 Q562.7656,723.5395 562.7656,720.4145 Q562.7656,717.2895 564.0781,715.6332 Q565.4063,713.977 567.9063,713.977 Q568.6094,713.977 569.25,714.1332 Q569.9063,714.2895 570.4688,714.5864 L570.4688,717.3051 Q569.8438,716.727 569.25,716.4614 Q568.6563,716.1801 568.0313,716.1801 Q566.6875,716.1801 566,717.2582 Q565.3125,718.3207 565.3125,720.4145 Q565.3125,722.5082 566,723.5864 Q566.6875,724.6489 568.0313,724.6489 Q568.6563,724.6489 569.25,724.3832 Q569.8438,724.102 570.4688,723.5239 L570.4688,726.2426 Z " fill="#000000"/><text fill="#000000" font-family="sans-serif" font-size="14" lengthAdjust="spacing" textLength="108.5136" x="581.5" y="726.034">seq_item_export</text><line style="stroke:#181818;stroke-width:0.5;" x1="553.5" x2="692.0136" y1="736.602" y2="736.602"/><line style="stroke:#181818;stroke-width:0.5;" x1="553.5" x2="692.0136" y1="744.602" y2="744.602"/></g><!--class arbitration_queue--><g id="elem_arbitration_queue"><rect fill="#F1F1F1" height="48" id="arbitration_queue" rx="2.5" ry="2.5" style="stroke:#181818;stroke-width:0.5;" width="150.2576" x="729" y="704.602"/><ellipse cx="744" cy="720.602" fill="#ADD1B2" rx="11" ry="11" style="stroke:#181818;stroke-width:1.0;"/><path d="M746.9688,726.2426 Q746.3906,726.5395 745.75,726.6801 Q745.1094,726.8364 744.4063,726.8364 Q741.9063,726.8364 740.5781,725.1957 Q739.2656,723.5395 739.2656,720.4145 Q739.2656,717.2895 740.5781,715.6332 Q741.9063,713.977 744.4063,713.977 Q745.1094,713.977 745.75,714.1332 Q746.4063,714.2895 746.9688,714.5864 L746.9688,717.3051 Q746.3438,716.727 745.75,716.4614 Q745.1563,716.1801 744.5313,716.1801 Q743.1875,716.1801 742.5,717.2582 Q741.8125,718.3207 741.8125,720.4145 Q741.8125,722.5082 742.5,723.5864 Q743.1875,724.6489 744.5313,724.6489 Q745.1563,724.6489 745.75,724.3832 Q746.3438,724.102 746.9688,723.5239 L746.9688,726.2426 Z " fill="#000000"/><text fill="#000000" font-family="sans-serif" font-size="14" lengthAdjust="spacing" textLength="118.2576" x="758" y="726.034">arbitration_queue</text><line style="stroke:#181818;stroke-width:0.5;" x1="730" x2="878.2576" y1="736.602" y2="736.602"/><line style="stroke:#181818;stroke-width:0.5;" x1="730" x2="878.2576" y1="744.602" y2="744.602"/></g><!--class lock_queue--><g id="elem_lock_queue"><rect fill="#F1F1F1" height="48" id="lock_queue" rx="2.5" ry="2.5" style="stroke:#181818;stroke-width:0.5;" width="106.1997" x="914" y="704.602"/><ellipse cx="929" cy="720.602" fill="#ADD1B2" rx="11" ry="11" style="stroke:#181818;stroke-width:1.0;"/><path d="M931.9688,726.2426 Q931.3906,726.5395 930.75,726.6801 Q930.1094,726.8364 929.4063,726.8364 Q926.9063,726.8364 925.5781,725.1957 Q924.2656,723.5395 924.2656,720.4145 Q924.2656,717.2895 925.5781,715.6332 Q926.9063,713.977 929.4063,713.977 Q930.1094,713.977 930.75,714.1332 Q931.4063,714.2895 931.9688,714.5864 L931.9688,717.3051 Q931.3438,716.727 930.75,716.4614 Q930.1563,716.1801 929.5313,716.1801 Q928.1875,716.1801 927.5,717.2582 Q926.8125,718.3207 926.8125,720.4145 Q926.8125,722.5082 927.5,723.5864 Q928.1875,724.6489 929.5313,724.6489 Q930.1563,724.6489 930.75,724.3832 Q931.3438,724.102 931.9688,723.5239 L931.9688,726.2426 Z " fill="#000000"/><text fill="#000000" font-family="sans-serif" font-size="14" lengthAdjust="spacing" textLength="74.1997" x="943" y="726.034">lock_queue</text><line style="stroke:#181818;stroke-width:0.5;" x1="915" x2="1019.1997" y1="736.602" y2="736.602"/><line style="stroke:#181818;stroke-width:0.5;" x1="915" x2="1019.1997" y1="744.602" y2="744.602"/></g><!--class num_last_reqs--><g id="elem_num_last_reqs"><rect fill="#F1F1F1" height="48" id="num_last_reqs" rx="2.5" ry="2.5" style="stroke:#181818;stroke-width:0.5;" width="127.0456" x="1055.5" y="704.602"/><ellipse cx="1070.5" cy="720.602" fill="#ADD1B2" rx="11" ry="11" style="stroke:#181818;stroke-width:1.0;"/><path d="M1073.4688,726.2426 Q1072.8906,726.5395 1072.25,726.6801 Q1071.6094,726.8364 1070.9063,726.8364 Q1068.4063,726.8364 1067.0781,725.1957 Q1065.7656,723.5395 1065.7656,720.4145 Q1065.7656,717.2895 1067.0781,715.6332 Q1068.4063,713.977 1070.9063,713.977 Q1071.6094,713.977 1072.25,714.1332 Q1072.9063,714.2895 1073.4688,714.5864 L1073.4688,717.3051 Q1072.8438,716.727 1072.25,716.4614 Q1071.6563,716.1801 1071.0313,716.1801 Q1069.6875,716.1801 1069,717.2582 Q1068.3125,718.3207 1068.3125,720.4145 Q1068.3125,722.5082 1069,723.5864 Q1069.6875,724.6489 1071.0313,724.6489 Q1071.6563,724.6489 1072.25,724.3832 Q1072.8438,724.102 1073.4688,723.5239 L1073.4688,726.2426 Z " fill="#000000"/><text fill="#000000" font-family="sans-serif" font-size="14" lengthAdjust="spacing" textLength="95.0456" x="1084.5" y="726.034">num_last_reqs</text><line style="stroke:#181818;stroke-width:0.5;" x1="1056.5" x2="1181.5456" y1="736.602" y2="736.602"/><line style="stroke:#181818;stroke-width:0.5;" x1="1056.5" x2="1181.5456" y1="744.602" y2="744.602"/></g><!--class num_last_rsps--><g id="elem_num_last_rsps"><rect fill="#F1F1F1" height="48" id="num_last_rsps" rx="2.5" ry="2.5" style="stroke:#181818;stroke-width:0.5;" width="125.8557" x="1218" y="704.602"/><ellipse cx="1233" cy="720.602" fill="#ADD1B2" rx="11" ry="11" style="stroke:#181818;stroke-width:1.0;"/><path d="M1235.9688,726.2426 Q1235.3906,726.5395 1234.75,726.6801 Q1234.1094,726.8364 1233.4063,726.8364 Q1230.9063,726.8364 1229.5781,725.1957 Q1228.2656,723.5395 1228.2656,720.4145 Q1228.2656,717.2895 1229.5781,715.6332 Q1230.9063,713.977 1233.4063,713.977 Q1234.1094,713.977 1234.75,714.1332 Q1235.4063,714.2895 1235.9688,714.5864 L1235.9688,717.3051 Q1235.3438,716.727 1234.75,716.4614 Q1234.1563,716.1801 1233.5313,716.1801 Q1232.1875,716.1801 1231.5,717.2582 Q1230.8125,718.3207 1230.8125,720.4145 Q1230.8125,722.5082 1231.5,723.5864 Q1232.1875,724.6489 1233.5313,724.6489 Q1234.1563,724.6489 1234.75,724.3832 Q1235.3438,724.102 1235.9688,723.5239 L1235.9688,726.2426 Z " fill="#000000"/><text fill="#000000" font-family="sans-serif" font-size="14" lengthAdjust="spacing" textLength="93.8557" x="1247" y="726.034">num_last_rsps</text><line style="stroke:#181818;stroke-width:0.5;" x1="1219" x2="1342.8557" y1="736.602" y2="736.602"/><line style="stroke:#181818;stroke-width:0.5;" x1="1219" x2="1342.8557" y1="744.602" y2="744.602"/></g><!--class READ--><g id="elem_READ"><rect fill="#F1F1F1" height="48" id="READ" rx="2.5" ry="2.5" style="stroke:#181818;stroke-width:0.5;" width="67.6579" x="978" y="539.602"/><ellipse cx="993" cy="555.602" fill="#ADD1B2" rx="11" ry="11" style="stroke:#181818;stroke-width:1.0;"/><path d="M995.9688,561.2426 Q995.3906,561.5395 994.75,561.6801 Q994.1094,561.8364 993.4063,561.8364 Q990.9063,561.8364 989.5781,560.1957 Q988.2656,558.5395 988.2656,555.4145 Q988.2656,552.2895 989.5781,550.6332 Q990.9063,548.977 993.4063,548.977 Q994.1094,548.977 994.75,549.1332 Q995.4063,549.2895 995.9688,549.5864 L995.9688,552.3051 Q995.3438,551.727 994.75,551.4614 Q994.1563,551.1801 993.5313,551.1801 Q992.1875,551.1801 991.5,552.2582 Q990.8125,553.3207 990.8125,555.4145 Q990.8125,557.5082 991.5,558.5864 Q992.1875,559.6489 993.5313,559.6489 Q994.1563,559.6489 994.75,559.3832 Q995.3438,559.102 995.9688,558.5239 L995.9688,561.2426 Z " fill="#000000"/><text fill="#000000" font-family="sans-serif" font-size="14" lengthAdjust="spacing" textLength="35.6579" x="1007" y="561.034">READ</text><line style="stroke:#181818;stroke-width:0.5;" x1="979" x2="1044.6579" y1="571.602" y2="571.602"/><line style="stroke:#181818;stroke-width:0.5;" x1="979" x2="1044.6579" y1="579.602" y2="579.602"/></g><!--link TEST to ENV--><g id="link_TEST_ENV"><path codeLine="36" d="M805.51,111.662 C796.96,129.622 793.9816,135.8671 784.8016,155.1671 " fill="none" id="TEST-to-ENV" style="stroke:#181818;stroke-width:1.0;"/><polygon fill="none" points="777.07,171.422,790.2199,157.7443,779.3833,152.5899,777.07,171.422" style="stroke:#181818;stroke-width:1.0;"/></g><!--link ENV to AGENT--><g id="link_ENV_AGENT"><path codeLine="37" d="M727.42,234.732 C699.7,256.592 671.7843,280.5722 641.6243,310.0422 " fill="none" id="ENV-to-AGENT" style="stroke:#181818;stroke-width:1.0;"/><polygon fill="none" points="628.75,322.622,645.8176,314.3336,637.4311,305.7507,628.75,322.622" style="stroke:#181818;stroke-width:1.0;"/></g><!--link ENV to AGENT--><g id="link_ENV_AGENT"><path codeLine="53" d="M727.16,253.942 C699.41,281.822 672.6548,307.4895 642.4948,331.9295 " fill="none" id="ENV-to-AGENT-1" style="stroke:#181818;stroke-width:1.0;"/><polygon fill="none" points="628.51,343.262,646.2723,336.5911,638.7173,327.2679,628.51,343.262" style="stroke:#181818;stroke-width:1.0;"/></g><!--link ENV to SCO--><g id="link_ENV_SCO"><path codeLine="38" d="M786.71,253.152 C812.13,278.622 834.7649,300.4212 863.9149,324.8112 " fill="none" id="ENV-to-SCO" style="stroke:#181818;stroke-width:1.0;"/><polygon fill="none" points="877.72,336.362,867.7652,320.2095,860.0647,329.4129,877.72,336.362" style="stroke:#181818;stroke-width:1.0;"/></g><!--link ENV to SCO--><g id="link_ENV_SCO"><path codeLine="54" d="M786.71,234.422 C819.21,259.802 856.9293,292.489 887.1693,323.529 " fill="none" id="ENV-to-SCO-1" style="stroke:#181818;stroke-width:1.0;"/><polygon fill="none" points="899.73,336.422,891.467,319.3421,882.8716,327.7159,899.73,336.422" style="stroke:#181818;stroke-width:1.0;"/></g><!--link AGENT to DRV--><g id="link_AGENT_DRV"><path codeLine="39" d="M551.27,386.772 C487.63,415.712 377.0191,470.1169 296.1991,512.2769 " fill="none" id="AGENT-to-DRV" style="stroke:#181818;stroke-width:1.0;"/><polygon fill="none" points="280.24,520.602,298.9741,517.5966,293.4241,506.9572,280.24,520.602" style="stroke:#181818;stroke-width:1.0;"/></g><!--link AGENT to DRV--><g id="link_AGENT_DRV"><path codeLine="55" d="M551.2,395.162 C493.17,426.552 399.2037,474.226 318.9537,512.666 " fill="none" id="AGENT-to-DRV-1" style="stroke:#181818;stroke-width:1.0;"/><polygon fill="none" points="302.72,520.442,321.5457,518.0772,316.3617,507.2547,302.72,520.442" style="stroke:#181818;stroke-width:1.0;"/></g><!--link AGENT to MON--><g id="link_AGENT_MON"><path codeLine="40" d="M554.84,422.672 C537.02,456.792 523.4148,483.5155 513.1048,512.9255 " fill="none" id="AGENT-to-MON" style="stroke:#181818;stroke-width:1.0;"/><polygon fill="none" points="507.15,529.912,518.767,514.9104,507.4426,510.9406,507.15,529.912" style="stroke:#181818;stroke-width:1.0;"/></g><!--link AGENT to MON--><g id="link_AGENT_MON"><path codeLine="56" d="M578.43,422.672 C565.03,456.792 553.3482,484.8952 536.4482,514.3052 " fill="none" id="AGENT-to-MON-1" style="stroke:#181818;stroke-width:1.0;"/><polygon fill="none" points="527.48,529.912,541.6505,517.2946,531.2459,511.3158,527.48,529.912" style="stroke:#181818;stroke-width:1.0;"/></g><!--link AGENT to SEQ--><g id="link_AGENT_SEQ"><path codeLine="41" d="M628.77,417.952 C648.01,437.322 658.8178,448.1492 682.5978,470.0792 " fill="none" id="AGENT-to-SEQ" style="stroke:#181818;stroke-width:1.0;"/><polygon fill="none" points="695.83,482.282,686.6654,465.6684,678.5302,474.4899,695.83,482.282" style="stroke:#181818;stroke-width:1.0;"/></g><!--link AGENT to SEQ--><g id="link_AGENT_SEQ"><path codeLine="57" d="M628.54,398.132 C654.95,420.092 677.3978,439.7944 708.8078,469.8644 " fill="none" id="AGENT-to-SEQ-1" style="stroke:#181818;stroke-width:1.0;"/><polygon fill="none" points="721.81,482.312,712.9569,465.5303,704.6586,474.1985,721.81,482.312" style="stroke:#181818;stroke-width:1.0;"/></g><!--link DRV to rsp_port--><g id="link_DRV_rsp_port"><path codeLine="42" d="M158.98,607.002 C129.63,638.132 105.2291,664.5754 87.1991,689.8654 " fill="none" id="DRV-to-rsp_port" style="stroke:#181818;stroke-width:1.0;"/><polygon fill="none" points="76.75,704.522,92.0847,693.3484,82.3136,686.3823,76.75,704.522" style="stroke:#181818;stroke-width:1.0;"/></g><!--link DRV to rsp_port--><g id="link_DRV_rsp_port"><path codeLine="58" d="M182.33,607.002 C157.97,638.132 134.5608,666.669 108.6108,691.959 " fill="none" id="DRV-to-rsp_port-1" style="stroke:#181818;stroke-width:1.0;"/><polygon fill="none" points="95.72,704.522,112.7984,696.256,104.4231,687.6621,95.72,704.522" style="stroke:#181818;stroke-width:1.0;"/></g><!--link DRV to seq_item_port--><g id="link_DRV_seq_item_port"><path codeLine="43" d="M195.66,607.002 C193.23,638.132 191.2379,661.436 195.0779,686.726 " fill="none" id="DRV-to-seq_item_port" style="stroke:#181818;stroke-width:1.0;"/><polygon fill="none" points="197.78,704.522,201.0099,685.8252,189.1459,687.6267,197.78,704.522" style="stroke:#181818;stroke-width:1.0;"/></g><!--link DRV to seq_item_port--><g id="link_DRV_seq_item_port"><path codeLine="59" d="M219.01,607.002 C221.58,638.132 223.69,661.4606 219.62,686.7506 " fill="none" id="DRV-to-seq_item_port-1" style="stroke:#181818;stroke-width:1.0;"/><polygon fill="none" points="216.76,704.522,225.5438,687.704,213.6962,685.7973,216.76,704.522" style="stroke:#181818;stroke-width:1.0;"/></g><!--link MON to WRITE--><g id="link_MON_WRITE"><path codeLine="44" d="M459.57,597.192 C424.93,628.972 390.1898,662.6261 366.9298,690.6761 " fill="none" id="MON-to-WRITE" style="stroke:#181818;stroke-width:1.0;"/><polygon fill="none" points="355.44,704.532,371.5484,694.506,362.3111,686.8462,355.44,704.532" style="stroke:#181818;stroke-width:1.0;"/></g><!--link MON to WRITE--><g id="link_MON_WRITE"><path codeLine="60" d="M481.06,597.192 C453.52,628.972 419.9932,664.6253 387.9532,692.6753 " fill="none" id="MON-to-WRITE-1" style="stroke:#181818;stroke-width:1.0;"/><polygon fill="none" points="374.41,704.532,391.9055,697.1897,384.001,688.1609,374.41,704.532" style="stroke:#181818;stroke-width:1.0;"/></g><!--link SEQ to rsp_export--><g id="link_SEQ_rsp_export"><path codeLine="45" d="M644.68,632.552 C592.4,658.232 553.984,677.2385 519.034,696.0285 " fill="none" id="SEQ-to-rsp_export" style="stroke:#181818;stroke-width:1.0;"/><polygon fill="none" points="503.18,704.552,521.8752,701.3131,516.1928,690.7438,503.18,704.552" style="stroke:#181818;stroke-width:1.0;"/></g><!--link SEQ to rsp_export--><g id="link_SEQ_rsp_export"><path codeLine="61" d="M646.38,644.672 C600.43,667.532 569.1295,683.0661 534.2295,699.0261 " fill="none" id="SEQ-to-rsp_export-1" style="stroke:#181818;stroke-width:1.0;"/><polygon fill="none" points="517.86,706.512,536.7248,704.4826,531.7342,693.5696,517.86,706.512" style="stroke:#181818;stroke-width:1.0;"/></g><!--link SEQ to seq_item_export--><g id="link_SEQ_seq_item_export"><path codeLine="46" d="M697.25,644.672 C674.23,666.572 664.3003,675.2038 650.0803,691.0538 " fill="none" id="SEQ-to-seq_item_export" style="stroke:#181818;stroke-width:1.0;"/><polygon fill="none" points="638.06,704.452,654.5464,695.0606,645.6143,687.047,638.06,704.452" style="stroke:#181818;stroke-width:1.0;"/></g><!--link SEQ to seq_item_export--><g id="link_SEQ_seq_item_export"><path codeLine="62" d="M723.5,644.672 C700.58,666.572 690.0924,677.1321 670.9224,692.9821 " fill="none" id="SEQ-to-seq_item_export-1" style="stroke:#181818;stroke-width:1.0;"/><polygon fill="none" points="657.05,704.452,674.7456,697.6063,667.0991,688.358,657.05,704.452" style="stroke:#181818;stroke-width:1.0;"/></g><!--link SEQ to arbitration_queue--><g id="link_SEQ_arbitration_queue"><path codeLine="47" d="M786.16,644.672 C787.45,666.572 786.2365,670.9955 789.6065,686.8455 " fill="none" id="SEQ-to-arbitration_queue" style="stroke:#181818;stroke-width:1.0;"/><polygon fill="none" points="793.35,704.452,795.4754,685.5977,783.7377,688.0934,793.35,704.452" style="stroke:#181818;stroke-width:1.0;"/></g><!--link SEQ to arbitration_queue--><g id="link_SEQ_arbitration_queue"><path codeLine="63" d="M812.41,644.672 C813.81,666.572 815.6943,670.6896 814.1243,686.5396 " fill="none" id="SEQ-to-arbitration_queue-1" style="stroke:#181818;stroke-width:1.0;"/><polygon fill="none" points="812.35,704.452,820.0951,687.1311,808.1535,685.9482,812.35,704.452" style="stroke:#181818;stroke-width:1.0;"/></g><!--link SEQ to lock_queue--><g id="link_SEQ_lock_queue"><path codeLine="48" d="M866.23,644.672 C889.42,666.572 900.0901,677.1534 919.3201,693.0034 " fill="none" id="SEQ-to-lock_queue" style="stroke:#181818;stroke-width:1.0;"/><polygon fill="none" points="933.21,704.452,923.1362,688.3734,915.5039,697.6334,933.21,704.452" style="stroke:#181818;stroke-width:1.0;"/></g><!--link SEQ to lock_queue--><g id="link_SEQ_lock_queue"><path codeLine="64" d="M892.48,644.672 C915.78,666.572 925.8716,675.229 940.1516,691.079 " fill="none" id="SEQ-to-lock_queue-1" style="stroke:#181818;stroke-width:1.0;"/><polygon fill="none" points="952.2,704.452,944.6093,687.0629,935.694,695.0951,952.2,704.452" style="stroke:#181818;stroke-width:1.0;"/></g><!--link SEQ to num_last_reqs--><g id="link_SEQ_num_last_reqs"><path codeLine="49" d="M940.9,644.672 C984.51,666.572 1013.3056,680.9966 1047.3056,696.8466 " fill="none" id="SEQ-to-num_last_reqs" style="stroke:#181818;stroke-width:1.0;"/><polygon fill="none" points="1063.62,704.452,1049.8408,691.4085,1044.7705,702.2847,1063.62,704.452" style="stroke:#181818;stroke-width:1.0;"/></g><!--link SEQ to num_last_reqs--><g id="link_SEQ_num_last_reqs"><path codeLine="65" d="M943.28,632.782 C994.87,658.342 1032.4277,677.083 1066.7677,695.813 " fill="none" id="SEQ-to-num_last_reqs-1" style="stroke:#181818;stroke-width:1.0;"/><polygon fill="none" points="1082.57,704.432,1069.6407,690.5455,1063.8947,701.0804,1082.57,704.432" style="stroke:#181818;stroke-width:1.0;"/></g><!--link SEQ to num_last_rsps--><g id="link_SEQ_num_last_rsps"><path codeLine="50" d="M943.09,644.272 C943.4,644.382 943.7,644.492 944,644.602 C1047.01,681.782 1077.2,676.312 1183,704.602 C1194.16,707.582 1188.7661,706.2159 1200.5061,709.3959 " fill="none" id="SEQ-to-num_last_rsps" style="stroke:#181818;stroke-width:1.0;"/><polygon fill="none" points="1217.88,714.102,1202.0748,703.6046,1198.9374,715.1872,1217.88,714.102" style="stroke:#181818;stroke-width:1.0;"/></g><!--link SEQ to num_last_rsps--><g id="link_SEQ_num_last_rsps"><path codeLine="66" d="M943.07,630.422 C955.13,635.532 967.21,640.342 979,644.602 C1081.91,681.742 1094.75,671.6759 1200.3,699.8759 " fill="none" id="SEQ-to-num_last_rsps-1" style="stroke:#181818;stroke-width:1.0;"/><polygon fill="none" points="1217.69,704.522,1201.8487,694.0792,1198.7513,705.6725,1217.69,704.522" style="stroke:#181818;stroke-width:1.0;"/></g><!--link SCO to READ--><g id="link_SCO_READ"><path codeLine="51" d="M929.23,404.022 C942.79,442.622 962.8189,490.2455 983.3389,524.0455 " fill="none" id="SCO-to-READ" style="stroke:#181818;stroke-width:1.0;"/><polygon fill="none" points="992.68,539.432,988.4677,520.9318,978.21,527.1592,992.68,539.432" style="stroke:#181818;stroke-width:1.0;"/></g><!--link SCO to READ--><g id="link_SCO_READ"><path codeLine="67" d="M949.61,404.022 C971.77,442.622 995.071,488.4052 1005.311,522.2052 " fill="none" id="SCO-to-READ-1" style="stroke:#181818;stroke-width:1.0;"/><polygon fill="none" points="1010.53,539.432,1011.0533,520.4655,999.5687,523.9449,1010.53,539.432" style="stroke:#181818;stroke-width:1.0;"/></g><!--link uvm_test_top to ENV--><g id="link_uvm_test_top_ENV"><path codeLine="52" d="M709.25,111.662 C717.66,129.622 720.565,135.8215 729.605,155.1215 " fill="none" id="uvm_test_top-to-ENV" style="stroke:#181818;stroke-width:1.0;"/><polygon fill="none" points="737.24,171.422,735.0384,152.5765,724.1715,157.6665,737.24,171.422" style="stroke:#181818;stroke-width:1.0;"/></g><!--SRC=[xPEzReCm58LtdiBAMkK5CbH22QewG5H2qz5oa4LH37PiKpLgy-urviVN1CPizGASUou-vdu8afz9GT4g3MFqVenHHfK-qJh_H1aNdF7Yka8_0J8hPqGfb4M7h1VQ5IL7Uty35gC1H_WI9TduTDZkx_pM0JfswN6yZ_U9wutUxdgD5tG-IIMmu59lKFDLOL8JTbMbif8pANh1fQOLS3gfOSpPuKuc2Tpf8ttDegLjO9z9FKr8lsSoTk9CIkZsSvQLS7uYJwMMH9UynfU6DdI3Y9JawXoCv-U5KjrKsAJLMDABsg2orhIGXCqPb9WQlDDkz_2qQHJk9kSSGiEkrg0DU5XpCGkNlLZqrklVvx7GacO51zae3QHrT5bf00j80rz06Z1hqRB209MlUXG5FQjToR8HzCYwTu09Z_faodxnRgH-sStJrxrXBfNC68F-X-nAxQYiuWtZ_tC_ydFV_W00]--></g></svg>