<svg xmlns="http://www.w3.org/2000/svg" xmlns:xlink="http://www.w3.org/1999/xlink" contentStyleType="text/css" height="775px" preserveAspectRatio="none" style="width:1453px;height:775px;background:#FFFFFF;" version="1.1" viewBox="0 0 1453 775" width="1453px" zoomAndPan="magnify"><defs/><g><!--cluster PIPE datapath UVM Testbench Topology--><g id="cluster_PIPE datapath UVM Testbench Topology"><path d="M8.5,6.602 L288.463,6.602 A3.75,3.75 0 0 1 290.963,9.102 L297.963,31.6699 L1443.5,31.6699 A2.5,2.5 0 0 1 1446,34.1699 L1446,766.102 A2.5,2.5 0 0 1 1443.5,768.602 L8.5,768.602 A2.5,2.5 0 0 1 6,766.102 L6,9.102 A2.5,2.5 0 0 1 8.5,6.602 " fill="none" style="stroke:#000000;stroke-width:1.5;"/><line style="stroke:#000000;stroke-width:1.5;" x1="6" x2="297.963" y1="31.6699" y2="31.6699"/><text fill="#000000" font-family="sans-serif" font-size="14" font-weight="bold" lengthAdjust="spacing" textLength="278.963" x="10" y="23.5679">PIPE datapath UVM Testbench Topology</text></g><!--class uvm_test_top--><g id="elem_uvm_test_top"><rect codeLine="2" fill="#F1F1F1" height="67.0679" id="uvm_test_top" rx="2.5" ry="2.5" style="stroke:#181818;stroke-width:0.5;" width="120.1297" x="446" y="44.602"/><ellipse cx="461" cy="60.602" fill="#ADD1B2" rx="11" ry="11" style="stroke:#181818;stroke-width:1.0;"/><path d="M463.9688,66.2426 Q463.3906,66.5395 462.75,66.6801 Q462.1094,66.8364 461.4063,66.8364 Q458.9063,66.8364 457.5781,65.1957 Q456.2656,63.5395 456.2656,60.4145 Q456.2656,57.2895 457.5781,55.6332 Q458.9063,53.977 461.4063,53.977 Q462.1094,53.977 462.75,54.1332 Q463.4063,54.2895 463.9688,54.5864 L463.9688,57.3051 Q463.3438,56.727 462.75,56.4614 Q462.1563,56.1801 461.5313,56.1801 Q460.1875,56.1801 459.5,57.2582 Q458.8125,58.3207 458.8125,60.4145 Q458.8125,62.5082 459.5,63.5864 Q460.1875,64.6489 461.5313,64.6489 Q462.1563,64.6489 462.75,64.3832 Q463.3438,64.102 463.9688,63.5239 L463.9688,66.2426 Z " fill="#000000"/><text fill="#000000" font-family="sans-serif" font-size="14" lengthAdjust="spacing" textLength="88.1297" x="475" y="66.034">uvm_test_top</text><line style="stroke:#181818;stroke-width:0.5;" x1="447" x2="565.1297" y1="76.602" y2="76.602"/><text fill="#000000" font-family="sans-serif" font-size="14" lengthAdjust="spacing" textLength="23.6599" x="452" y="95.5679">env</text><line style="stroke:#181818;stroke-width:0.5;" x1="447" x2="565.1297" y1="103.6699" y2="103.6699"/></g><!--class env--><g id="elem_env"><rect codeLine="5" fill="#F1F1F1" height="67.0679" id="env" rx="2.5" ry="2.5" style="stroke:#181818;stroke-width:0.5;" width="55.6599" x="478" y="171.602"/><ellipse cx="493" cy="187.602" fill="#ADD1B2" rx="11" ry="11" style="stroke:#181818;stroke-width:1.0;"/><path d="M495.9688,193.2426 Q495.3906,193.5395 494.75,193.6801 Q494.1094,193.8364 493.4063,193.8364 Q490.9063,193.8364 489.5781,192.1957 Q488.2656,190.5395 488.2656,187.4145 Q488.2656,184.2895 489.5781,182.6332 Q490.9063,180.977 493.4063,180.977 Q494.1094,180.977 494.75,181.1332 Q495.4063,181.2895 495.9688,181.5864 L495.9688,184.3051 Q495.3438,183.727 494.75,183.4614 Q494.1563,183.1801 493.5313,183.1801 Q492.1875,183.1801 491.5,184.2582 Q490.8125,185.3207 490.8125,187.4145 Q490.8125,189.5082 491.5,190.5864 Q492.1875,191.6489 493.5313,191.6489 Q494.1563,191.6489 494.75,191.3832 Q495.3438,191.102 495.9688,190.5239 L495.9688,193.2426 Z " fill="#000000"/><text fill="#000000" font-family="sans-serif" font-size="14" lengthAdjust="spacing" textLength="23.6599" x="507" y="193.034">env</text><line style="stroke:#181818;stroke-width:0.5;" x1="479" x2="532.6599" y1="203.602" y2="203.602"/><text fill="#000000" font-family="sans-serif" font-size="14" lengthAdjust="spacing" textLength="38.0659" x="484" y="222.5679">agent</text><line style="stroke:#181818;stroke-width:0.5;" x1="479" x2="532.6599" y1="230.6699" y2="230.6699"/></g><!--class agent--><g id="elem_agent"><rect codeLine="8" fill="#F1F1F1" height="124.2717" id="agent" rx="2.5" ry="2.5" style="stroke:#181818;stroke-width:0.5;" width="246.7091" x="382.5" y="298.602"/><ellipse cx="482.5716" cy="314.602" fill="#ADD1B2" rx="11" ry="11" style="stroke:#181818;stroke-width:1.0;"/><path d="M485.5404,320.2426 Q484.9622,320.5395 484.3216,320.6801 Q483.681,320.8364 482.9779,320.8364 Q480.4779,320.8364 479.1497,319.1957 Q477.8372,317.5395 477.8372,314.4145 Q477.8372,311.2895 479.1497,309.6332 Q480.4779,307.977 482.9779,307.977 Q483.681,307.977 484.3216,308.1332 Q484.9779,308.2895 485.5404,308.5864 L485.5404,311.3051 Q484.9154,310.727 484.3216,310.4614 Q483.7279,310.1801 483.1029,310.1801 Q481.7591,310.1801 481.0716,311.2582 Q480.3841,312.3207 480.3841,314.4145 Q480.3841,316.5082 481.0716,317.5864 Q481.7591,318.6489 483.1029,318.6489 Q483.7279,318.6489 484.3216,318.3832 Q484.9154,318.102 485.5404,317.5239 L485.5404,320.2426 Z " fill="#000000"/><text fill="#000000" font-family="sans-serif" font-size="14" lengthAdjust="spacing" textLength="38.0659" x="503.0716" y="320.034">agent</text><line style="stroke:#181818;stroke-width:0.5;" x1="383.5" x2="628.2091" y1="330.602" y2="330.602"/><text fill="#000000" font-family="sans-serif" font-size="14" lengthAdjust="spacing" textLength="38.7939" x="388.5" y="349.5679">driver</text><text fill="#000000" font-family="sans-serif" font-size="14" lengthAdjust="spacing" textLength="53.1298" x="388.5" y="368.6358">monitor</text><text fill="#000000" font-family="sans-serif" font-size="14" lengthAdjust="spacing" textLength="68.8097" x="388.5" y="387.7038">sequencer</text><text fill="#000000" font-family="sans-serif" font-size="14" lengthAdjust="spacing" textLength="234.7091" x="388.5" y="406.7717">is_active: uvm_active_passive_enum</text><line style="stroke:#181818;stroke-width:0.5;" x1="383.5" x2="628.2091" y1="414.8736" y2="414.8736"/></g><!--class driver--><g id="elem_driver"><rect codeLine="14" fill="#F1F1F1" height="86.1358" id="driver" rx="2.5" ry="2.5" style="stroke:#181818;stroke-width:0.5;" width="285.587" x="43" y="520.602"/><ellipse cx="162.1466" cy="536.602" fill="#ADD1B2" rx="11" ry="11" style="stroke:#181818;stroke-width:1.0;"/><path d="M165.1153,542.2426 Q164.5372,542.5395 163.8966,542.6801 Q163.256,542.8364 162.5528,542.8364 Q160.0528,542.8364 158.7247,541.1957 Q157.4122,539.5395 157.4122,536.4145 Q157.4122,533.2895 158.7247,531.6332 Q160.0528,529.977 162.5528,529.977 Q163.256,529.977 163.8966,530.1332 Q164.5528,530.2895 165.1153,530.5864 L165.1153,533.3051 Q164.4903,532.727 163.8966,532.4614 Q163.3028,532.1801 162.6778,532.1801 Q161.3341,532.1801 160.6466,533.2582 Q159.9591,534.3207 159.9591,536.4145 Q159.9591,538.5082 160.6466,539.5864 Q161.3341,540.6489 162.6778,540.6489 Q163.3028,540.6489 163.8966,540.3832 Q164.4903,540.102 165.1153,539.5239 L165.1153,542.2426 Z " fill="#000000"/><text fill="#000000" font-family="sans-serif" font-size="14" lengthAdjust="spacing" textLength="38.7939" x="182.6466" y="542.034">driver</text><line style="stroke:#181818;stroke-width:0.5;" x1="44" x2="327.587" y1="552.602" y2="552.602"/><ellipse cx="54" cy="567.6359" fill="none" rx="3" ry="3" style="stroke:#038048;stroke-width:1.0;"/><text fill="#000000" font-family="sans-serif" font-size="14" lengthAdjust="spacing" textLength="183.9593" x="63" y="571.5679">rsp_port: uvm_analysis_port</text><ellipse cx="54" cy="586.7039" fill="none" rx="3" ry="3" style="stroke:#038048;stroke-width:1.0;"/><text fill="#000000" font-family="sans-serif" font-size="14" lengthAdjust="spacing" textLength="259.587" x="63" y="590.6358">seq_item_port: uvm_seq_item_pull_port</text><line style="stroke:#181818;stroke-width:0.5;" x1="44" x2="327.587" y1="598.7378" y2="598.7378"/></g><!--class monitor--><g id="elem_monitor"><rect codeLine="18" fill="#F1F1F1" height="67.0679" id="monitor" rx="2.5" ry="2.5" style="stroke:#181818;stroke-width:0.5;" width="283.319" x="364.5" y="530.102"/><ellipse cx="475.3446" cy="546.102" fill="#ADD1B2" rx="11" ry="11" style="stroke:#181818;stroke-width:1.0;"/><path d="M478.3134,551.7426 Q477.7352,552.0395 477.0946,552.1801 Q476.454,552.3364 475.7509,552.3364 Q473.2509,552.3364 471.9227,550.6957 Q470.6102,549.0395 470.6102,545.9145 Q470.6102,542.7895 471.9227,541.1332 Q473.2509,539.477 475.7509,539.477 Q476.454,539.477 477.0946,539.6332 Q477.7509,539.7895 478.3134,540.0864 L478.3134,542.8051 Q477.6884,542.227 477.0946,541.9614 Q476.5009,541.6801 475.8759,541.6801 Q474.5321,541.6801 473.8446,542.7582 Q473.1571,543.8207 473.1571,545.9145 Q473.1571,548.0082 473.8446,549.0864 Q474.5321,550.1489 475.8759,550.1489 Q476.5009,550.1489 477.0946,549.8832 Q477.6884,549.602 478.3134,549.0239 L478.3134,551.7426 Z " fill="#000000"/><text fill="#000000" font-family="sans-serif" font-size="14" lengthAdjust="spacing" textLength="53.1298" x="495.8446" y="551.534">monitor</text><line style="stroke:#181818;stroke-width:0.5;" x1="365.5" x2="646.819" y1="562.102" y2="562.102"/><ellipse cx="375.5" cy="577.1359" fill="none" rx="3" ry="3" style="stroke:#038048;stroke-width:1.0;"/><text fill="#000000" font-family="sans-serif" font-size="14" lengthAdjust="spacing" textLength="257.319" x="384.5" y="581.0679">item_collected_port: uvm_analysis_port</text><line style="stroke:#181818;stroke-width:0.5;" x1="365.5" x2="646.819" y1="589.1699" y2="589.1699"/></g><!--class sequencer--><g id="elem_sequencer"><rect codeLine="21" fill="#F1F1F1" height="162.4075" id="sequencer" rx="2.5" ry="2.5" style="stroke:#181818;stroke-width:0.5;" width="298.285" x="741" y="482.602"/><ellipse cx="851.4876" cy="498.602" fill="#ADD1B2" rx="11" ry="11" style="stroke:#181818;stroke-width:1.0;"/><path d="M854.4564,504.2426 Q853.8783,504.5395 853.2376,504.6801 Q852.597,504.8364 851.8939,504.8364 Q849.3939,504.8364 848.0658,503.1957 Q846.7533,501.5395 846.7533,498.4145 Q846.7533,495.2895 848.0658,493.6332 Q849.3939,491.977 851.8939,491.977 Q852.597,491.977 853.2376,492.1332 Q853.8939,492.2895 854.4564,492.5864 L854.4564,495.3051 Q853.8314,494.727 853.2376,494.4614 Q852.6439,494.1801 852.0189,494.1801 Q850.6751,494.1801 849.9876,495.2582 Q849.3001,496.3207 849.3001,498.4145 Q849.3001,500.5082 849.9876,501.5864 Q850.6751,502.6489 852.0189,502.6489 Q852.6439,502.6489 853.2376,502.3832 Q853.8314,502.102 854.4564,501.5239 L854.4564,504.2426 Z " fill="#000000"/><text fill="#000000" font-family="sans-serif" font-size="14" lengthAdjust="spacing" textLength="68.8097" x="871.9876" y="504.034">sequencer</text><line style="stroke:#181818;stroke-width:0.5;" x1="742" x2="1038.285" y1="514.602" y2="514.602"/><ellipse cx="752" cy="529.6359" fill="none" rx="3" ry="3" style="stroke:#038048;stroke-width:1.0;"/><text fill="#000000" font-family="sans-serif" font-size="14" lengthAdjust="spacing" textLength="214.5632" x="761" y="533.5679">rsp_export: uvm_analysis_export</text><ellipse cx="752" cy="548.7039" fill="none" rx="3" ry="3" style="stroke:#038048;stroke-width:1.0;"/><text fill="#000000" font-family="sans-serif" font-size="14" lengthAdjust="spacing" textLength="272.285" x="761" y="552.6358">seq_item_export: uvm_seq_item_pull_imp</text><ellipse cx="752" cy="567.7718" fill="none" rx="3" ry="3" style="stroke:#038048;stroke-width:1.0;"/><text fill="#000000" font-family="sans-serif" font-size="14" lengthAdjust="spacing" textLength="160.0614" x="761" y="571.7038">arbitration_queue: array</text><ellipse cx="752" cy="586.8397" fill="none" rx="3" ry="3" style="stroke:#038048;stroke-width:1.0;"/><text fill="#000000" font-family="sans-serif" font-size="14" lengthAdjust="spacing" textLength="116.0035" x="761" y="590.7717">lock_queue: array</text><ellipse cx="752" cy="605.9076" fill="none" rx="3" ry="3" style="stroke:#038048;stroke-width:1.0;"/><text fill="#000000" font-family="sans-serif" font-size="14" lengthAdjust="spacing" textLength="153.5094" x="761" y="609.8396">num_last_reqs: integral</text><ellipse cx="752" cy="624.9755" fill="none" rx="3" ry="3" style="stroke:#038048;stroke-width:1.0;"/><text fill="#000000" font-family="sans-serif" font-size="14" lengthAdjust="spacing" textLength="152.3194" x="761" y="628.9075">num_last_rsps: integral</text><line style="stroke:#181818;stroke-width:0.5;" x1="742" x2="1038.285" y1="637.0095" y2="637.0095"/></g><!--class rsp_port--><g id="elem_rsp_port"><rect fill="#F1F1F1" height="48" id="rsp_port" rx="2.5" ry="2.5" style="stroke:#181818;stroke-width:0.5;" width="87.2298" x="22.5" y="704.602"/><ellipse cx="37.5" cy="720.602" fill="#ADD1B2" rx="11" ry="11" style="stroke:#181818;stroke-width:1.0;"/><path d="M40.4688,726.2426 Q39.8906,726.5395 39.25,726.6801 Q38.6094,726.8364 37.9063,726.8364 Q35.4063,726.8364 34.0781,725.1957 Q32.7656,723.5395 32.7656,720.4145 Q32.7656,717.2895 34.0781,715.6332 Q35.4063,713.977 37.9063,713.977 Q38.6094,713.977 39.25,714.1332 Q39.9063,714.2895 40.4688,714.5864 L40.4688,717.3051 Q39.8438,716.727 39.25,716.4614 Q38.6563,716.1801 38.0313,716.1801 Q36.6875,716.1801 36,717.2582 Q35.3125,718.3207 35.3125,720.4145 Q35.3125,722.5082 36,723.5864 Q36.6875,724.6489 38.0313,724.6489 Q38.6563,724.6489 39.25,724.3832 Q39.8438,724.102 40.4688,723.5239 L40.4688,726.2426 Z " fill="#000000"/><text fill="#000000" font-family="sans-serif" font-size="14" lengthAdjust="spacing" textLength="55.2298" x="51.5" y="726.034">rsp_port</text><line style="stroke:#181818;stroke-width:0.5;" x1="23.5" x2="108.7298" y1="736.602" y2="736.602"/><line style="stroke:#181818;stroke-width:0.5;" x1="23.5" x2="108.7298" y1="744.602" y2="744.602"/></g><!--class seq_item_port--><g id="elem_seq_item_port"><rect fill="#F1F1F1" height="48" id="seq_item_port" rx="2.5" ry="2.5" style="stroke:#181818;stroke-width:0.5;" width="125.2117" x="144.5" y="704.602"/><ellipse cx="159.5" cy="720.602" fill="#ADD1B2" rx="11" ry="11" style="stroke:#181818;stroke-width:1.0;"/><path d="M162.4688,726.2426 Q161.8906,726.5395 161.25,726.6801 Q160.6094,726.8364 159.9063,726.8364 Q157.4063,726.8364 156.0781,725.1957 Q154.7656,723.5395 154.7656,720.4145 Q154.7656,717.2895 156.0781,715.6332 Q157.4063,713.977 159.9063,713.977 Q160.6094,713.977 161.25,714.1332 Q161.9063,714.2895 162.4688,714.5864 L162.4688,717.3051 Q161.8438,716.727 161.25,716.4614 Q160.6563,716.1801 160.0313,716.1801 Q158.6875,716.1801 158,717.2582 Q157.3125,718.3207 157.3125,720.4145 Q157.3125,722.5082 158,723.5864 Q158.6875,724.6489 160.0313,724.6489 Q160.6563,724.6489 161.25,724.3832 Q161.8438,724.102 162.4688,723.5239 L162.4688,726.2426 Z " fill="#000000"/><text fill="#000000" font-family="sans-serif" font-size="14" lengthAdjust="spacing" textLength="93.2117" x="173.5" y="726.034">seq_item_port</text><line style="stroke:#181818;stroke-width:0.5;" x1="145.5" x2="268.7117" y1="736.602" y2="736.602"/><line style="stroke:#181818;stroke-width:0.5;" x1="145.5" x2="268.7117" y1="744.602" y2="744.602"/></g><!--class item_collected_port--><g id="elem_item_collected_port"><rect fill="#F1F1F1" height="48" id="item_collected_port" rx="2.5" ry="2.5" style="stroke:#181818;stroke-width:0.5;" width="160.5895" x="304.5" y="704.602"/><ellipse cx="319.5" cy="720.602" fill="#ADD1B2" rx="11" ry="11" style="stroke:#181818;stroke-width:1.0;"/><path d="M322.4688,726.2426 Q321.8906,726.5395 321.25,726.6801 Q320.6094,726.8364 319.9063,726.8364 Q317.4063,726.8364 316.0781,725.1957 Q314.7656,723.5395 314.7656,720.4145 Q314.7656,717.2895 316.0781,715.6332 Q317.4063,713.977 319.9063,713.977 Q320.6094,713.977 321.25,714.1332 Q321.9063,714.2895 322.4688,714.5864 L322.4688,717.3051 Q321.8438,716.727 321.25,716.4614 Q320.6563,716.1801 320.0313,716.1801 Q318.6875,716.1801 318,717.2582 Q317.3125,718.3207 317.3125,720.4145 Q317.3125,722.5082 318,723.5864 Q318.6875,724.6489 320.0313,724.6489 Q320.6563,724.6489 321.25,724.3832 Q321.8438,724.102 322.4688,723.5239 L322.4688,726.2426 Z " fill="#000000"/><text fill="#000000" font-family="sans-serif" font-size="14" lengthAdjust="spacing" textLength="128.5895" x="333.5" y="726.034">item_collected_port</text><line style="stroke:#181818;stroke-width:0.5;" x1="305.5" x2="464.0895" y1="736.602" y2="736.602"/><line style="stroke:#181818;stroke-width:0.5;" x1="305.5" x2="464.0895" y1="744.602" y2="744.602"/></g><!--class rsp_export--><g id="elem_rsp_export"><rect fill="#F1F1F1" height="48" id="rsp_export" rx="2.5" ry="2.5" style="stroke:#181818;stroke-width:0.5;" width="102.5318" x="500.5" y="704.602"/><ellipse cx="515.5" cy="720.602" fill="#ADD1B2" rx="11" ry="11" style="stroke:#181818;stroke-width:1.0;"/><path d="M518.4688,726.2426 Q517.8906,726.5395 517.25,726.6801 Q516.6094,726.8364 515.9063,726.8364 Q513.4063,726.8364 512.0781,725.1957 Q510.7656,723.5395 510.7656,720.4145 Q510.7656,717.2895 512.0781,715.6332 Q513.4063,713.977 515.9063,713.977 Q516.6094,713.977 517.25,714.1332 Q517.9063,714.2895 518.4688,714.5864 L518.4688,717.3051 Q517.8438,716.727 517.25,716.4614 Q516.6563,716.1801 516.0313,716.1801 Q514.6875,716.1801 514,717.2582 Q513.3125,718.3207 513.3125,720.4145 Q513.3125,722.5082 514,723.5864 Q514.6875,724.6489 516.0313,724.6489 Q516.6563,724.6489 517.25,724.3832 Q517.8438,724.102 518.4688,723.5239 L518.4688,726.2426 Z " fill="#000000"/><text fill="#000000" font-family="sans-serif" font-size="14" lengthAdjust="spacing" textLength="70.5318" x="529.5" y="726.034">rsp_export</text><line style="stroke:#181818;stroke-width:0.5;" x1="501.5" x2="602.0318" y1="736.602" y2="736.602"/><line style="stroke:#181818;stroke-width:0.5;" x1="501.5" x2="602.0318" y1="744.602" y2="744.602"/></g><!--class seq_item_export--><g id="elem_seq_item_export"><rect fill="#F1F1F1" height="48" id="seq_item_export" rx="2.5" ry="2.5" style="stroke:#181818;stroke-width:0.5;" width="140.5136" x="638.5" y="704.602"/><ellipse cx="653.5" cy="720.602" fill="#ADD1B2" rx="11" ry="11" style="stroke:#181818;stroke-width:1.0;"/><path d="M656.4688,726.2426 Q655.8906,726.5395 655.25,726.6801 Q654.6094,726.8364 653.9063,726.8364 Q651.4063,726.8364 650.0781,725.1957 Q648.7656,723.5395 648.7656,720.4145 Q648.7656,717.2895 650.0781,715.6332 Q651.4063,713.977 653.9063,713.977 Q654.6094,713.977 655.25,714.1332 Q655.9063,714.2895 656.4688,714.5864 L656.4688,717.3051 Q655.8438,716.727 655.25,716.4614 Q654.6563,716.1801 654.0313,716.1801 Q652.6875,716.1801 652,717.2582 Q651.3125,718.3207 651.3125,720.4145 Q651.3125,722.5082 652,723.5864 Q652.6875,724.6489 654.0313,724.6489 Q654.6563,724.6489 655.25,724.3832 Q655.8438,724.102 656.4688,723.5239 L656.4688,726.2426 Z " fill="#000000"/><text fill="#000000" font-family="sans-serif" font-size="14" lengthAdjust="spacing" textLength="108.5136" x="667.5" y="726.034">seq_item_export</text><line style="stroke:#181818;stroke-width:0.5;" x1="639.5" x2="778.0136" y1="736.602" y2="736.602"/><line style="stroke:#181818;stroke-width:0.5;" x1="639.5" x2="778.0136" y1="744.602" y2="744.602"/></g><!--class arbitration_queue--><g id="elem_arbitration_queue"><rect fill="#F1F1F1" height="48" id="arbitration_queue" rx="2.5" ry="2.5" style="stroke:#181818;stroke-width:0.5;" width="150.2576" x="815" y="704.602"/><ellipse cx="830" cy="720.602" fill="#ADD1B2" rx="11" ry="11" style="stroke:#181818;stroke-width:1.0;"/><path d="M832.9688,726.2426 Q832.3906,726.5395 831.75,726.6801 Q831.1094,726.8364 830.4063,726.8364 Q827.9063,726.8364 826.5781,725.1957 Q825.2656,723.5395 825.2656,720.4145 Q825.2656,717.2895 826.5781,715.6332 Q827.9063,713.977 830.4063,713.977 Q831.1094,713.977 831.75,714.1332 Q832.4063,714.2895 832.9688,714.5864 L832.9688,717.3051 Q832.3438,716.727 831.75,716.4614 Q831.1563,716.1801 830.5313,716.1801 Q829.1875,716.1801 828.5,717.2582 Q827.8125,718.3207 827.8125,720.4145 Q827.8125,722.5082 828.5,723.5864 Q829.1875,724.6489 830.5313,724.6489 Q831.1563,724.6489 831.75,724.3832 Q832.3438,724.102 832.9688,723.5239 L832.9688,726.2426 Z " fill="#000000"/><text fill="#000000" font-family="sans-serif" font-size="14" lengthAdjust="spacing" textLength="118.2576" x="844" y="726.034">arbitration_queue</text><line style="stroke:#181818;stroke-width:0.5;" x1="816" x2="964.2576" y1="736.602" y2="736.602"/><line style="stroke:#181818;stroke-width:0.5;" x1="816" x2="964.2576" y1="744.602" y2="744.602"/></g><!--class lock_queue--><g id="elem_lock_queue"><rect fill="#F1F1F1" height="48" id="lock_queue" rx="2.5" ry="2.5" style="stroke:#181818;stroke-width:0.5;" width="106.1997" x="1000" y="704.602"/><ellipse cx="1015" cy="720.602" fill="#ADD1B2" rx="11" ry="11" style="stroke:#181818;stroke-width:1.0;"/><path d="M1017.9688,726.2426 Q1017.3906,726.5395 1016.75,726.6801 Q1016.1094,726.8364 1015.4063,726.8364 Q1012.9063,726.8364 1011.5781,725.1957 Q1010.2656,723.5395 1010.2656,720.4145 Q1010.2656,717.2895 1011.5781,715.6332 Q1012.9063,713.977 1015.4063,713.977 Q1016.1094,713.977 1016.75,714.1332 Q1017.4063,714.2895 1017.9688,714.5864 L1017.9688,717.3051 Q1017.3438,716.727 1016.75,716.4614 Q1016.1563,716.1801 1015.5313,716.1801 Q1014.1875,716.1801 1013.5,717.2582 Q1012.8125,718.3207 1012.8125,720.4145 Q1012.8125,722.5082 1013.5,723.5864 Q1014.1875,724.6489 1015.5313,724.6489 Q1016.1563,724.6489 1016.75,724.3832 Q1017.3438,724.102 1017.9688,723.5239 L1017.9688,726.2426 Z " fill="#000000"/><text fill="#000000" font-family="sans-serif" font-size="14" lengthAdjust="spacing" textLength="74.1997" x="1029" y="726.034">lock_queue</text><line style="stroke:#181818;stroke-width:0.5;" x1="1001" x2="1105.1997" y1="736.602" y2="736.602"/><line style="stroke:#181818;stroke-width:0.5;" x1="1001" x2="1105.1997" y1="744.602" y2="744.602"/></g><!--class num_last_reqs--><g id="elem_num_last_reqs"><rect fill="#F1F1F1" height="48" id="num_last_reqs" rx="2.5" ry="2.5" style="stroke:#181818;stroke-width:0.5;" width="127.0456" x="1141.5" y="704.602"/><ellipse cx="1156.5" cy="720.602" fill="#ADD1B2" rx="11" ry="11" style="stroke:#181818;stroke-width:1.0;"/><path d="M1159.4688,726.2426 Q1158.8906,726.5395 1158.25,726.6801 Q1157.6094,726.8364 1156.9063,726.8364 Q1154.4063,726.8364 1153.0781,725.1957 Q1151.7656,723.5395 1151.7656,720.4145 Q1151.7656,717.2895 1153.0781,715.6332 Q1154.4063,713.977 1156.9063,713.977 Q1157.6094,713.977 1158.25,714.1332 Q1158.9063,714.2895 1159.4688,714.5864 L1159.4688,717.3051 Q1158.8438,716.727 1158.25,716.4614 Q1157.6563,716.1801 1157.0313,716.1801 Q1155.6875,716.1801 1155,717.2582 Q1154.3125,718.3207 1154.3125,720.4145 Q1154.3125,722.5082 1155,723.5864 Q1155.6875,724.6489 1157.0313,724.6489 Q1157.6563,724.6489 1158.25,724.3832 Q1158.8438,724.102 1159.4688,723.5239 L1159.4688,726.2426 Z " fill="#000000"/><text fill="#000000" font-family="sans-serif" font-size="14" lengthAdjust="spacing" textLength="95.0456" x="1170.5" y="726.034">num_last_reqs</text><line style="stroke:#181818;stroke-width:0.5;" x1="1142.5" x2="1267.5456" y1="736.602" y2="736.602"/><line style="stroke:#181818;stroke-width:0.5;" x1="1142.5" x2="1267.5456" y1="744.602" y2="744.602"/></g><!--class num_last_rsps--><g id="elem_num_last_rsps"><rect fill="#F1F1F1" height="48" id="num_last_rsps" rx="2.5" ry="2.5" style="stroke:#181818;stroke-width:0.5;" width="125.8557" x="1304" y="704.602"/><ellipse cx="1319" cy="720.602" fill="#ADD1B2" rx="11" ry="11" style="stroke:#181818;stroke-width:1.0;"/><path d="M1321.9688,726.2426 Q1321.3906,726.5395 1320.75,726.6801 Q1320.1094,726.8364 1319.4063,726.8364 Q1316.9063,726.8364 1315.5781,725.1957 Q1314.2656,723.5395 1314.2656,720.4145 Q1314.2656,717.2895 1315.5781,715.6332 Q1316.9063,713.977 1319.4063,713.977 Q1320.1094,713.977 1320.75,714.1332 Q1321.4063,714.2895 1321.9688,714.5864 L1321.9688,717.3051 Q1321.3438,716.727 1320.75,716.4614 Q1320.1563,716.1801 1319.5313,716.1801 Q1318.1875,716.1801 1317.5,717.2582 Q1316.8125,718.3207 1316.8125,720.4145 Q1316.8125,722.5082 1317.5,723.5864 Q1318.1875,724.6489 1319.5313,724.6489 Q1320.1563,724.6489 1320.75,724.3832 Q1321.3438,724.102 1321.9688,723.5239 L1321.9688,726.2426 Z " fill="#000000"/><text fill="#000000" font-family="sans-serif" font-size="14" lengthAdjust="spacing" textLength="93.8557" x="1333" y="726.034">num_last_rsps</text><line style="stroke:#181818;stroke-width:0.5;" x1="1305" x2="1428.8557" y1="736.602" y2="736.602"/><line style="stroke:#181818;stroke-width:0.5;" x1="1305" x2="1428.8557" y1="744.602" y2="744.602"/></g><!--link uvm_test_top to env--><g id="link_uvm_test_top_env"><path codeLine="30" d="M506,111.622 C506,129.992 506,134.892 506,153.312 " fill="none" id="uvm_test_top-to-env" style="stroke:#181818;stroke-width:1.0;"/><polygon fill="none" points="506,171.312,512,153.312,500,153.312,506,171.312" style="stroke:#181818;stroke-width:1.0;"/></g><!--link env to agent--><g id="link_env_agent"><path codeLine="31" d="M506,238.652 C506,256.082 506,260.112 506,280.592 " fill="none" id="env-to-agent" style="stroke:#181818;stroke-width:1.0;"/><polygon fill="none" points="506,298.592,512,280.592,500,280.592,506,298.592" style="stroke:#181818;stroke-width:1.0;"/></g><!--link agent to driver--><g id="link_agent_driver"><path codeLine="32" d="M408.69,422.732 C358.3,454.372 313.3132,482.6389 268.2032,510.9689 " fill="none" id="agent-to-driver" style="stroke:#181818;stroke-width:1.0;"/><polygon fill="none" points="252.96,520.542,271.3943,516.05,265.0122,505.8878,252.96,520.542" style="stroke:#181818;stroke-width:1.0;"/></g><!--link agent to monitor--><g id="link_agent_monitor"><path codeLine="33" d="M506,422.732 C506,458.072 506,483.132 506,512.062 " fill="none" id="agent-to-monitor" style="stroke:#181818;stroke-width:1.0;"/><polygon fill="none" points="506,530.062,512,512.062,500,512.062,506,530.062" style="stroke:#181818;stroke-width:1.0;"/></g><!--link agent to sequencer--><g id="link_agent_sequencer"><path codeLine="34" d="M622.78,422.732 C659.96,442.192 685.6622,455.6453 724.8122,476.1353 " fill="none" id="agent-to-sequencer" style="stroke:#181818;stroke-width:1.0;"/><polygon fill="none" points="740.76,484.482,727.5944,470.8194,722.0299,481.4513,740.76,484.482" style="stroke:#181818;stroke-width:1.0;"/></g><!--link driver to rsp_port--><g id="link_driver_rsp_port"><path codeLine="35" d="M154.78,607.002 C131.87,638.132 112.2821,664.7369 93.6621,690.0269 " fill="none" id="driver-to-rsp_port" style="stroke:#181818;stroke-width:1.0;"/><polygon fill="none" points="82.99,704.522,98.4938,693.5843,88.8304,686.4696,82.99,704.522" style="stroke:#181818;stroke-width:1.0;"/></g><!--link driver to seq_item_port--><g id="link_driver_seq_item_port"><path codeLine="36" d="M191.46,607.002 C195.47,638.132 198.4688,661.3797 201.7288,686.6697 " fill="none" id="driver-to-seq_item_port" style="stroke:#181818;stroke-width:1.0;"/><polygon fill="none" points="204.03,704.522,207.6795,685.9026,195.778,687.4368,204.03,704.522" style="stroke:#181818;stroke-width:1.0;"/></g><!--link monitor to item_collected_port--><g id="link_monitor_item_collected_port"><path codeLine="37" d="M481.8,597.192 C458.22,628.972 433.6781,662.0284 412.8581,690.0784 " fill="none" id="monitor-to-item_collected_port" style="stroke:#181818;stroke-width:1.0;"/><polygon fill="none" points="402.13,704.532,417.676,693.6544,408.0403,686.5023,402.13,704.532" style="stroke:#181818;stroke-width:1.0;"/></g><!--link sequencer to rsp_export--><g id="link_sequencer_rsp_export"><path codeLine="38" d="M740.76,636.572 C690.01,661.052 653.0522,678.8613 616.1322,696.6713 " fill="none" id="sequencer-to-rsp_export" style="stroke:#181818;stroke-width:1.0;"/><polygon fill="none" points="599.92,704.492,618.7391,702.0754,613.5253,691.2672,599.92,704.492" style="stroke:#181818;stroke-width:1.0;"/></g><!--link sequencer to seq_item_export--><g id="link_sequencer_seq_item_export"><path codeLine="39" d="M801.09,644.672 C776.77,666.572 765.6755,676.5564 748.0755,692.4064 " fill="none" id="sequencer-to-seq_item_export" style="stroke:#181818;stroke-width:1.0;"/><polygon fill="none" points="734.7,704.452,752.0907,696.8649,744.0603,687.9479,734.7,704.452" style="stroke:#181818;stroke-width:1.0;"/></g><!--link sequencer to arbitration_queue--><g id="link_sequencer_arbitration_queue"><path codeLine="40" d="M890,644.672 C890,666.572 890,670.602 890,686.452 " fill="none" id="sequencer-to-arbitration_queue" style="stroke:#181818;stroke-width:1.0;"/><polygon fill="none" points="890,704.452,896,686.452,884,686.452,890,704.452" style="stroke:#181818;stroke-width:1.0;"/></g><!--link sequencer to lock_queue--><g id="link_sequencer_lock_queue"><path codeLine="41" d="M970.07,644.672 C991.97,666.572 1001.2721,675.8741 1017.1221,691.7241 " fill="none" id="sequencer-to-lock_queue" style="stroke:#181818;stroke-width:1.0;"/><polygon fill="none" points="1029.85,704.452,1021.3647,687.4814,1012.8794,695.9667,1029.85,704.452" style="stroke:#181818;stroke-width:1.0;"/></g><!--link sequencer to num_last_reqs--><g id="link_sequencer_num_last_reqs"><path codeLine="42" d="M1039.2,641.802 C1083.41,664.682 1112.5029,679.7409 1144.4729,696.2809 " fill="none" id="sequencer-to-num_last_reqs" style="stroke:#181818;stroke-width:1.0;"/><polygon fill="none" points="1160.46,704.552,1147.2299,690.9518,1141.7158,701.6099,1160.46,704.552" style="stroke:#181818;stroke-width:1.0;"/></g><!--link sequencer to num_last_rsps--><g id="link_sequencer_num_last_rsps"><path codeLine="43" d="M1039.29,615.622 C1128.38,646.062 1219.8471,677.3113 1286.9171,700.2313 " fill="none" id="sequencer-to-num_last_rsps" style="stroke:#181818;stroke-width:1.0;"/><polygon fill="none" points="1303.95,706.052,1288.8573,694.5537,1284.9769,705.9089,1303.95,706.052" style="stroke:#181818;stroke-width:1.0;"/></g><!--SRC=[VP8nRiCm34LtdqB8MkG26Rfrw50WGzfLO1GX4I9BgaG73ThSlRJiHhIjneljpoT-slm1r1cEMgoshziNSG2407WIxnzlOgSJxhLJ9x7pmLj_lAx4ToFeKXPI4jsbbKYCH1_6GdzfTydFDuQInWZoSxXWiigeGpGN7U-lhNS6VNbF-hEZuHXXaWI5T6YJHnkUPQ3U_Lsxhbru3XxCz2cc88EFEFPmOA-96lTIWSXR6jGj8ulKMLjmRZP-0NVB9vItLYlKXuV6lDFzs-UJwwzAYq6iJC_fwVoc3OM7k3SO0Ortadmx-hyG8rmBORqw_rEYlovfPfHHVwQDC0xrCOAj0IdCWLkJRvEWhTS_p_UCzRdAGedK4ACiiWGnbGU9oTCyZS78bRz8B0gJ63Gif4EvijncajpIdgreLfqjguOizbE3oefgrScM7WEqfURs2m00]--></g></svg>