<svg xmlns="http://www.w3.org/2000/svg" xmlns:xlink="http://www.w3.org/1999/xlink" contentStyleType="text/css" height="813px" preserveAspectRatio="none" style="width:1762px;height:813px;background:#FFFFFF;" version="1.1" viewBox="0 0 1762 813" width="1762px" zoomAndPan="magnify"><defs/><g><!--cluster Virtual Sequencer example UVM Testbench Topology--><g id="cluster_Virtual Sequencer example UVM Testbench Topology"><path d="M8.5,6.602 L377.8386,6.602 A3.75,3.75 0 0 1 380.3386,9.102 L387.3386,31.6699 L1752.5,31.6699 A2.5,2.5 0 0 1 1755,34.1699 L1755,804.102 A2.5,2.5 0 0 1 1752.5,806.602 L8.5,806.602 A2.5,2.5 0 0 1 6,804.102 L6,9.102 A2.5,2.5 0 0 1 8.5,6.602 " fill="none" style="stroke:#000000;stroke-width:1.5;"/><line style="stroke:#000000;stroke-width:1.5;" x1="6" x2="387.3386" y1="31.6699" y2="31.6699"/><text fill="#000000" font-family="sans-serif" font-size="14" font-weight="bold" lengthAdjust="spacing" textLength="368.3386" x="10" y="23.5679">Virtual Sequencer example UVM Testbench Topology</text></g><!--class uvm_test_top--><g id="elem_uvm_test_top"><rect codeLine="2" fill="#F1F1F1" height="67.0679" id="uvm_test_top" rx="2.5" ry="2.5" style="stroke:#181818;stroke-width:0.5;" width="120.1297" x="874" y="44.602"/><ellipse cx="889" cy="60.602" fill="#ADD1B2" rx="11" ry="11" style="stroke:#181818;stroke-width:1.0;"/><path d="M891.9688,66.2426 Q891.3906,66.5395 890.75,66.6801 Q890.1094,66.8364 889.4063,66.8364 Q886.9063,66.8364 885.5781,65.1957 Q884.2656,63.5395 884.2656,60.4145 Q884.2656,57.2895 885.5781,55.6332 Q886.9063,53.977 889.4063,53.977 Q890.1094,53.977 890.75,54.1332 Q891.4063,54.2895 891.9688,54.5864 L891.9688,57.3051 Q891.3438,56.727 890.75,56.4614 Q890.1563,56.1801 889.5313,56.1801 Q888.1875,56.1801 887.5,57.2582 Q886.8125,58.3207 886.8125,60.4145 Q886.8125,62.5082 887.5,63.5864 Q888.1875,64.6489 889.5313,64.6489 Q890.1563,64.6489 890.75,64.3832 Q891.3438,64.102 891.9688,63.5239 L891.9688,66.2426 Z " fill="#000000"/><text fill="#000000" font-family="sans-serif" font-size="14" lengthAdjust="spacing" textLength="88.1297" x="903" y="66.034">uvm_test_top</text><line style="stroke:#181818;stroke-width:0.5;" x1="875" x2="993.1297" y1="76.602" y2="76.602"/><text fill="#000000" font-family="sans-serif" font-size="14" lengthAdjust="spacing" textLength="23.6599" x="880" y="95.5679">env</text><line style="stroke:#181818;stroke-width:0.5;" x1="875" x2="993.1297" y1="103.6699" y2="103.6699"/></g><!--class env--><g id="elem_env"><rect codeLine="5" fill="#F1F1F1" height="124.2717" id="env" rx="2.5" ry="2.5" style="stroke:#181818;stroke-width:0.5;" width="55.6599" x="906" y="171.602"/><ellipse cx="921" cy="187.602" fill="#ADD1B2" rx="11" ry="11" style="stroke:#181818;stroke-width:1.0;"/><path d="M923.9688,193.2426 Q923.3906,193.5395 922.75,193.6801 Q922.1094,193.8364 921.4063,193.8364 Q918.9063,193.8364 917.5781,192.1957 Q916.2656,190.5395 916.2656,187.4145 Q916.2656,184.2895 917.5781,182.6332 Q918.9063,180.977 921.4063,180.977 Q922.1094,180.977 922.75,181.1332 Q923.4063,181.2895 923.9688,181.5864 L923.9688,184.3051 Q923.3438,183.727 922.75,183.4614 Q922.1563,183.1801 921.5313,183.1801 Q920.1875,183.1801 919.5,184.2582 Q918.8125,185.3207 918.8125,187.4145 Q918.8125,189.5082 919.5,190.5864 Q920.1875,191.6489 921.5313,191.6489 Q922.1563,191.6489 922.75,191.3832 Q923.3438,191.102 923.9688,190.5239 L923.9688,193.2426 Z " fill="#000000"/><text fill="#000000" font-family="sans-serif" font-size="14" lengthAdjust="spacing" textLength="23.6599" x="935" y="193.034">env</text><line style="stroke:#181818;stroke-width:0.5;" x1="907" x2="960.6599" y1="203.602" y2="203.602"/><text fill="#000000" font-family="sans-serif" font-size="14" lengthAdjust="spacing" textLength="15.7079" x="912" y="222.5679">aa</text><text fill="#000000" font-family="sans-serif" font-size="14" lengthAdjust="spacing" textLength="20.9439" x="912" y="241.6358">ma</text><text fill="#000000" font-family="sans-serif" font-size="14" lengthAdjust="spacing" textLength="6.706" x="912" y="260.7038">s</text><text fill="#000000" font-family="sans-serif" font-size="14" lengthAdjust="spacing" textLength="36.1059" x="912" y="279.7717">vseqr</text><line style="stroke:#181818;stroke-width:0.5;" x1="907" x2="960.6599" y1="287.8736" y2="287.8736"/></g><!--class aa--><g id="elem_aa"><rect codeLine="11" fill="#F1F1F1" height="105.2038" id="aa" rx="2.5" ry="2.5" style="stroke:#181818;stroke-width:0.5;" width="55.0638" x="501.5" y="355.602"/><ellipse cx="519.8102" cy="371.602" fill="#ADD1B2" rx="11" ry="11" style="stroke:#181818;stroke-width:1.0;"/><path d="M522.7789,377.2426 Q522.2008,377.5395 521.5602,377.6801 Q520.9195,377.8364 520.2164,377.8364 Q517.7164,377.8364 516.3883,376.1957 Q515.0758,374.5395 515.0758,371.4145 Q515.0758,368.2895 516.3883,366.6332 Q517.7164,364.977 520.2164,364.977 Q520.9195,364.977 521.5602,365.1332 Q522.2164,365.2895 522.7789,365.5864 L522.7789,368.3051 Q522.1539,367.727 521.5602,367.4614 Q520.9664,367.1801 520.3414,367.1801 Q518.9977,367.1801 518.3102,368.2582 Q517.6227,369.3207 517.6227,371.4145 Q517.6227,373.5082 518.3102,374.5864 Q518.9977,375.6489 520.3414,375.6489 Q520.9664,375.6489 521.5602,375.3832 Q522.1539,375.102 522.7789,374.5239 L522.7789,377.2426 Z " fill="#000000"/><text fill="#000000" font-family="sans-serif" font-size="14" lengthAdjust="spacing" textLength="15.7079" x="534.5457" y="377.034">aa</text><line style="stroke:#181818;stroke-width:0.5;" x1="502.5" x2="555.5638" y1="387.602" y2="387.602"/><text fill="#000000" font-family="sans-serif" font-size="14" lengthAdjust="spacing" textLength="43.0638" x="507.5" y="406.5679">a_seqr</text><text fill="#000000" font-family="sans-serif" font-size="14" lengthAdjust="spacing" textLength="8.61" x="507.5" y="425.6358">d</text><text fill="#000000" font-family="sans-serif" font-size="14" lengthAdjust="spacing" textLength="13.09" x="507.5" y="444.7038">m</text><line style="stroke:#181818;stroke-width:0.5;" x1="502.5" x2="555.5638" y1="452.8057" y2="452.8057"/></g><!--class a_seqr--><g id="elem_a_seqr"><rect codeLine="16" fill="#F1F1F1" height="162.4075" id="a_seqr" rx="2.5" ry="2.5" style="stroke:#181818;stroke-width:0.5;" width="298.285" x="565" y="520.602"/><ellipse cx="688.3606" cy="536.602" fill="#ADD1B2" rx="11" ry="11" style="stroke:#181818;stroke-width:1.0;"/><path d="M691.3293,542.2426 Q690.7512,542.5395 690.1106,542.6801 Q689.4699,542.8364 688.7668,542.8364 Q686.2668,542.8364 684.9387,541.1957 Q683.6262,539.5395 683.6262,536.4145 Q683.6262,533.2895 684.9387,531.6332 Q686.2668,529.977 688.7668,529.977 Q689.4699,529.977 690.1106,530.1332 Q690.7668,530.2895 691.3293,530.5864 L691.3293,533.3051 Q690.7043,532.727 690.1106,532.4614 Q689.5168,532.1801 688.8918,532.1801 Q687.5481,532.1801 686.8606,533.2582 Q686.1731,534.3207 686.1731,536.4145 Q686.1731,538.5082 686.8606,539.5864 Q687.5481,540.6489 688.8918,540.6489 Q689.5168,540.6489 690.1106,540.3832 Q690.7043,540.102 691.3293,539.5239 L691.3293,542.2426 Z " fill="#000000"/><text fill="#000000" font-family="sans-serif" font-size="14" lengthAdjust="spacing" textLength="43.0638" x="708.8606" y="542.034">a_seqr</text><line style="stroke:#181818;stroke-width:0.5;" x1="566" x2="862.285" y1="552.602" y2="552.602"/><ellipse cx="576" cy="567.6359" fill="none" rx="3" ry="3" style="stroke:#038048;stroke-width:1.0;"/><text fill="#000000" font-family="sans-serif" font-size="14" lengthAdjust="spacing" textLength="214.5632" x="585" y="571.5679">rsp_export: uvm_analysis_export</text><ellipse cx="576" cy="586.7039" fill="none" rx="3" ry="3" style="stroke:#038048;stroke-width:1.0;"/><text fill="#000000" font-family="sans-serif" font-size="14" lengthAdjust="spacing" textLength="272.285" x="585" y="590.6358">seq_item_export: uvm_seq_item_pull_imp</text><ellipse cx="576" cy="605.7718" fill="none" rx="3" ry="3" style="stroke:#038048;stroke-width:1.0;"/><text fill="#000000" font-family="sans-serif" font-size="14" lengthAdjust="spacing" textLength="160.0614" x="585" y="609.7038">arbitration_queue: array</text><ellipse cx="576" cy="624.8397" fill="none" rx="3" ry="3" style="stroke:#038048;stroke-width:1.0;"/><text fill="#000000" font-family="sans-serif" font-size="14" lengthAdjust="spacing" textLength="116.0035" x="585" y="628.7717">lock_queue: array</text><ellipse cx="576" cy="643.9076" fill="none" rx="3" ry="3" style="stroke:#038048;stroke-width:1.0;"/><text fill="#000000" font-family="sans-serif" font-size="14" lengthAdjust="spacing" textLength="153.5094" x="585" y="647.8396">num_last_reqs: integral</text><ellipse cx="576" cy="662.9755" fill="none" rx="3" ry="3" style="stroke:#038048;stroke-width:1.0;"/><text fill="#000000" font-family="sans-serif" font-size="14" lengthAdjust="spacing" textLength="152.3194" x="585" y="666.9075">num_last_rsps: integral</text><line style="stroke:#181818;stroke-width:0.5;" x1="566" x2="862.285" y1="675.0095" y2="675.0095"/></g><!--class d--><g id="elem_d"><rect codeLine="24" fill="#F1F1F1" height="86.1358" id="d" rx="2.5" ry="2.5" style="stroke:#181818;stroke-width:0.5;" width="285.587" x="244" y="558.602"/><ellipse cx="378.2385" cy="574.602" fill="#ADD1B2" rx="11" ry="11" style="stroke:#181818;stroke-width:1.0;"/><path d="M381.2073,580.2426 Q380.6291,580.5395 379.9885,580.6801 Q379.3479,580.8364 378.6448,580.8364 Q376.1448,580.8364 374.8166,579.1957 Q373.5041,577.5395 373.5041,574.4145 Q373.5041,571.2895 374.8166,569.6332 Q376.1448,567.977 378.6448,567.977 Q379.3479,567.977 379.9885,568.1332 Q380.6448,568.2895 381.2073,568.5864 L381.2073,571.3051 Q380.5823,570.727 379.9885,570.4614 Q379.3948,570.1801 378.7698,570.1801 Q377.426,570.1801 376.7385,571.2582 Q376.051,572.3207 376.051,574.4145 Q376.051,576.5082 376.7385,577.5864 Q377.426,578.6489 378.7698,578.6489 Q379.3948,578.6489 379.9885,578.3832 Q380.5823,578.102 381.2073,577.5239 L381.2073,580.2426 Z " fill="#000000"/><text fill="#000000" font-family="sans-serif" font-size="14" lengthAdjust="spacing" textLength="8.61" x="398.7385" y="580.034">d</text><line style="stroke:#181818;stroke-width:0.5;" x1="245" x2="528.587" y1="590.602" y2="590.602"/><ellipse cx="255" cy="605.6359" fill="none" rx="3" ry="3" style="stroke:#038048;stroke-width:1.0;"/><text fill="#000000" font-family="sans-serif" font-size="14" lengthAdjust="spacing" textLength="183.9593" x="264" y="609.5679">rsp_port: uvm_analysis_port</text><ellipse cx="255" cy="624.7039" fill="none" rx="3" ry="3" style="stroke:#038048;stroke-width:1.0;"/><text fill="#000000" font-family="sans-serif" font-size="14" lengthAdjust="spacing" textLength="259.587" x="264" y="628.6358">seq_item_port: uvm_seq_item_pull_port</text><line style="stroke:#181818;stroke-width:0.5;" x1="245" x2="528.587" y1="636.7378" y2="636.7378"/></g><!--class m--><g id="elem_m"><rect codeLine="28" fill="#F1F1F1" height="67.0679" id="m" rx="2.5" ry="2.5" style="stroke:#181818;stroke-width:0.5;" width="186.5934" x="21.5" y="568.102"/><ellipse cx="104.0017" cy="584.102" fill="#ADD1B2" rx="11" ry="11" style="stroke:#181818;stroke-width:1.0;"/><path d="M106.9705,589.7426 Q106.3923,590.0395 105.7517,590.1801 Q105.1111,590.3364 104.408,590.3364 Q101.908,590.3364 100.5798,588.6957 Q99.2673,587.0395 99.2673,583.9145 Q99.2673,580.7895 100.5798,579.1332 Q101.908,577.477 104.408,577.477 Q105.1111,577.477 105.7517,577.6332 Q106.408,577.7895 106.9705,578.0864 L106.9705,580.8051 Q106.3455,580.227 105.7517,579.9614 Q105.158,579.6801 104.533,579.6801 Q103.1892,579.6801 102.5017,580.7582 Q101.8142,581.8207 101.8142,583.9145 Q101.8142,586.0082 102.5017,587.0864 Q103.1892,588.1489 104.533,588.1489 Q105.158,588.1489 105.7517,587.8832 Q106.3455,587.602 106.9705,587.0239 L106.9705,589.7426 Z " fill="#000000"/><text fill="#000000" font-family="sans-serif" font-size="14" lengthAdjust="spacing" textLength="13.09" x="124.5017" y="589.534">m</text><line style="stroke:#181818;stroke-width:0.5;" x1="22.5" x2="207.0934" y1="600.102" y2="600.102"/><ellipse cx="32.5" cy="615.1359" fill="none" rx="3" ry="3" style="stroke:#038048;stroke-width:1.0;"/><text fill="#000000" font-family="sans-serif" font-size="14" lengthAdjust="spacing" textLength="160.5934" x="41.5" y="619.0679">send: uvm_analysis_port</text><line style="stroke:#181818;stroke-width:0.5;" x1="22.5" x2="207.0934" y1="627.1699" y2="627.1699"/></g><!--class ma--><g id="elem_ma"><rect codeLine="31" fill="#F1F1F1" height="105.2038" id="ma" rx="2.5" ry="2.5" style="stroke:#181818;stroke-width:0.5;" width="60.2998" x="734" y="355.602"/><ellipse cx="752.3102" cy="371.602" fill="#ADD1B2" rx="11" ry="11" style="stroke:#181818;stroke-width:1.0;"/><path d="M755.2789,377.2426 Q754.7008,377.5395 754.0602,377.6801 Q753.4195,377.8364 752.7164,377.8364 Q750.2164,377.8364 748.8883,376.1957 Q747.5758,374.5395 747.5758,371.4145 Q747.5758,368.2895 748.8883,366.6332 Q750.2164,364.977 752.7164,364.977 Q753.4195,364.977 754.0602,365.1332 Q754.7164,365.2895 755.2789,365.5864 L755.2789,368.3051 Q754.6539,367.727 754.0602,367.4614 Q753.4664,367.1801 752.8414,367.1801 Q751.4977,367.1801 750.8102,368.2582 Q750.1227,369.3207 750.1227,371.4145 Q750.1227,373.5082 750.8102,374.5864 Q751.4977,375.6489 752.8414,375.6489 Q753.4664,375.6489 754.0602,375.3832 Q754.6539,375.102 755.2789,374.5239 L755.2789,377.2426 Z " fill="#000000"/><text fill="#000000" font-family="sans-serif" font-size="14" lengthAdjust="spacing" textLength="20.9439" x="767.0457" y="377.034">ma</text><line style="stroke:#181818;stroke-width:0.5;" x1="735" x2="793.2998" y1="387.602" y2="387.602"/><text fill="#000000" font-family="sans-serif" font-size="14" lengthAdjust="spacing" textLength="8.61" x="740" y="406.5679">d</text><text fill="#000000" font-family="sans-serif" font-size="14" lengthAdjust="spacing" textLength="13.09" x="740" y="425.6358">m</text><text fill="#000000" font-family="sans-serif" font-size="14" lengthAdjust="spacing" textLength="48.2998" x="740" y="444.7038">m_seqr</text><line style="stroke:#181818;stroke-width:0.5;" x1="735" x2="793.2998" y1="452.8057" y2="452.8057"/></g><!--class m_seqr--><g id="elem_m_seqr"><rect codeLine="36" fill="#F1F1F1" height="162.4075" id="m_seqr" rx="2.5" ry="2.5" style="stroke:#181818;stroke-width:0.5;" width="298.285" x="898" y="520.602"/><ellipse cx="1018.7426" cy="536.602" fill="#ADD1B2" rx="11" ry="11" style="stroke:#181818;stroke-width:1.0;"/><path d="M1021.7113,542.2426 Q1021.1332,542.5395 1020.4926,542.6801 Q1019.852,542.8364 1019.1488,542.8364 Q1016.6488,542.8364 1015.3207,541.1957 Q1014.0082,539.5395 1014.0082,536.4145 Q1014.0082,533.2895 1015.3207,531.6332 Q1016.6488,529.977 1019.1488,529.977 Q1019.852,529.977 1020.4926,530.1332 Q1021.1488,530.2895 1021.7113,530.5864 L1021.7113,533.3051 Q1021.0863,532.727 1020.4926,532.4614 Q1019.8988,532.1801 1019.2738,532.1801 Q1017.9301,532.1801 1017.2426,533.2582 Q1016.5551,534.3207 1016.5551,536.4145 Q1016.5551,538.5082 1017.2426,539.5864 Q1017.9301,540.6489 1019.2738,540.6489 Q1019.8988,540.6489 1020.4926,540.3832 Q1021.0863,540.102 1021.7113,539.5239 L1021.7113,542.2426 Z " fill="#000000"/><text fill="#000000" font-family="sans-serif" font-size="14" lengthAdjust="spacing" textLength="48.2998" x="1039.2426" y="542.034">m_seqr</text><line style="stroke:#181818;stroke-width:0.5;" x1="899" x2="1195.285" y1="552.602" y2="552.602"/><ellipse cx="909" cy="567.6359" fill="none" rx="3" ry="3" style="stroke:#038048;stroke-width:1.0;"/><text fill="#000000" font-family="sans-serif" font-size="14" lengthAdjust="spacing" textLength="214.5632" x="918" y="571.5679">rsp_export: uvm_analysis_export</text><ellipse cx="909" cy="586.7039" fill="none" rx="3" ry="3" style="stroke:#038048;stroke-width:1.0;"/><text fill="#000000" font-family="sans-serif" font-size="14" lengthAdjust="spacing" textLength="272.285" x="918" y="590.6358">seq_item_export: uvm_seq_item_pull_imp</text><ellipse cx="909" cy="605.7718" fill="none" rx="3" ry="3" style="stroke:#038048;stroke-width:1.0;"/><text fill="#000000" font-family="sans-serif" font-size="14" lengthAdjust="spacing" textLength="160.0614" x="918" y="609.7038">arbitration_queue: array</text><ellipse cx="909" cy="624.8397" fill="none" rx="3" ry="3" style="stroke:#038048;stroke-width:1.0;"/><text fill="#000000" font-family="sans-serif" font-size="14" lengthAdjust="spacing" textLength="116.0035" x="918" y="628.7717">lock_queue: array</text><ellipse cx="909" cy="643.9076" fill="none" rx="3" ry="3" style="stroke:#038048;stroke-width:1.0;"/><text fill="#000000" font-family="sans-serif" font-size="14" lengthAdjust="spacing" textLength="153.5094" x="918" y="647.8396">num_last_reqs: integral</text><ellipse cx="909" cy="662.9755" fill="none" rx="3" ry="3" style="stroke:#038048;stroke-width:1.0;"/><text fill="#000000" font-family="sans-serif" font-size="14" lengthAdjust="spacing" textLength="152.3194" x="918" y="666.9075">num_last_rsps: integral</text><line style="stroke:#181818;stroke-width:0.5;" x1="899" x2="1195.285" y1="675.0095" y2="675.0095"/></g><!--class s--><g id="elem_s"><rect codeLine="44" fill="#F1F1F1" height="86.1358" id="s" rx="2.5" ry="2.5" style="stroke:#181818;stroke-width:0.5;" width="224.2952" x="1488" y="365.102"/><ellipse cx="1592.5446" cy="381.102" fill="#ADD1B2" rx="11" ry="11" style="stroke:#181818;stroke-width:1.0;"/><path d="M1595.5134,386.7426 Q1594.9352,387.0395 1594.2946,387.1801 Q1593.654,387.3364 1592.9509,387.3364 Q1590.4509,387.3364 1589.1227,385.6957 Q1587.8102,384.0395 1587.8102,380.9145 Q1587.8102,377.7895 1589.1227,376.1332 Q1590.4509,374.477 1592.9509,374.477 Q1593.654,374.477 1594.2946,374.6332 Q1594.9509,374.7895 1595.5134,375.0864 L1595.5134,377.8051 Q1594.8884,377.227 1594.2946,376.9614 Q1593.7009,376.6801 1593.0759,376.6801 Q1591.7321,376.6801 1591.0446,377.7582 Q1590.3571,378.8207 1590.3571,380.9145 Q1590.3571,383.0082 1591.0446,384.0864 Q1591.7321,385.1489 1593.0759,385.1489 Q1593.7009,385.1489 1594.2946,384.8832 Q1594.8884,384.602 1595.5134,384.0239 L1595.5134,386.7426 Z " fill="#000000"/><text fill="#000000" font-family="sans-serif" font-size="14" lengthAdjust="spacing" textLength="6.706" x="1613.0446" y="386.534">s</text><line style="stroke:#181818;stroke-width:0.5;" x1="1489" x2="1711.2952" y1="397.102" y2="397.102"/><ellipse cx="1499" cy="412.1359" fill="none" rx="3" ry="3" style="stroke:#038048;stroke-width:1.0;"/><text fill="#000000" font-family="sans-serif" font-size="14" lengthAdjust="spacing" textLength="192.7793" x="1508" y="416.0679">recva: uvm_analysis_imp_add</text><ellipse cx="1499" cy="431.2039" fill="none" rx="3" ry="3" style="stroke:#038048;stroke-width:1.0;"/><text fill="#000000" font-family="sans-serif" font-size="14" lengthAdjust="spacing" textLength="198.2952" x="1508" y="435.1358">recvm: uvm_analysis_imp_mul</text><line style="stroke:#181818;stroke-width:0.5;" x1="1489" x2="1711.2952" y1="443.2378" y2="443.2378"/></g><!--class vseqr--><g id="elem_vseqr"><rect codeLine="48" fill="#F1F1F1" height="162.4075" id="vseqr" rx="2.5" ry="2.5" style="stroke:#181818;stroke-width:0.5;" width="298.285" x="1231" y="520.602"/><ellipse cx="1357.8396" cy="536.602" fill="#ADD1B2" rx="11" ry="11" style="stroke:#181818;stroke-width:1.0;"/><path d="M1360.8083,542.2426 Q1360.2302,542.5395 1359.5896,542.6801 Q1358.9489,542.8364 1358.2458,542.8364 Q1355.7458,542.8364 1354.4177,541.1957 Q1353.1052,539.5395 1353.1052,536.4145 Q1353.1052,533.2895 1354.4177,531.6332 Q1355.7458,529.977 1358.2458,529.977 Q1358.9489,529.977 1359.5896,530.1332 Q1360.2458,530.2895 1360.8083,530.5864 L1360.8083,533.3051 Q1360.1833,532.727 1359.5896,532.4614 Q1358.9958,532.1801 1358.3708,532.1801 Q1357.0271,532.1801 1356.3396,533.2582 Q1355.6521,534.3207 1355.6521,536.4145 Q1355.6521,538.5082 1356.3396,539.5864 Q1357.0271,540.6489 1358.3708,540.6489 Q1358.9958,540.6489 1359.5896,540.3832 Q1360.1833,540.102 1360.8083,539.5239 L1360.8083,542.2426 Z " fill="#000000"/><text fill="#000000" font-family="sans-serif" font-size="14" lengthAdjust="spacing" textLength="36.1059" x="1378.3396" y="542.034">vseqr</text><line style="stroke:#181818;stroke-width:0.5;" x1="1232" x2="1528.285" y1="552.602" y2="552.602"/><ellipse cx="1242" cy="567.6359" fill="none" rx="3" ry="3" style="stroke:#038048;stroke-width:1.0;"/><text fill="#000000" font-family="sans-serif" font-size="14" lengthAdjust="spacing" textLength="214.5632" x="1251" y="571.5679">rsp_export: uvm_analysis_export</text><ellipse cx="1242" cy="586.7039" fill="none" rx="3" ry="3" style="stroke:#038048;stroke-width:1.0;"/><text fill="#000000" font-family="sans-serif" font-size="14" lengthAdjust="spacing" textLength="272.285" x="1251" y="590.6358">seq_item_export: uvm_seq_item_pull_imp</text><ellipse cx="1242" cy="605.7718" fill="none" rx="3" ry="3" style="stroke:#038048;stroke-width:1.0;"/><text fill="#000000" font-family="sans-serif" font-size="14" lengthAdjust="spacing" textLength="160.0614" x="1251" y="609.7038">arbitration_queue: array</text><ellipse cx="1242" cy="624.8397" fill="none" rx="3" ry="3" style="stroke:#038048;stroke-width:1.0;"/><text fill="#000000" font-family="sans-serif" font-size="14" lengthAdjust="spacing" textLength="116.0035" x="1251" y="628.7717">lock_queue: array</text><ellipse cx="1242" cy="643.9076" fill="none" rx="3" ry="3" style="stroke:#038048;stroke-width:1.0;"/><text fill="#000000" font-family="sans-serif" font-size="14" lengthAdjust="spacing" textLength="153.5094" x="1251" y="647.8396">num_last_reqs: integral</text><ellipse cx="1242" cy="662.9755" fill="none" rx="3" ry="3" style="stroke:#038048;stroke-width:1.0;"/><text fill="#000000" font-family="sans-serif" font-size="14" lengthAdjust="spacing" textLength="152.3194" x="1251" y="666.9075">num_last_rsps: integral</text><line style="stroke:#181818;stroke-width:0.5;" x1="1232" x2="1528.285" y1="675.0095" y2="675.0095"/></g><!--class rsp_export--><g id="elem_rsp_export"><rect fill="#F1F1F1" height="48" id="rsp_export" rx="2.5" ry="2.5" style="stroke:#181818;stroke-width:0.5;" width="102.5318" x="1060.5" y="742.602"/><ellipse cx="1075.5" cy="758.602" fill="#ADD1B2" rx="11" ry="11" style="stroke:#181818;stroke-width:1.0;"/><path d="M1078.4688,764.2426 Q1077.8906,764.5395 1077.25,764.6801 Q1076.6094,764.8364 1075.9063,764.8364 Q1073.4063,764.8364 1072.0781,763.1957 Q1070.7656,761.5395 1070.7656,758.4145 Q1070.7656,755.2895 1072.0781,753.6332 Q1073.4063,751.977 1075.9063,751.977 Q1076.6094,751.977 1077.25,752.1332 Q1077.9063,752.2895 1078.4688,752.5864 L1078.4688,755.3051 Q1077.8438,754.727 1077.25,754.4614 Q1076.6563,754.1801 1076.0313,754.1801 Q1074.6875,754.1801 1074,755.2582 Q1073.3125,756.3207 1073.3125,758.4145 Q1073.3125,760.5082 1074,761.5864 Q1074.6875,762.6489 1076.0313,762.6489 Q1076.6563,762.6489 1077.25,762.3832 Q1077.8438,762.102 1078.4688,761.5239 L1078.4688,764.2426 Z " fill="#000000"/><text fill="#000000" font-family="sans-serif" font-size="14" lengthAdjust="spacing" textLength="70.5318" x="1089.5" y="764.034">rsp_export</text><line style="stroke:#181818;stroke-width:0.5;" x1="1061.5" x2="1162.0318" y1="774.602" y2="774.602"/><line style="stroke:#181818;stroke-width:0.5;" x1="1061.5" x2="1162.0318" y1="782.602" y2="782.602"/></g><!--class seq_item_export--><g id="elem_seq_item_export"><rect fill="#F1F1F1" height="48" id="seq_item_export" rx="2.5" ry="2.5" style="stroke:#181818;stroke-width:0.5;" width="140.5136" x="1198.5" y="742.602"/><ellipse cx="1213.5" cy="758.602" fill="#ADD1B2" rx="11" ry="11" style="stroke:#181818;stroke-width:1.0;"/><path d="M1216.4688,764.2426 Q1215.8906,764.5395 1215.25,764.6801 Q1214.6094,764.8364 1213.9063,764.8364 Q1211.4063,764.8364 1210.0781,763.1957 Q1208.7656,761.5395 1208.7656,758.4145 Q1208.7656,755.2895 1210.0781,753.6332 Q1211.4063,751.977 1213.9063,751.977 Q1214.6094,751.977 1215.25,752.1332 Q1215.9063,752.2895 1216.4688,752.5864 L1216.4688,755.3051 Q1215.8438,754.727 1215.25,754.4614 Q1214.6563,754.1801 1214.0313,754.1801 Q1212.6875,754.1801 1212,755.2582 Q1211.3125,756.3207 1211.3125,758.4145 Q1211.3125,760.5082 1212,761.5864 Q1212.6875,762.6489 1214.0313,762.6489 Q1214.6563,762.6489 1215.25,762.3832 Q1215.8438,762.102 1216.4688,761.5239 L1216.4688,764.2426 Z " fill="#000000"/><text fill="#000000" font-family="sans-serif" font-size="14" lengthAdjust="spacing" textLength="108.5136" x="1227.5" y="764.034">seq_item_export</text><line style="stroke:#181818;stroke-width:0.5;" x1="1199.5" x2="1338.0136" y1="774.602" y2="774.602"/><line style="stroke:#181818;stroke-width:0.5;" x1="1199.5" x2="1338.0136" y1="782.602" y2="782.602"/></g><!--class arbitration_queue--><g id="elem_arbitration_queue"><rect fill="#F1F1F1" height="48" id="arbitration_queue" rx="2.5" ry="2.5" style="stroke:#181818;stroke-width:0.5;" width="150.2576" x="1375" y="742.602"/><ellipse cx="1390" cy="758.602" fill="#ADD1B2" rx="11" ry="11" style="stroke:#181818;stroke-width:1.0;"/><path d="M1392.9688,764.2426 Q1392.3906,764.5395 1391.75,764.6801 Q1391.1094,764.8364 1390.4063,764.8364 Q1387.9063,764.8364 1386.5781,763.1957 Q1385.2656,761.5395 1385.2656,758.4145 Q1385.2656,755.2895 1386.5781,753.6332 Q1387.9063,751.977 1390.4063,751.977 Q1391.1094,751.977 1391.75,752.1332 Q1392.4063,752.2895 1392.9688,752.5864 L1392.9688,755.3051 Q1392.3438,754.727 1391.75,754.4614 Q1391.1563,754.1801 1390.5313,754.1801 Q1389.1875,754.1801 1388.5,755.2582 Q1387.8125,756.3207 1387.8125,758.4145 Q1387.8125,760.5082 1388.5,761.5864 Q1389.1875,762.6489 1390.5313,762.6489 Q1391.1563,762.6489 1391.75,762.3832 Q1392.3438,762.102 1392.9688,761.5239 L1392.9688,764.2426 Z " fill="#000000"/><text fill="#000000" font-family="sans-serif" font-size="14" lengthAdjust="spacing" textLength="118.2576" x="1404" y="764.034">arbitration_queue</text><line style="stroke:#181818;stroke-width:0.5;" x1="1376" x2="1524.2576" y1="774.602" y2="774.602"/><line style="stroke:#181818;stroke-width:0.5;" x1="1376" x2="1524.2576" y1="782.602" y2="782.602"/></g><!--class lock_queue--><g id="elem_lock_queue"><rect fill="#F1F1F1" height="48" id="lock_queue" rx="2.5" ry="2.5" style="stroke:#181818;stroke-width:0.5;" width="106.1997" x="595" y="742.602"/><ellipse cx="610" cy="758.602" fill="#ADD1B2" rx="11" ry="11" style="stroke:#181818;stroke-width:1.0;"/><path d="M612.9688,764.2426 Q612.3906,764.5395 611.75,764.6801 Q611.1094,764.8364 610.4063,764.8364 Q607.9063,764.8364 606.5781,763.1957 Q605.2656,761.5395 605.2656,758.4145 Q605.2656,755.2895 606.5781,753.6332 Q607.9063,751.977 610.4063,751.977 Q611.1094,751.977 611.75,752.1332 Q612.4063,752.2895 612.9688,752.5864 L612.9688,755.3051 Q612.3438,754.727 611.75,754.4614 Q611.1563,754.1801 610.5313,754.1801 Q609.1875,754.1801 608.5,755.2582 Q607.8125,756.3207 607.8125,758.4145 Q607.8125,760.5082 608.5,761.5864 Q609.1875,762.6489 610.5313,762.6489 Q611.1563,762.6489 611.75,762.3832 Q612.3438,762.102 612.9688,761.5239 L612.9688,764.2426 Z " fill="#000000"/><text fill="#000000" font-family="sans-serif" font-size="14" lengthAdjust="spacing" textLength="74.1997" x="624" y="764.034">lock_queue</text><line style="stroke:#181818;stroke-width:0.5;" x1="596" x2="700.1997" y1="774.602" y2="774.602"/><line style="stroke:#181818;stroke-width:0.5;" x1="596" x2="700.1997" y1="782.602" y2="782.602"/></g><!--class num_last_reqs--><g id="elem_num_last_reqs"><rect fill="#F1F1F1" height="48" id="num_last_reqs" rx="2.5" ry="2.5" style="stroke:#181818;stroke-width:0.5;" width="127.0456" x="736.5" y="742.602"/><ellipse cx="751.5" cy="758.602" fill="#ADD1B2" rx="11" ry="11" style="stroke:#181818;stroke-width:1.0;"/><path d="M754.4688,764.2426 Q753.8906,764.5395 753.25,764.6801 Q752.6094,764.8364 751.9063,764.8364 Q749.4063,764.8364 748.0781,763.1957 Q746.7656,761.5395 746.7656,758.4145 Q746.7656,755.2895 748.0781,753.6332 Q749.4063,751.977 751.9063,751.977 Q752.6094,751.977 753.25,752.1332 Q753.9063,752.2895 754.4688,752.5864 L754.4688,755.3051 Q753.8438,754.727 753.25,754.4614 Q752.6563,754.1801 752.0313,754.1801 Q750.6875,754.1801 750,755.2582 Q749.3125,756.3207 749.3125,758.4145 Q749.3125,760.5082 750,761.5864 Q750.6875,762.6489 752.0313,762.6489 Q752.6563,762.6489 753.25,762.3832 Q753.8438,762.102 754.4688,761.5239 L754.4688,764.2426 Z " fill="#000000"/><text fill="#000000" font-family="sans-serif" font-size="14" lengthAdjust="spacing" textLength="95.0456" x="765.5" y="764.034">num_last_reqs</text><line style="stroke:#181818;stroke-width:0.5;" x1="737.5" x2="862.5456" y1="774.602" y2="774.602"/><line style="stroke:#181818;stroke-width:0.5;" x1="737.5" x2="862.5456" y1="782.602" y2="782.602"/></g><!--class num_last_rsps--><g id="elem_num_last_rsps"><rect fill="#F1F1F1" height="48" id="num_last_rsps" rx="2.5" ry="2.5" style="stroke:#181818;stroke-width:0.5;" width="125.8557" x="899" y="742.602"/><ellipse cx="914" cy="758.602" fill="#ADD1B2" rx="11" ry="11" style="stroke:#181818;stroke-width:1.0;"/><path d="M916.9688,764.2426 Q916.3906,764.5395 915.75,764.6801 Q915.1094,764.8364 914.4063,764.8364 Q911.9063,764.8364 910.5781,763.1957 Q909.2656,761.5395 909.2656,758.4145 Q909.2656,755.2895 910.5781,753.6332 Q911.9063,751.977 914.4063,751.977 Q915.1094,751.977 915.75,752.1332 Q916.4063,752.2895 916.9688,752.5864 L916.9688,755.3051 Q916.3438,754.727 915.75,754.4614 Q915.1563,754.1801 914.5313,754.1801 Q913.1875,754.1801 912.5,755.2582 Q911.8125,756.3207 911.8125,758.4145 Q911.8125,760.5082 912.5,761.5864 Q913.1875,762.6489 914.5313,762.6489 Q915.1563,762.6489 915.75,762.3832 Q916.3438,762.102 916.9688,761.5239 L916.9688,764.2426 Z " fill="#000000"/><text fill="#000000" font-family="sans-serif" font-size="14" lengthAdjust="spacing" textLength="93.8557" x="928" y="764.034">num_last_rsps</text><line style="stroke:#181818;stroke-width:0.5;" x1="900" x2="1023.8557" y1="774.602" y2="774.602"/><line style="stroke:#181818;stroke-width:0.5;" x1="900" x2="1023.8557" y1="782.602" y2="782.602"/></g><!--class rsp_port--><g id="elem_rsp_port"><rect fill="#F1F1F1" height="48" id="rsp_port" rx="2.5" ry="2.5" style="stroke:#181818;stroke-width:0.5;" width="87.2298" x="407.5" y="742.602"/><ellipse cx="422.5" cy="758.602" fill="#ADD1B2" rx="11" ry="11" style="stroke:#181818;stroke-width:1.0;"/><path d="M425.4688,764.2426 Q424.8906,764.5395 424.25,764.6801 Q423.6094,764.8364 422.9063,764.8364 Q420.4063,764.8364 419.0781,763.1957 Q417.7656,761.5395 417.7656,758.4145 Q417.7656,755.2895 419.0781,753.6332 Q420.4063,751.977 422.9063,751.977 Q423.6094,751.977 424.25,752.1332 Q424.9063,752.2895 425.4688,752.5864 L425.4688,755.3051 Q424.8438,754.727 424.25,754.4614 Q423.6563,754.1801 423.0313,754.1801 Q421.6875,754.1801 421,755.2582 Q420.3125,756.3207 420.3125,758.4145 Q420.3125,760.5082 421,761.5864 Q421.6875,762.6489 423.0313,762.6489 Q423.6563,762.6489 424.25,762.3832 Q424.8438,762.102 425.4688,761.5239 L425.4688,764.2426 Z " fill="#000000"/><text fill="#000000" font-family="sans-serif" font-size="14" lengthAdjust="spacing" textLength="55.2298" x="436.5" y="764.034">rsp_port</text><line style="stroke:#181818;stroke-width:0.5;" x1="408.5" x2="493.7298" y1="774.602" y2="774.602"/><line style="stroke:#181818;stroke-width:0.5;" x1="408.5" x2="493.7298" y1="782.602" y2="782.602"/></g><!--class seq_item_port--><g id="elem_seq_item_port"><rect fill="#F1F1F1" height="48" id="seq_item_port" rx="2.5" ry="2.5" style="stroke:#181818;stroke-width:0.5;" width="125.2117" x="247.5" y="742.602"/><ellipse cx="262.5" cy="758.602" fill="#ADD1B2" rx="11" ry="11" style="stroke:#181818;stroke-width:1.0;"/><path d="M265.4688,764.2426 Q264.8906,764.5395 264.25,764.6801 Q263.6094,764.8364 262.9063,764.8364 Q260.4063,764.8364 259.0781,763.1957 Q257.7656,761.5395 257.7656,758.4145 Q257.7656,755.2895 259.0781,753.6332 Q260.4063,751.977 262.9063,751.977 Q263.6094,751.977 264.25,752.1332 Q264.9063,752.2895 265.4688,752.5864 L265.4688,755.3051 Q264.8438,754.727 264.25,754.4614 Q263.6563,754.1801 263.0313,754.1801 Q261.6875,754.1801 261,755.2582 Q260.3125,756.3207 260.3125,758.4145 Q260.3125,760.5082 261,761.5864 Q261.6875,762.6489 263.0313,762.6489 Q263.6563,762.6489 264.25,762.3832 Q264.8438,762.102 265.4688,761.5239 L265.4688,764.2426 Z " fill="#000000"/><text fill="#000000" font-family="sans-serif" font-size="14" lengthAdjust="spacing" textLength="93.2117" x="276.5" y="764.034">seq_item_port</text><line style="stroke:#181818;stroke-width:0.5;" x1="248.5" x2="371.7117" y1="774.602" y2="774.602"/><line style="stroke:#181818;stroke-width:0.5;" x1="248.5" x2="371.7117" y1="782.602" y2="782.602"/></g><!--class send--><g id="elem_send"><rect fill="#F1F1F1" height="48" id="send" rx="2.5" ry="2.5" style="stroke:#181818;stroke-width:0.5;" width="63.8639" x="83" y="742.602"/><ellipse cx="98" cy="758.602" fill="#ADD1B2" rx="11" ry="11" style="stroke:#181818;stroke-width:1.0;"/><path d="M100.9688,764.2426 Q100.3906,764.5395 99.75,764.6801 Q99.1094,764.8364 98.4063,764.8364 Q95.9063,764.8364 94.5781,763.1957 Q93.2656,761.5395 93.2656,758.4145 Q93.2656,755.2895 94.5781,753.6332 Q95.9063,751.977 98.4063,751.977 Q99.1094,751.977 99.75,752.1332 Q100.4063,752.2895 100.9688,752.5864 L100.9688,755.3051 Q100.3438,754.727 99.75,754.4614 Q99.1563,754.1801 98.5313,754.1801 Q97.1875,754.1801 96.5,755.2582 Q95.8125,756.3207 95.8125,758.4145 Q95.8125,760.5082 96.5,761.5864 Q97.1875,762.6489 98.5313,762.6489 Q99.1563,762.6489 99.75,762.3832 Q100.3438,762.102 100.9688,761.5239 L100.9688,764.2426 Z " fill="#000000"/><text fill="#000000" font-family="sans-serif" font-size="14" lengthAdjust="spacing" textLength="31.8639" x="112" y="764.034">send</text><line style="stroke:#181818;stroke-width:0.5;" x1="84" x2="145.8639" y1="774.602" y2="774.602"/><line style="stroke:#181818;stroke-width:0.5;" x1="84" x2="145.8639" y1="782.602" y2="782.602"/></g><!--class recva--><g id="elem_recva"><rect fill="#F1F1F1" height="48" id="recva" rx="2.5" ry="2.5" style="stroke:#181818;stroke-width:0.5;" width="67.3639" x="1671.5" y="577.602"/><ellipse cx="1686.5" cy="593.602" fill="#ADD1B2" rx="11" ry="11" style="stroke:#181818;stroke-width:1.0;"/><path d="M1689.4688,599.2426 Q1688.8906,599.5395 1688.25,599.6801 Q1687.6094,599.8364 1686.9063,599.8364 Q1684.4063,599.8364 1683.0781,598.1957 Q1681.7656,596.5395 1681.7656,593.4145 Q1681.7656,590.2895 1683.0781,588.6332 Q1684.4063,586.977 1686.9063,586.977 Q1687.6094,586.977 1688.25,587.1332 Q1688.9063,587.2895 1689.4688,587.5864 L1689.4688,590.3051 Q1688.8438,589.727 1688.25,589.4614 Q1687.6563,589.1801 1687.0313,589.1801 Q1685.6875,589.1801 1685,590.2582 Q1684.3125,591.3207 1684.3125,593.4145 Q1684.3125,595.5082 1685,596.5864 Q1685.6875,597.6489 1687.0313,597.6489 Q1687.6563,597.6489 1688.25,597.3832 Q1688.8438,597.102 1689.4688,596.5239 L1689.4688,599.2426 Z " fill="#000000"/><text fill="#000000" font-family="sans-serif" font-size="14" lengthAdjust="spacing" textLength="35.3639" x="1700.5" y="599.034">recva</text><line style="stroke:#181818;stroke-width:0.5;" x1="1672.5" x2="1737.8639" y1="609.602" y2="609.602"/><line style="stroke:#181818;stroke-width:0.5;" x1="1672.5" x2="1737.8639" y1="617.602" y2="617.602"/></g><!--class recvm--><g id="elem_recvm"><rect fill="#F1F1F1" height="48" id="recvm" rx="2.5" ry="2.5" style="stroke:#181818;stroke-width:0.5;" width="72.5998" x="1563.5" y="577.602"/><ellipse cx="1578.5" cy="593.602" fill="#ADD1B2" rx="11" ry="11" style="stroke:#181818;stroke-width:1.0;"/><path d="M1581.4688,599.2426 Q1580.8906,599.5395 1580.25,599.6801 Q1579.6094,599.8364 1578.9063,599.8364 Q1576.4063,599.8364 1575.0781,598.1957 Q1573.7656,596.5395 1573.7656,593.4145 Q1573.7656,590.2895 1575.0781,588.6332 Q1576.4063,586.977 1578.9063,586.977 Q1579.6094,586.977 1580.25,587.1332 Q1580.9063,587.2895 1581.4688,587.5864 L1581.4688,590.3051 Q1580.8438,589.727 1580.25,589.4614 Q1579.6563,589.1801 1579.0313,589.1801 Q1577.6875,589.1801 1577,590.2582 Q1576.3125,591.3207 1576.3125,593.4145 Q1576.3125,595.5082 1577,596.5864 Q1577.6875,597.6489 1579.0313,597.6489 Q1579.6563,597.6489 1580.25,597.3832 Q1580.8438,597.102 1581.4688,596.5239 L1581.4688,599.2426 Z " fill="#000000"/><text fill="#000000" font-family="sans-serif" font-size="14" lengthAdjust="spacing" textLength="40.5998" x="1592.5" y="599.034">recvm</text><line style="stroke:#181818;stroke-width:0.5;" x1="1564.5" x2="1635.0998" y1="609.602" y2="609.602"/><line style="stroke:#181818;stroke-width:0.5;" x1="1564.5" x2="1635.0998" y1="617.602" y2="617.602"/></g><!--link uvm_test_top to env--><g id="link_uvm_test_top_env"><path codeLine="57" d="M934,111.652 C934,129.082 934,133.112 934,153.592 " fill="none" id="uvm_test_top-to-env" style="stroke:#181818;stroke-width:1.0;"/><polygon fill="none" points="934,171.592,940,153.592,928,153.592,934,171.592" style="stroke:#181818;stroke-width:1.0;"/></g><!--link env to aa--><g id="link_env_aa"><path codeLine="58" d="M905.84,246.592 C831.49,278.262 647.1005,356.7985 573.2605,388.2485 " fill="none" id="env-to-aa" style="stroke:#181818;stroke-width:1.0;"/><polygon fill="none" points="556.7,395.302,575.6116,393.7687,570.9093,382.7284,556.7,395.302" style="stroke:#181818;stroke-width:1.0;"/></g><!--link env to ma--><g id="link_env_ma"><path codeLine="59" d="M905.93,263.082 C875.09,294.382 838.3837,331.6205 806.7537,363.7205 " fill="none" id="env-to-ma" style="stroke:#181818;stroke-width:1.0;"/><polygon fill="none" points="794.12,376.542,811.0275,367.9318,802.4799,359.5093,794.12,376.542" style="stroke:#181818;stroke-width:1.0;"/></g><!--link env to s--><g id="link_env_s"><path codeLine="60" d="M962.19,241.902 C1051.26,264.972 1312.6249,332.669 1470.5449,373.569 " fill="none" id="env-to-s" style="stroke:#181818;stroke-width:1.0;"/><polygon fill="none" points="1487.97,378.082,1472.0492,367.7607,1469.0406,379.3774,1487.97,378.082" style="stroke:#181818;stroke-width:1.0;"/></g><!--link env to vseqr--><g id="link_env_vseqr"><path codeLine="61" d="M962.24,257.772 C1025.24,309.472 1165.8556,424.8632 1268.2756,508.9132 " fill="none" id="env-to-vseqr" style="stroke:#181818;stroke-width:1.0;"/><polygon fill="none" points="1282.19,520.332,1272.0818,504.2751,1264.4693,513.5514,1282.19,520.332" style="stroke:#181818;stroke-width:1.0;"/></g><!--link aa to a_seqr--><g id="link_aa_a_seqr"><path codeLine="62" d="M556.7,437.772 C577.86,459.682 595.6246,478.0653 623.9646,507.4053 " fill="none" id="aa-to-a_seqr" style="stroke:#181818;stroke-width:1.0;"/><polygon fill="none" points="636.47,520.352,628.2802,503.2369,619.6491,511.5738,636.47,520.352" style="stroke:#181818;stroke-width:1.0;"/></g><!--link aa to d--><g id="link_aa_d"><path codeLine="63" d="M501.28,446.482 C477.47,478.592 453.881,510.4031 429.071,543.8631 " fill="none" id="aa-to-d" style="stroke:#181818;stroke-width:1.0;"/><polygon fill="none" points="418.35,558.322,433.8907,547.4368,424.2514,540.2894,418.35,558.322" style="stroke:#181818;stroke-width:1.0;"/></g><!--link aa to m--><g id="link_aa_m"><path codeLine="64" d="M501.3,416.622 C446.85,431.992 322.82,469.862 227,520.602 C201.76,533.962 189.9904,541.3636 169.3604,557.1036 " fill="none" id="aa-to-m" style="stroke:#181818;stroke-width:1.0;"/><polygon fill="none" points="155.05,568.022,172.9999,561.8737,165.721,552.3334,155.05,568.022" style="stroke:#181818;stroke-width:1.0;"/></g><!--link a_seqr to rsp_export--><g id="link_a_seqr_rsp_export"><path codeLine="65" d="M863.43,675.092 C869.34,677.672 875.22,680.182 881,682.602 C913.98,696.382 985.9201,721.8256 1043.3301,741.8056 " fill="none" id="a_seqr-to-rsp_export" style="stroke:#181818;stroke-width:1.0;"/><polygon fill="none" points="1060.33,747.722,1045.3022,736.139,1041.358,747.4723,1060.33,747.722" style="stroke:#181818;stroke-width:1.0;"/></g><!--link a_seqr to seq_item_export--><g id="link_a_seqr_seq_item_export"><path codeLine="66" d="M863.02,676.202 C869.04,678.472 875.05,680.622 881,682.602 C1009.98,725.642 1048.5,712.062 1181,742.602 C1186.69,743.912 1175.1001,741.0361 1181.0001,742.4861 " fill="none" id="a_seqr-to-seq_item_export" style="stroke:#181818;stroke-width:1.0;"/><polygon fill="none" points="1198.48,746.782,1182.4321,736.6595,1179.5682,748.3127,1198.48,746.782" style="stroke:#181818;stroke-width:1.0;"/></g><!--link a_seqr to arbitration_queue--><g id="link_a_seqr_arbitration_queue"><path codeLine="67" d="M863.31,676.912 C869.23,678.972 875.14,680.882 881,682.602 C1085.56,742.772 1147.37,703.602 1357,742.602 C1362.8,743.682 1351.2043,741.0624 1357.2043,742.3724 " fill="none" id="a_seqr-to-arbitration_queue" style="stroke:#181818;stroke-width:1.0;"/><polygon fill="none" points="1374.79,746.212,1358.4841,736.5105,1355.9244,748.2343,1374.79,746.212" style="stroke:#181818;stroke-width:1.0;"/></g><!--link a_seqr to lock_queue--><g id="link_a_seqr_lock_queue"><path codeLine="68" d="M681.58,682.672 C672.71,704.572 670.5476,709.9186 664.1276,725.7686 " fill="none" id="a_seqr-to-lock_queue" style="stroke:#181818;stroke-width:1.0;"/><polygon fill="none" points="657.37,742.452,669.6887,728.0211,658.5664,723.5161,657.37,742.452" style="stroke:#181818;stroke-width:1.0;"/></g><!--link a_seqr to num_last_reqs--><g id="link_a_seqr_num_last_reqs"><path codeLine="69" d="M756.24,682.672 C767.8,704.572 771.0325,710.6809 779.3925,726.5309 " fill="none" id="a_seqr-to-num_last_reqs" style="stroke:#181818;stroke-width:1.0;"/><polygon fill="none" points="787.79,742.452,784.6995,723.7317,774.0855,729.33,787.79,742.452" style="stroke:#181818;stroke-width:1.0;"/></g><!--link a_seqr to num_last_rsps--><g id="link_a_seqr_num_last_rsps"><path codeLine="70" d="M835.82,682.672 C869.14,704.572 887.6291,716.714 911.7391,732.564 " fill="none" id="a_seqr-to-num_last_rsps" style="stroke:#181818;stroke-width:1.0;"/><polygon fill="none" points="926.78,742.452,915.0351,727.5504,908.4431,737.5777,926.78,742.452" style="stroke:#181818;stroke-width:1.0;"/></g><!--link d to rsp_port--><g id="link_d_rsp_port"><path codeLine="71" d="M403.65,645.002 C415.87,676.132 425.4313,700.4772 435.3613,725.7672 " fill="none" id="d-to-rsp_port" style="stroke:#181818;stroke-width:1.0;"/><polygon fill="none" points="441.94,742.522,440.9462,723.5744,429.7764,727.9601,441.94,742.522" style="stroke:#181818;stroke-width:1.0;"/></g><!--link d to seq_item_port--><g id="link_d_seq_item_port"><path codeLine="72" d="M366.97,645.002 C352.27,676.132 340.5401,700.9574 328.5901,726.2474 " fill="none" id="d-to-seq_item_port" style="stroke:#181818;stroke-width:1.0;"/><polygon fill="none" points="320.9,742.522,334.0149,728.8107,323.1652,723.684,320.9,742.522" style="stroke:#181818;stroke-width:1.0;"/></g><!--link m to send--><g id="link_m_send"><path codeLine="73" d="M115,635.192 C115,666.972 115,696.482 115,724.532 " fill="none" id="m-to-send" style="stroke:#181818;stroke-width:1.0;"/><polygon fill="none" points="115,742.532,121,724.532,109,724.532,115,742.532" style="stroke:#181818;stroke-width:1.0;"/></g><!--link ma to d--><g id="link_ma_d"><path codeLine="74" d="M733.79,424.452 C677.17,453.202 569.3889,507.9614 486.0789,550.2714 " fill="none" id="ma-to-d" style="stroke:#181818;stroke-width:1.0;"/><polygon fill="none" points="470.03,558.422,488.7958,555.621,483.362,544.9217,470.03,558.422" style="stroke:#181818;stroke-width:1.0;"/></g><!--link ma to m--><g id="link_ma_m"><path codeLine="75" d="M733.94,418.182 C696.67,429.232 631.06,447.962 574,460.602 C421.19,494.442 371.41,460.272 227,520.602 C199.66,532.022 186.5453,539.8572 165.8353,556.5472 " fill="none" id="ma-to-m" style="stroke:#181818;stroke-width:1.0;"/><polygon fill="none" points="151.82,567.842,169.6002,561.219,162.0703,551.8754,151.82,567.842" style="stroke:#181818;stroke-width:1.0;"/></g><!--link ma to m_seqr--><g id="link_ma_m_seqr"><path codeLine="76" d="M794.02,429.412 C826.17,451.172 864.3224,476.9842 913.5624,510.3042 " fill="none" id="ma-to-m_seqr" style="stroke:#181818;stroke-width:1.0;"/><polygon fill="none" points="928.47,520.392,916.925,505.335,910.1998,515.2734,928.47,520.392" style="stroke:#181818;stroke-width:1.0;"/></g><!--link m_seqr to rsp_export--><g id="link_m_seqr_rsp_export"><path codeLine="77" d="M1078.93,682.672 C1087.66,704.572 1089.7832,709.8821 1096.1032,725.7321 " fill="none" id="m_seqr-to-rsp_export" style="stroke:#181818;stroke-width:1.0;"/><polygon fill="none" points="1102.77,742.452,1101.6764,723.5099,1090.5299,727.9544,1102.77,742.452" style="stroke:#181818;stroke-width:1.0;"/></g><!--link m_seqr to seq_item_export--><g id="link_m_seqr_seq_item_export"><path codeLine="78" d="M1156.05,682.672 C1185.87,704.572 1201.3826,715.9467 1222.9626,731.7967 " fill="none" id="m_seqr-to-seq_item_export" style="stroke:#181818;stroke-width:1.0;"/><polygon fill="none" points="1237.47,742.452,1226.5144,726.9609,1219.4108,736.6324,1237.47,742.452" style="stroke:#181818;stroke-width:1.0;"/></g><!--link m_seqr to arbitration_queue--><g id="link_m_seqr_arbitration_queue"><path codeLine="79" d="M1196.41,675.142 C1202.33,677.712 1208.21,680.202 1214,682.602 C1268.18,705.032 1313.7568,721.2105 1360.8968,736.8605 " fill="none" id="m_seqr-to-arbitration_queue" style="stroke:#181818;stroke-width:1.0;"/><polygon fill="none" points="1377.98,742.532,1362.7873,731.1662,1359.0063,742.5549,1377.98,742.532" style="stroke:#181818;stroke-width:1.0;"/></g><!--link m_seqr to lock_queue--><g id="link_m_seqr_lock_queue"><path codeLine="80" d="M897.58,675.522 C892,677.952 886.46,680.322 881,682.602 C820.38,707.922 766.0767,726.9611 718.4467,742.7411 " fill="none" id="m_seqr-to-lock_queue" style="stroke:#181818;stroke-width:1.0;"/><polygon fill="none" points="701.36,748.402,720.3336,748.4367,716.5597,737.0455,701.36,748.402" style="stroke:#181818;stroke-width:1.0;"/></g><!--link m_seqr to num_last_reqs--><g id="link_m_seqr_num_last_reqs"><path codeLine="81" d="M925.67,682.672 C892.49,704.572 874.112,716.6853 850.102,732.5353 " fill="none" id="m_seqr-to-num_last_reqs" style="stroke:#181818;stroke-width:1.0;"/><polygon fill="none" points="835.08,742.452,853.4075,737.5427,846.7964,727.528,835.08,742.452" style="stroke:#181818;stroke-width:1.0;"/></g><!--link m_seqr to num_last_rsps--><g id="link_m_seqr_num_last_rsps"><path codeLine="82" d="M1005.25,682.672 C993.83,704.572 990.6665,710.6436 982.3965,726.4936 " fill="none" id="m_seqr-to-num_last_rsps" style="stroke:#181818;stroke-width:1.0;"/><polygon fill="none" points="974.07,742.452,987.716,729.2691,977.0771,723.7181,974.07,742.452" style="stroke:#181818;stroke-width:1.0;"/></g><!--link s to recva--><g id="link_s_recva"><path codeLine="83" d="M1623.04,451.132 C1644.35,489.992 1666.5874,530.5381 1683.7074,561.7681 " fill="none" id="s-to-recva" style="stroke:#181818;stroke-width:1.0;"/><polygon fill="none" points="1692.36,577.552,1688.9687,558.8839,1678.4461,564.6523,1692.36,577.552" style="stroke:#181818;stroke-width:1.0;"/></g><!--link s to recvm--><g id="link_s_recvm"><path codeLine="84" d="M1600,451.132 C1600,489.992 1600,528.322 1600,559.552 " fill="none" id="s-to-recvm" style="stroke:#181818;stroke-width:1.0;"/><polygon fill="none" points="1600,577.552,1606,559.552,1594,559.552,1600,577.552" style="stroke:#181818;stroke-width:1.0;"/></g><!--link vseqr to rsp_export--><g id="link_vseqr_rsp_export"><path codeLine="85" d="M1248.36,682.672 C1212.35,704.572 1191.4989,717.2484 1165.4389,733.0984 " fill="none" id="vseqr-to-rsp_export" style="stroke:#181818;stroke-width:1.0;"/><polygon fill="none" points="1150.06,742.452,1168.5567,738.2247,1162.321,727.9721,1150.06,742.452" style="stroke:#181818;stroke-width:1.0;"/></g><!--link vseqr to seq_item_export--><g id="link_vseqr_seq_item_export"><path codeLine="86" d="M1325.48,682.672 C1310.56,704.572 1305.6957,711.7269 1294.8957,727.5769 " fill="none" id="vseqr-to-seq_item_export" style="stroke:#181818;stroke-width:1.0;"/><polygon fill="none" points="1284.76,742.452,1299.8541,730.9555,1289.9373,724.1983,1284.76,742.452" style="stroke:#181818;stroke-width:1.0;"/></g><!--link vseqr to arbitration_queue--><g id="link_vseqr_arbitration_queue"><path codeLine="87" d="M1414.38,682.672 C1423.79,704.572 1426.1443,710.0639 1432.9543,725.9139 " fill="none" id="vseqr-to-arbitration_queue" style="stroke:#181818;stroke-width:1.0;"/><polygon fill="none" points="1440.06,742.452,1438.4671,723.5453,1427.4416,728.2824,1440.06,742.452" style="stroke:#181818;stroke-width:1.0;"/></g><!--link vseqr to lock_queue--><g id="link_vseqr_lock_queue"><path codeLine="88" d="M1230.68,677.272 C1225.1,679.202 1219.53,680.982 1214,682.602 C1001.32,744.882 935.42,694.902 719,742.602 C713.18,743.882 724.4696,740.5147 718.5096,742.2147 " fill="none" id="vseqr-to-lock_queue" style="stroke:#181818;stroke-width:1.0;"/><polygon fill="none" points="701.2,747.152,720.1554,747.9845,716.8639,736.4448,701.2,747.152" style="stroke:#181818;stroke-width:1.0;"/></g><!--link vseqr to num_last_reqs--><g id="link_vseqr_num_last_reqs"><path codeLine="89" d="M1230.55,676.862 C1225,678.902 1219.48,680.822 1214,682.602 C1071.38,728.902 1028.13,708.982 882,742.602 C876.09,743.962 887.3898,740.9388 881.2798,742.5288 " fill="none" id="vseqr-to-num_last_reqs" style="stroke:#181818;stroke-width:1.0;"/><polygon fill="none" points="863.86,747.062,882.7909,748.3354,879.7688,736.7222,863.86,747.062" style="stroke:#181818;stroke-width:1.0;"/></g><!--link vseqr to num_last_rsps--><g id="link_vseqr_num_last_rsps"><path codeLine="90" d="M1230.65,675.692 C1225.05,678.072 1219.49,680.382 1214,682.602 C1150.89,708.072 1093.9254,726.6016 1042.4554,742.1016 " fill="none" id="vseqr-to-num_last_rsps" style="stroke:#181818;stroke-width:1.0;"/><polygon fill="none" points="1025.22,747.292,1044.1856,747.8467,1040.7253,736.3565,1025.22,747.292" style="stroke:#181818;stroke-width:1.0;"/></g><!--SRC=[vLHBRiCW4Dtt5AZRAXV8eZVegccsQ69GQeMn2M2KgCtTYx7BnmJd066J-RmPvZtYaT2SuCZ9wxvLPW11Flbvu5t35U4NG2au-Tf_a1tNvk32tsJNorxqn-ih-NaXxZG2j2Q3HMeSXffUpednyCvw-vP0NIn100GJewc3PJK_gw87GDg21inuM6nOrdbeKlkcjAJy8djbjfu4T22kkjLpC09T8MqDnmmTWd8GWhOe8nxKeJKAJDjtr2awy2q1fU0Q4Q9lJfLKDo1r0nkg-5blITiPVbGWxW6qN09Imcp9zGxJ2iyQom1Fxy7q7iqxLhiZAqfVSVbitg9tNn-VxHLrnfKt5XOqtSmK6Cj1U0U4GzdTFeMQ_YTRKvlDxtlOKEDMye5v8GKV5xxEtRYVt4wQ6j0Yn39l-d_FgyX7ek15QY5naIyaBH1HqYALIRgITNhwB8lZXc7OOiwGmFz4Dz77J0pCn0XUr0xh-k03VV2XFbZN1rVrmLLzz3pk-8Kk0nDHMoLbrpdPHvHibP5T8sHhV6v_]--></g></svg>