<svg xmlns="http://www.w3.org/2000/svg" xmlns:xlink="http://www.w3.org/1999/xlink" contentStyleType="text/css" height="794px" preserveAspectRatio="none" style="width:2190px;height:794px;background:#FFFFFF;" version="1.1" viewBox="0 0 2190 794" width="2190px" zoomAndPan="magnify"><defs/><g><!--cluster TLM Analysis FIFO example UVM Testbench Topology--><g id="cluster_TLM Analysis FIFO example UVM Testbench Topology"><path d="M8.5,6.602 L379.3226,6.602 A3.75,3.75 0 0 1 381.8226,9.102 L388.8226,31.6699 L2180.5,31.6699 A2.5,2.5 0 0 1 2183,34.1699 L2183,785.102 A2.5,2.5 0 0 1 2180.5,787.602 L8.5,787.602 A2.5,2.5 0 0 1 6,785.102 L6,9.102 A2.5,2.5 0 0 1 8.5,6.602 " fill="none" style="stroke:#000000;stroke-width:1.5;"/><line style="stroke:#000000;stroke-width:1.5;" x1="6" x2="388.8226" y1="31.6699" y2="31.6699"/><text fill="#000000" font-family="sans-serif" font-size="14" font-weight="bold" lengthAdjust="spacing" textLength="369.8226" x="10" y="23.5679">TLM Analysis FIFO example UVM Testbench Topology</text></g><!--class uvm_test_top--><g id="elem_uvm_test_top"><rect codeLine="2" fill="#F1F1F1" height="67.0679" id="uvm_test_top" rx="2.5" ry="2.5" style="stroke:#181818;stroke-width:0.5;" width="120.1297" x="1099" y="44.602"/><ellipse cx="1114" cy="60.602" fill="#ADD1B2" rx="11" ry="11" style="stroke:#181818;stroke-width:1.0;"/><path d="M1116.9688,66.2426 Q1116.3906,66.5395 1115.75,66.6801 Q1115.1094,66.8364 1114.4063,66.8364 Q1111.9063,66.8364 1110.5781,65.1957 Q1109.2656,63.5395 1109.2656,60.4145 Q1109.2656,57.2895 1110.5781,55.6332 Q1111.9063,53.977 1114.4063,53.977 Q1115.1094,53.977 1115.75,54.1332 Q1116.4063,54.2895 1116.9688,54.5864 L1116.9688,57.3051 Q1116.3438,56.727 1115.75,56.4614 Q1115.1563,56.1801 1114.5313,56.1801 Q1113.1875,56.1801 1112.5,57.2582 Q1111.8125,58.3207 1111.8125,60.4145 Q1111.8125,62.5082 1112.5,63.5864 Q1113.1875,64.6489 1114.5313,64.6489 Q1115.1563,64.6489 1115.75,64.3832 Q1116.3438,64.102 1116.9688,63.5239 L1116.9688,66.2426 Z " fill="#000000"/><text fill="#000000" font-family="sans-serif" font-size="14" lengthAdjust="spacing" textLength="88.1297" x="1128" y="66.034">uvm_test_top</text><line style="stroke:#181818;stroke-width:0.5;" x1="1100" x2="1218.1297" y1="76.602" y2="76.602"/><text fill="#000000" font-family="sans-serif" font-size="14" lengthAdjust="spacing" textLength="23.6599" x="1105" y="95.5679">env</text><line style="stroke:#181818;stroke-width:0.5;" x1="1100" x2="1218.1297" y1="103.6699" y2="103.6699"/></g><!--class env--><g id="elem_env"><rect codeLine="5" fill="#F1F1F1" height="86.1358" id="env" rx="2.5" ry="2.5" style="stroke:#181818;stroke-width:0.5;" width="55.6599" x="1131" y="171.602"/><ellipse cx="1146" cy="187.602" fill="#ADD1B2" rx="11" ry="11" style="stroke:#181818;stroke-width:1.0;"/><path d="M1148.9688,193.2426 Q1148.3906,193.5395 1147.75,193.6801 Q1147.1094,193.8364 1146.4063,193.8364 Q1143.9063,193.8364 1142.5781,192.1957 Q1141.2656,190.5395 1141.2656,187.4145 Q1141.2656,184.2895 1142.5781,182.6332 Q1143.9063,180.977 1146.4063,180.977 Q1147.1094,180.977 1147.75,181.1332 Q1148.4063,181.2895 1148.9688,181.5864 L1148.9688,184.3051 Q1148.3438,183.727 1147.75,183.4614 Q1147.1563,183.1801 1146.5313,183.1801 Q1145.1875,183.1801 1144.5,184.2582 Q1143.8125,185.3207 1143.8125,187.4145 Q1143.8125,189.5082 1144.5,190.5864 Q1145.1875,191.6489 1146.5313,191.6489 Q1147.1563,191.6489 1147.75,191.3832 Q1148.3438,191.102 1148.9688,190.5239 L1148.9688,193.2426 Z " fill="#000000"/><text fill="#000000" font-family="sans-serif" font-size="14" lengthAdjust="spacing" textLength="23.6599" x="1160" y="193.034">env</text><line style="stroke:#181818;stroke-width:0.5;" x1="1132" x2="1185.6599" y1="203.602" y2="203.602"/><text fill="#000000" font-family="sans-serif" font-size="14" lengthAdjust="spacing" textLength="38.0659" x="1137" y="222.5679">agent</text><text fill="#000000" font-family="sans-serif" font-size="14" lengthAdjust="spacing" textLength="21.8959" x="1137" y="241.6358">sco</text><line style="stroke:#181818;stroke-width:0.5;" x1="1132" x2="1185.6599" y1="249.7378" y2="249.7378"/></g><!--class agent--><g id="elem_agent"><rect codeLine="9" fill="#F1F1F1" height="124.2717" id="agent" rx="2.5" ry="2.5" style="stroke:#181818;stroke-width:0.5;" width="70.0659" x="636" y="317.602"/><ellipse cx="651" cy="333.602" fill="#ADD1B2" rx="11" ry="11" style="stroke:#181818;stroke-width:1.0;"/><path d="M653.9688,339.2426 Q653.3906,339.5395 652.75,339.6801 Q652.1094,339.8364 651.4063,339.8364 Q648.9063,339.8364 647.5781,338.1957 Q646.2656,336.5395 646.2656,333.4145 Q646.2656,330.2895 647.5781,328.6332 Q648.9063,326.977 651.4063,326.977 Q652.1094,326.977 652.75,327.1332 Q653.4063,327.2895 653.9688,327.5864 L653.9688,330.3051 Q653.3438,329.727 652.75,329.4614 Q652.1563,329.1801 651.5313,329.1801 Q650.1875,329.1801 649.5,330.2582 Q648.8125,331.3207 648.8125,333.4145 Q648.8125,335.5082 649.5,336.5864 Q650.1875,337.6489 651.5313,337.6489 Q652.1563,337.6489 652.75,337.3832 Q653.3438,337.102 653.9688,336.5239 L653.9688,339.2426 Z " fill="#000000"/><text fill="#000000" font-family="sans-serif" font-size="14" lengthAdjust="spacing" textLength="38.0659" x="665" y="339.034">agent</text><line style="stroke:#181818;stroke-width:0.5;" x1="637" x2="705.0659" y1="349.602" y2="349.602"/><text fill="#000000" font-family="sans-serif" font-size="14" lengthAdjust="spacing" textLength="8.61" x="642" y="368.5679">d</text><text fill="#000000" font-family="sans-serif" font-size="14" lengthAdjust="spacing" textLength="13.09" x="642" y="387.6358">m</text><text fill="#000000" font-family="sans-serif" font-size="14" lengthAdjust="spacing" textLength="31.5839" x="642" y="406.7038">mref</text><text fill="#000000" font-family="sans-serif" font-size="14" lengthAdjust="spacing" textLength="28.9939" x="642" y="425.7717">seqr</text><line style="stroke:#181818;stroke-width:0.5;" x1="637" x2="705.0659" y1="433.8736" y2="433.8736"/></g><!--class d--><g id="elem_d"><rect codeLine="15" fill="#F1F1F1" height="86.1358" id="d" rx="2.5" ry="2.5" style="stroke:#181818;stroke-width:0.5;" width="285.587" x="22" y="539.602"/><ellipse cx="156.2385" cy="555.602" fill="#ADD1B2" rx="11" ry="11" style="stroke:#181818;stroke-width:1.0;"/><path d="M159.2073,561.2426 Q158.6291,561.5395 157.9885,561.6801 Q157.3479,561.8364 156.6448,561.8364 Q154.1448,561.8364 152.8166,560.1957 Q151.5041,558.5395 151.5041,555.4145 Q151.5041,552.2895 152.8166,550.6332 Q154.1448,548.977 156.6448,548.977 Q157.3479,548.977 157.9885,549.1332 Q158.6448,549.2895 159.2073,549.5864 L159.2073,552.3051 Q158.5823,551.727 157.9885,551.4614 Q157.3948,551.1801 156.7698,551.1801 Q155.426,551.1801 154.7385,552.2582 Q154.051,553.3207 154.051,555.4145 Q154.051,557.5082 154.7385,558.5864 Q155.426,559.6489 156.7698,559.6489 Q157.3948,559.6489 157.9885,559.3832 Q158.5823,559.102 159.2073,558.5239 L159.2073,561.2426 Z " fill="#000000"/><text fill="#000000" font-family="sans-serif" font-size="14" lengthAdjust="spacing" textLength="8.61" x="176.7385" y="561.034">d</text><line style="stroke:#181818;stroke-width:0.5;" x1="23" x2="306.587" y1="571.602" y2="571.602"/><ellipse cx="33" cy="586.6359" fill="none" rx="3" ry="3" style="stroke:#038048;stroke-width:1.0;"/><text fill="#000000" font-family="sans-serif" font-size="14" lengthAdjust="spacing" textLength="183.9593" x="42" y="590.5679">rsp_port: uvm_analysis_port</text><ellipse cx="33" cy="605.7039" fill="none" rx="3" ry="3" style="stroke:#038048;stroke-width:1.0;"/><text fill="#000000" font-family="sans-serif" font-size="14" lengthAdjust="spacing" textLength="259.587" x="42" y="609.6358">seq_item_port: uvm_seq_item_pull_port</text><line style="stroke:#181818;stroke-width:0.5;" x1="23" x2="306.587" y1="617.7378" y2="617.7378"/></g><!--class m--><g id="elem_m"><rect codeLine="19" fill="#F1F1F1" height="67.0679" id="m" rx="2.5" ry="2.5" style="stroke:#181818;stroke-width:0.5;" width="186.5934" x="343.5" y="549.102"/><ellipse cx="426.0017" cy="565.102" fill="#ADD1B2" rx="11" ry="11" style="stroke:#181818;stroke-width:1.0;"/><path d="M428.9705,570.7426 Q428.3923,571.0395 427.7517,571.1801 Q427.1111,571.3364 426.408,571.3364 Q423.908,571.3364 422.5798,569.6957 Q421.2673,568.0395 421.2673,564.9145 Q421.2673,561.7895 422.5798,560.1332 Q423.908,558.477 426.408,558.477 Q427.1111,558.477 427.7517,558.6332 Q428.408,558.7895 428.9705,559.0864 L428.9705,561.8051 Q428.3455,561.227 427.7517,560.9614 Q427.158,560.6801 426.533,560.6801 Q425.1892,560.6801 424.5017,561.7582 Q423.8142,562.8207 423.8142,564.9145 Q423.8142,567.0082 424.5017,568.0864 Q425.1892,569.1489 426.533,569.1489 Q427.158,569.1489 427.7517,568.8832 Q428.3455,568.602 428.9705,568.0239 L428.9705,570.7426 Z " fill="#000000"/><text fill="#000000" font-family="sans-serif" font-size="14" lengthAdjust="spacing" textLength="13.09" x="446.5017" y="570.534">m</text><line style="stroke:#181818;stroke-width:0.5;" x1="344.5" x2="529.0934" y1="581.102" y2="581.102"/><ellipse cx="354.5" cy="596.1359" fill="none" rx="3" ry="3" style="stroke:#038048;stroke-width:1.0;"/><text fill="#000000" font-family="sans-serif" font-size="14" lengthAdjust="spacing" textLength="160.5934" x="363.5" y="600.0679">send: uvm_analysis_port</text><line style="stroke:#181818;stroke-width:0.5;" x1="344.5" x2="529.0934" y1="608.1699" y2="608.1699"/></g><!--class mref--><g id="elem_mref"><rect codeLine="22" fill="#F1F1F1" height="67.0679" id="mref" rx="2.5" ry="2.5" style="stroke:#181818;stroke-width:0.5;" width="211.3033" x="565.5" y="549.102"/><ellipse cx="651.1097" cy="565.102" fill="#ADD1B2" rx="11" ry="11" style="stroke:#181818;stroke-width:1.0;"/><path d="M654.0785,570.7426 Q653.5003,571.0395 652.8597,571.1801 Q652.2191,571.3364 651.516,571.3364 Q649.016,571.3364 647.6878,569.6957 Q646.3753,568.0395 646.3753,564.9145 Q646.3753,561.7895 647.6878,560.1332 Q649.016,558.477 651.516,558.477 Q652.2191,558.477 652.8597,558.6332 Q653.516,558.7895 654.0785,559.0864 L654.0785,561.8051 Q653.4535,561.227 652.8597,560.9614 Q652.266,560.6801 651.641,560.6801 Q650.2972,560.6801 649.6097,561.7582 Q648.9222,562.8207 648.9222,564.9145 Q648.9222,567.0082 649.6097,568.0864 Q650.2972,569.1489 651.641,569.1489 Q652.266,569.1489 652.8597,568.8832 Q653.4535,568.602 654.0785,568.0239 L654.0785,570.7426 Z " fill="#000000"/><text fill="#000000" font-family="sans-serif" font-size="14" lengthAdjust="spacing" textLength="31.5839" x="671.6097" y="570.534">mref</text><line style="stroke:#181818;stroke-width:0.5;" x1="566.5" x2="775.8033" y1="581.102" y2="581.102"/><ellipse cx="576.5" cy="596.1359" fill="none" rx="3" ry="3" style="stroke:#038048;stroke-width:1.0;"/><text fill="#000000" font-family="sans-serif" font-size="14" lengthAdjust="spacing" textLength="185.3033" x="585.5" y="600.0679">send_ref: uvm_analysis_port</text><line style="stroke:#181818;stroke-width:0.5;" x1="566.5" x2="775.8033" y1="608.1699" y2="608.1699"/></g><!--class seqr--><g id="elem_seqr"><rect codeLine="25" fill="#F1F1F1" height="162.4075" id="seqr" rx="2.5" ry="2.5" style="stroke:#181818;stroke-width:0.5;" width="298.285" x="812" y="501.602"/><ellipse cx="942.3955" cy="517.602" fill="#ADD1B2" rx="11" ry="11" style="stroke:#181818;stroke-width:1.0;"/><path d="M945.3643,523.2426 Q944.7862,523.5395 944.1455,523.6801 Q943.5049,523.8364 942.8018,523.8364 Q940.3018,523.8364 938.9737,522.1957 Q937.6612,520.5395 937.6612,517.4145 Q937.6612,514.2895 938.9737,512.6332 Q940.3018,510.977 942.8018,510.977 Q943.5049,510.977 944.1455,511.1332 Q944.8018,511.2895 945.3643,511.5864 L945.3643,514.3051 Q944.7393,513.727 944.1455,513.4614 Q943.5518,513.1801 942.9268,513.1801 Q941.583,513.1801 940.8955,514.2582 Q940.208,515.3207 940.208,517.4145 Q940.208,519.5082 940.8955,520.5864 Q941.583,521.6489 942.9268,521.6489 Q943.5518,521.6489 944.1455,521.3832 Q944.7393,521.102 945.3643,520.5239 L945.3643,523.2426 Z " fill="#000000"/><text fill="#000000" font-family="sans-serif" font-size="14" lengthAdjust="spacing" textLength="28.9939" x="962.8955" y="523.034">seqr</text><line style="stroke:#181818;stroke-width:0.5;" x1="813" x2="1109.285" y1="533.602" y2="533.602"/><ellipse cx="823" cy="548.6359" fill="none" rx="3" ry="3" style="stroke:#038048;stroke-width:1.0;"/><text fill="#000000" font-family="sans-serif" font-size="14" lengthAdjust="spacing" textLength="214.5632" x="832" y="552.5679">rsp_export: uvm_analysis_export</text><ellipse cx="823" cy="567.7039" fill="none" rx="3" ry="3" style="stroke:#038048;stroke-width:1.0;"/><text fill="#000000" font-family="sans-serif" font-size="14" lengthAdjust="spacing" textLength="272.285" x="832" y="571.6358">seq_item_export: uvm_seq_item_pull_imp</text><ellipse cx="823" cy="586.7718" fill="none" rx="3" ry="3" style="stroke:#038048;stroke-width:1.0;"/><text fill="#000000" font-family="sans-serif" font-size="14" lengthAdjust="spacing" textLength="160.0614" x="832" y="590.7038">arbitration_queue: array</text><ellipse cx="823" cy="605.8397" fill="none" rx="3" ry="3" style="stroke:#038048;stroke-width:1.0;"/><text fill="#000000" font-family="sans-serif" font-size="14" lengthAdjust="spacing" textLength="116.0035" x="832" y="609.7717">lock_queue: array</text><ellipse cx="823" cy="624.9076" fill="none" rx="3" ry="3" style="stroke:#038048;stroke-width:1.0;"/><text fill="#000000" font-family="sans-serif" font-size="14" lengthAdjust="spacing" textLength="153.5094" x="832" y="628.8396">num_last_reqs: integral</text><ellipse cx="823" cy="643.9755" fill="none" rx="3" ry="3" style="stroke:#038048;stroke-width:1.0;"/><text fill="#000000" font-family="sans-serif" font-size="14" lengthAdjust="spacing" textLength="152.3194" x="832" y="647.9075">num_last_rsps: integral</text><line style="stroke:#181818;stroke-width:0.5;" x1="813" x2="1109.285" y1="656.0095" y2="656.0095"/></g><!--class sco--><g id="elem_sco"><rect codeLine="33" fill="#F1F1F1" height="86.1358" id="sco" rx="2.5" ry="2.5" style="stroke:#181818;stroke-width:0.5;" width="94.1937" x="1601" y="336.602"/><ellipse cx="1634.134" cy="352.602" fill="#ADD1B2" rx="11" ry="11" style="stroke:#181818;stroke-width:1.0;"/><path d="M1637.1027,358.2426 Q1636.5246,358.5395 1635.884,358.6801 Q1635.2434,358.8364 1634.5402,358.8364 Q1632.0402,358.8364 1630.7121,357.1957 Q1629.3996,355.5395 1629.3996,352.4145 Q1629.3996,349.2895 1630.7121,347.6332 Q1632.0402,345.977 1634.5402,345.977 Q1635.2434,345.977 1635.884,346.1332 Q1636.5402,346.2895 1637.1027,346.5864 L1637.1027,349.3051 Q1636.4777,348.727 1635.884,348.4614 Q1635.2902,348.1801 1634.6652,348.1801 Q1633.3215,348.1801 1632.634,349.2582 Q1631.9465,350.3207 1631.9465,352.4145 Q1631.9465,354.5082 1632.634,355.5864 Q1633.3215,356.6489 1634.6652,356.6489 Q1635.2902,356.6489 1635.884,356.3832 Q1636.4777,356.102 1637.1027,355.5239 L1637.1027,358.2426 Z " fill="#000000"/><text fill="#000000" font-family="sans-serif" font-size="14" lengthAdjust="spacing" textLength="21.8959" x="1652.1638" y="358.034">sco</text><line style="stroke:#181818;stroke-width:0.5;" x1="1602" x2="1694.1937" y1="368.602" y2="368.602"/><text fill="#000000" font-family="sans-serif" font-size="14" lengthAdjust="spacing" textLength="57.4838" x="1607" y="387.5679">sco_data</text><text fill="#000000" font-family="sans-serif" font-size="14" lengthAdjust="spacing" textLength="82.1937" x="1607" y="406.6358">sco_data_ref</text><line style="stroke:#181818;stroke-width:0.5;" x1="1602" x2="1694.1937" y1="414.7378" y2="414.7378"/></g><!--class sco_data--><g id="elem_sco_data"><rect codeLine="37" fill="#F1F1F1" height="143.3396" id="sco_data" rx="2.5" ry="2.5" style="stroke:#181818;stroke-width:0.5;" width="268.731" x="1513.5" y="511.102"/><ellipse cx="1614.8736" cy="527.102" fill="#ADD1B2" rx="11" ry="11" style="stroke:#181818;stroke-width:1.0;"/><path d="M1617.8424,532.7426 Q1617.2643,533.0395 1616.6236,533.1801 Q1615.983,533.3364 1615.2799,533.3364 Q1612.7799,533.3364 1611.4518,531.6957 Q1610.1393,530.0395 1610.1393,526.9145 Q1610.1393,523.7895 1611.4518,522.1332 Q1612.7799,520.477 1615.2799,520.477 Q1615.983,520.477 1616.6236,520.6332 Q1617.2799,520.7895 1617.8424,521.0864 L1617.8424,523.8051 Q1617.2174,523.227 1616.6236,522.9614 Q1616.0299,522.6801 1615.4049,522.6801 Q1614.0611,522.6801 1613.3736,523.7582 Q1612.6861,524.8207 1612.6861,526.9145 Q1612.6861,529.0082 1613.3736,530.0864 Q1614.0611,531.1489 1615.4049,531.1489 Q1616.0299,531.1489 1616.6236,530.8832 Q1617.2174,530.602 1617.8424,530.0239 L1617.8424,532.7426 Z " fill="#000000"/><text fill="#000000" font-family="sans-serif" font-size="14" lengthAdjust="spacing" textLength="57.4838" x="1635.3736" y="532.534">sco_data</text><line style="stroke:#181818;stroke-width:0.5;" x1="1514.5" x2="1781.231" y1="543.102" y2="543.102"/><ellipse cx="1524.5" cy="558.1359" fill="none" rx="3" ry="3" style="stroke:#038048;stroke-width:1.0;"/><text fill="#000000" font-family="sans-serif" font-size="14" lengthAdjust="spacing" textLength="227.6951" x="1533.5" y="562.0679">analysis_export: uvm_analysis_imp</text><ellipse cx="1524.5" cy="577.2039" fill="none" rx="3" ry="3" style="stroke:#038048;stroke-width:1.0;"/><text fill="#000000" font-family="sans-serif" font-size="14" lengthAdjust="spacing" textLength="172.9693" x="1533.5" y="581.1358">get_ap: uvm_analysis_port</text><ellipse cx="1524.5" cy="596.2718" fill="none" rx="3" ry="3" style="stroke:#038048;stroke-width:1.0;"/><text fill="#000000" font-family="sans-serif" font-size="14" lengthAdjust="spacing" textLength="242.731" x="1533.5" y="600.2038">get_peek_export: uvm_get_peek_imp</text><ellipse cx="1524.5" cy="615.3397" fill="none" rx="3" ry="3" style="stroke:#038048;stroke-width:1.0;"/><text fill="#000000" font-family="sans-serif" font-size="14" lengthAdjust="spacing" textLength="173.7253" x="1533.5" y="619.2717">put_ap: uvm_analysis_port</text><ellipse cx="1524.5" cy="634.4076" fill="none" rx="3" ry="3" style="stroke:#038048;stroke-width:1.0;"/><text fill="#000000" font-family="sans-serif" font-size="14" lengthAdjust="spacing" textLength="168.0554" x="1533.5" y="638.3396">put_export: uvm_put_imp</text><line style="stroke:#181818;stroke-width:0.5;" x1="1514.5" x2="1781.231" y1="646.4416" y2="646.4416"/></g><!--class sco_data_ref--><g id="elem_sco_data_ref"><rect codeLine="44" fill="#F1F1F1" height="143.3396" id="sco_data_ref" rx="2.5" ry="2.5" style="stroke:#181818;stroke-width:0.5;" width="268.731" x="1817.5" y="511.102"/><ellipse cx="1906.5187" cy="527.102" fill="#ADD1B2" rx="11" ry="11" style="stroke:#181818;stroke-width:1.0;"/><path d="M1909.4874,532.7426 Q1908.9093,533.0395 1908.2687,533.1801 Q1907.6281,533.3364 1906.9249,533.3364 Q1904.4249,533.3364 1903.0968,531.6957 Q1901.7843,530.0395 1901.7843,526.9145 Q1901.7843,523.7895 1903.0968,522.1332 Q1904.4249,520.477 1906.9249,520.477 Q1907.6281,520.477 1908.2687,520.6332 Q1908.9249,520.7895 1909.4874,521.0864 L1909.4874,523.8051 Q1908.8624,523.227 1908.2687,522.9614 Q1907.6749,522.6801 1907.0499,522.6801 Q1905.7062,522.6801 1905.0187,523.7582 Q1904.3312,524.8207 1904.3312,526.9145 Q1904.3312,529.0082 1905.0187,530.0864 Q1905.7062,531.1489 1907.0499,531.1489 Q1907.6749,531.1489 1908.2687,530.8832 Q1908.8624,530.602 1909.4874,530.0239 L1909.4874,532.7426 Z " fill="#000000"/><text fill="#000000" font-family="sans-serif" font-size="14" lengthAdjust="spacing" textLength="82.1937" x="1927.0187" y="532.534">sco_data_ref</text><line style="stroke:#181818;stroke-width:0.5;" x1="1818.5" x2="2085.231" y1="543.102" y2="543.102"/><ellipse cx="1828.5" cy="558.1359" fill="none" rx="3" ry="3" style="stroke:#038048;stroke-width:1.0;"/><text fill="#000000" font-family="sans-serif" font-size="14" lengthAdjust="spacing" textLength="227.6951" x="1837.5" y="562.0679">analysis_export: uvm_analysis_imp</text><ellipse cx="1828.5" cy="577.2039" fill="none" rx="3" ry="3" style="stroke:#038048;stroke-width:1.0;"/><text fill="#000000" font-family="sans-serif" font-size="14" lengthAdjust="spacing" textLength="172.9693" x="1837.5" y="581.1358">get_ap: uvm_analysis_port</text><ellipse cx="1828.5" cy="596.2718" fill="none" rx="3" ry="3" style="stroke:#038048;stroke-width:1.0;"/><text fill="#000000" font-family="sans-serif" font-size="14" lengthAdjust="spacing" textLength="242.731" x="1837.5" y="600.2038">get_peek_export: uvm_get_peek_imp</text><ellipse cx="1828.5" cy="615.3397" fill="none" rx="3" ry="3" style="stroke:#038048;stroke-width:1.0;"/><text fill="#000000" font-family="sans-serif" font-size="14" lengthAdjust="spacing" textLength="173.7253" x="1837.5" y="619.2717">put_ap: uvm_analysis_port</text><ellipse cx="1828.5" cy="634.4076" fill="none" rx="3" ry="3" style="stroke:#038048;stroke-width:1.0;"/><text fill="#000000" font-family="sans-serif" font-size="14" lengthAdjust="spacing" textLength="168.0554" x="1837.5" y="638.3396">put_export: uvm_put_imp</text><line style="stroke:#181818;stroke-width:0.5;" x1="1818.5" x2="2085.231" y1="646.4416" y2="646.4416"/></g><!--class rsp_port--><g id="elem_rsp_port"><rect fill="#F1F1F1" height="48" id="rsp_port" rx="2.5" ry="2.5" style="stroke:#181818;stroke-width:0.5;" width="87.2298" x="22.5" y="723.602"/><ellipse cx="37.5" cy="739.602" fill="#ADD1B2" rx="11" ry="11" style="stroke:#181818;stroke-width:1.0;"/><path d="M40.4688,745.2426 Q39.8906,745.5395 39.25,745.6801 Q38.6094,745.8364 37.9063,745.8364 Q35.4063,745.8364 34.0781,744.1957 Q32.7656,742.5395 32.7656,739.4145 Q32.7656,736.2895 34.0781,734.6332 Q35.4063,732.977 37.9063,732.977 Q38.6094,732.977 39.25,733.1332 Q39.9063,733.2895 40.4688,733.5864 L40.4688,736.3051 Q39.8438,735.727 39.25,735.4614 Q38.6563,735.1801 38.0313,735.1801 Q36.6875,735.1801 36,736.2582 Q35.3125,737.3207 35.3125,739.4145 Q35.3125,741.5082 36,742.5864 Q36.6875,743.6489 38.0313,743.6489 Q38.6563,743.6489 39.25,743.3832 Q39.8438,743.102 40.4688,742.5239 L40.4688,745.2426 Z " fill="#000000"/><text fill="#000000" font-family="sans-serif" font-size="14" lengthAdjust="spacing" textLength="55.2298" x="51.5" y="745.034">rsp_port</text><line style="stroke:#181818;stroke-width:0.5;" x1="23.5" x2="108.7298" y1="755.602" y2="755.602"/><line style="stroke:#181818;stroke-width:0.5;" x1="23.5" x2="108.7298" y1="763.602" y2="763.602"/></g><!--class seq_item_port--><g id="elem_seq_item_port"><rect fill="#F1F1F1" height="48" id="seq_item_port" rx="2.5" ry="2.5" style="stroke:#181818;stroke-width:0.5;" width="125.2117" x="144.5" y="723.602"/><ellipse cx="159.5" cy="739.602" fill="#ADD1B2" rx="11" ry="11" style="stroke:#181818;stroke-width:1.0;"/><path d="M162.4688,745.2426 Q161.8906,745.5395 161.25,745.6801 Q160.6094,745.8364 159.9063,745.8364 Q157.4063,745.8364 156.0781,744.1957 Q154.7656,742.5395 154.7656,739.4145 Q154.7656,736.2895 156.0781,734.6332 Q157.4063,732.977 159.9063,732.977 Q160.6094,732.977 161.25,733.1332 Q161.9063,733.2895 162.4688,733.5864 L162.4688,736.3051 Q161.8438,735.727 161.25,735.4614 Q160.6563,735.1801 160.0313,735.1801 Q158.6875,735.1801 158,736.2582 Q157.3125,737.3207 157.3125,739.4145 Q157.3125,741.5082 158,742.5864 Q158.6875,743.6489 160.0313,743.6489 Q160.6563,743.6489 161.25,743.3832 Q161.8438,743.102 162.4688,742.5239 L162.4688,745.2426 Z " fill="#000000"/><text fill="#000000" font-family="sans-serif" font-size="14" lengthAdjust="spacing" textLength="93.2117" x="173.5" y="745.034">seq_item_port</text><line style="stroke:#181818;stroke-width:0.5;" x1="145.5" x2="268.7117" y1="755.602" y2="755.602"/><line style="stroke:#181818;stroke-width:0.5;" x1="145.5" x2="268.7117" y1="763.602" y2="763.602"/></g><!--class send--><g id="elem_send"><rect fill="#F1F1F1" height="48" id="send" rx="2.5" ry="2.5" style="stroke:#181818;stroke-width:0.5;" width="63.8639" x="305" y="723.602"/><ellipse cx="320" cy="739.602" fill="#ADD1B2" rx="11" ry="11" style="stroke:#181818;stroke-width:1.0;"/><path d="M322.9688,745.2426 Q322.3906,745.5395 321.75,745.6801 Q321.1094,745.8364 320.4063,745.8364 Q317.9063,745.8364 316.5781,744.1957 Q315.2656,742.5395 315.2656,739.4145 Q315.2656,736.2895 316.5781,734.6332 Q317.9063,732.977 320.4063,732.977 Q321.1094,732.977 321.75,733.1332 Q322.4063,733.2895 322.9688,733.5864 L322.9688,736.3051 Q322.3438,735.727 321.75,735.4614 Q321.1563,735.1801 320.5313,735.1801 Q319.1875,735.1801 318.5,736.2582 Q317.8125,737.3207 317.8125,739.4145 Q317.8125,741.5082 318.5,742.5864 Q319.1875,743.6489 320.5313,743.6489 Q321.1563,743.6489 321.75,743.3832 Q322.3438,743.102 322.9688,742.5239 L322.9688,745.2426 Z " fill="#000000"/><text fill="#000000" font-family="sans-serif" font-size="14" lengthAdjust="spacing" textLength="31.8639" x="334" y="745.034">send</text><line style="stroke:#181818;stroke-width:0.5;" x1="306" x2="367.8639" y1="755.602" y2="755.602"/><line style="stroke:#181818;stroke-width:0.5;" x1="306" x2="367.8639" y1="763.602" y2="763.602"/></g><!--class send_ref--><g id="elem_send_ref"><rect fill="#F1F1F1" height="48" id="send_ref" rx="2.5" ry="2.5" style="stroke:#181818;stroke-width:0.5;" width="88.5738" x="404.5" y="723.602"/><ellipse cx="419.5" cy="739.602" fill="#ADD1B2" rx="11" ry="11" style="stroke:#181818;stroke-width:1.0;"/><path d="M422.4688,745.2426 Q421.8906,745.5395 421.25,745.6801 Q420.6094,745.8364 419.9063,745.8364 Q417.4063,745.8364 416.0781,744.1957 Q414.7656,742.5395 414.7656,739.4145 Q414.7656,736.2895 416.0781,734.6332 Q417.4063,732.977 419.9063,732.977 Q420.6094,732.977 421.25,733.1332 Q421.9063,733.2895 422.4688,733.5864 L422.4688,736.3051 Q421.8438,735.727 421.25,735.4614 Q420.6563,735.1801 420.0313,735.1801 Q418.6875,735.1801 418,736.2582 Q417.3125,737.3207 417.3125,739.4145 Q417.3125,741.5082 418,742.5864 Q418.6875,743.6489 420.0313,743.6489 Q420.6563,743.6489 421.25,743.3832 Q421.8438,743.102 422.4688,742.5239 L422.4688,745.2426 Z " fill="#000000"/><text fill="#000000" font-family="sans-serif" font-size="14" lengthAdjust="spacing" textLength="56.5738" x="433.5" y="745.034">send_ref</text><line style="stroke:#181818;stroke-width:0.5;" x1="405.5" x2="492.0738" y1="755.602" y2="755.602"/><line style="stroke:#181818;stroke-width:0.5;" x1="405.5" x2="492.0738" y1="763.602" y2="763.602"/></g><!--class rsp_export--><g id="elem_rsp_export"><rect fill="#F1F1F1" height="48" id="rsp_export" rx="2.5" ry="2.5" style="stroke:#181818;stroke-width:0.5;" width="102.5318" x="528.5" y="723.602"/><ellipse cx="543.5" cy="739.602" fill="#ADD1B2" rx="11" ry="11" style="stroke:#181818;stroke-width:1.0;"/><path d="M546.4688,745.2426 Q545.8906,745.5395 545.25,745.6801 Q544.6094,745.8364 543.9063,745.8364 Q541.4063,745.8364 540.0781,744.1957 Q538.7656,742.5395 538.7656,739.4145 Q538.7656,736.2895 540.0781,734.6332 Q541.4063,732.977 543.9063,732.977 Q544.6094,732.977 545.25,733.1332 Q545.9063,733.2895 546.4688,733.5864 L546.4688,736.3051 Q545.8438,735.727 545.25,735.4614 Q544.6563,735.1801 544.0313,735.1801 Q542.6875,735.1801 542,736.2582 Q541.3125,737.3207 541.3125,739.4145 Q541.3125,741.5082 542,742.5864 Q542.6875,743.6489 544.0313,743.6489 Q544.6563,743.6489 545.25,743.3832 Q545.8438,743.102 546.4688,742.5239 L546.4688,745.2426 Z " fill="#000000"/><text fill="#000000" font-family="sans-serif" font-size="14" lengthAdjust="spacing" textLength="70.5318" x="557.5" y="745.034">rsp_export</text><line style="stroke:#181818;stroke-width:0.5;" x1="529.5" x2="630.0318" y1="755.602" y2="755.602"/><line style="stroke:#181818;stroke-width:0.5;" x1="529.5" x2="630.0318" y1="763.602" y2="763.602"/></g><!--class seq_item_export--><g id="elem_seq_item_export"><rect fill="#F1F1F1" height="48" id="seq_item_export" rx="2.5" ry="2.5" style="stroke:#181818;stroke-width:0.5;" width="140.5136" x="666.5" y="723.602"/><ellipse cx="681.5" cy="739.602" fill="#ADD1B2" rx="11" ry="11" style="stroke:#181818;stroke-width:1.0;"/><path d="M684.4688,745.2426 Q683.8906,745.5395 683.25,745.6801 Q682.6094,745.8364 681.9063,745.8364 Q679.4063,745.8364 678.0781,744.1957 Q676.7656,742.5395 676.7656,739.4145 Q676.7656,736.2895 678.0781,734.6332 Q679.4063,732.977 681.9063,732.977 Q682.6094,732.977 683.25,733.1332 Q683.9063,733.2895 684.4688,733.5864 L684.4688,736.3051 Q683.8438,735.727 683.25,735.4614 Q682.6563,735.1801 682.0313,735.1801 Q680.6875,735.1801 680,736.2582 Q679.3125,737.3207 679.3125,739.4145 Q679.3125,741.5082 680,742.5864 Q680.6875,743.6489 682.0313,743.6489 Q682.6563,743.6489 683.25,743.3832 Q683.8438,743.102 684.4688,742.5239 L684.4688,745.2426 Z " fill="#000000"/><text fill="#000000" font-family="sans-serif" font-size="14" lengthAdjust="spacing" textLength="108.5136" x="695.5" y="745.034">seq_item_export</text><line style="stroke:#181818;stroke-width:0.5;" x1="667.5" x2="806.0136" y1="755.602" y2="755.602"/><line style="stroke:#181818;stroke-width:0.5;" x1="667.5" x2="806.0136" y1="763.602" y2="763.602"/></g><!--class arbitration_queue--><g id="elem_arbitration_queue"><rect fill="#F1F1F1" height="48" id="arbitration_queue" rx="2.5" ry="2.5" style="stroke:#181818;stroke-width:0.5;" width="150.2576" x="843" y="723.602"/><ellipse cx="858" cy="739.602" fill="#ADD1B2" rx="11" ry="11" style="stroke:#181818;stroke-width:1.0;"/><path d="M860.9688,745.2426 Q860.3906,745.5395 859.75,745.6801 Q859.1094,745.8364 858.4063,745.8364 Q855.9063,745.8364 854.5781,744.1957 Q853.2656,742.5395 853.2656,739.4145 Q853.2656,736.2895 854.5781,734.6332 Q855.9063,732.977 858.4063,732.977 Q859.1094,732.977 859.75,733.1332 Q860.4063,733.2895 860.9688,733.5864 L860.9688,736.3051 Q860.3438,735.727 859.75,735.4614 Q859.1563,735.1801 858.5313,735.1801 Q857.1875,735.1801 856.5,736.2582 Q855.8125,737.3207 855.8125,739.4145 Q855.8125,741.5082 856.5,742.5864 Q857.1875,743.6489 858.5313,743.6489 Q859.1563,743.6489 859.75,743.3832 Q860.3438,743.102 860.9688,742.5239 L860.9688,745.2426 Z " fill="#000000"/><text fill="#000000" font-family="sans-serif" font-size="14" lengthAdjust="spacing" textLength="118.2576" x="872" y="745.034">arbitration_queue</text><line style="stroke:#181818;stroke-width:0.5;" x1="844" x2="992.2576" y1="755.602" y2="755.602"/><line style="stroke:#181818;stroke-width:0.5;" x1="844" x2="992.2576" y1="763.602" y2="763.602"/></g><!--class lock_queue--><g id="elem_lock_queue"><rect fill="#F1F1F1" height="48" id="lock_queue" rx="2.5" ry="2.5" style="stroke:#181818;stroke-width:0.5;" width="106.1997" x="1028" y="723.602"/><ellipse cx="1043" cy="739.602" fill="#ADD1B2" rx="11" ry="11" style="stroke:#181818;stroke-width:1.0;"/><path d="M1045.9688,745.2426 Q1045.3906,745.5395 1044.75,745.6801 Q1044.1094,745.8364 1043.4063,745.8364 Q1040.9063,745.8364 1039.5781,744.1957 Q1038.2656,742.5395 1038.2656,739.4145 Q1038.2656,736.2895 1039.5781,734.6332 Q1040.9063,732.977 1043.4063,732.977 Q1044.1094,732.977 1044.75,733.1332 Q1045.4063,733.2895 1045.9688,733.5864 L1045.9688,736.3051 Q1045.3438,735.727 1044.75,735.4614 Q1044.1563,735.1801 1043.5313,735.1801 Q1042.1875,735.1801 1041.5,736.2582 Q1040.8125,737.3207 1040.8125,739.4145 Q1040.8125,741.5082 1041.5,742.5864 Q1042.1875,743.6489 1043.5313,743.6489 Q1044.1563,743.6489 1044.75,743.3832 Q1045.3438,743.102 1045.9688,742.5239 L1045.9688,745.2426 Z " fill="#000000"/><text fill="#000000" font-family="sans-serif" font-size="14" lengthAdjust="spacing" textLength="74.1997" x="1057" y="745.034">lock_queue</text><line style="stroke:#181818;stroke-width:0.5;" x1="1029" x2="1133.1997" y1="755.602" y2="755.602"/><line style="stroke:#181818;stroke-width:0.5;" x1="1029" x2="1133.1997" y1="763.602" y2="763.602"/></g><!--class num_last_reqs--><g id="elem_num_last_reqs"><rect fill="#F1F1F1" height="48" id="num_last_reqs" rx="2.5" ry="2.5" style="stroke:#181818;stroke-width:0.5;" width="127.0456" x="1169.5" y="723.602"/><ellipse cx="1184.5" cy="739.602" fill="#ADD1B2" rx="11" ry="11" style="stroke:#181818;stroke-width:1.0;"/><path d="M1187.4688,745.2426 Q1186.8906,745.5395 1186.25,745.6801 Q1185.6094,745.8364 1184.9063,745.8364 Q1182.4063,745.8364 1181.0781,744.1957 Q1179.7656,742.5395 1179.7656,739.4145 Q1179.7656,736.2895 1181.0781,734.6332 Q1182.4063,732.977 1184.9063,732.977 Q1185.6094,732.977 1186.25,733.1332 Q1186.9063,733.2895 1187.4688,733.5864 L1187.4688,736.3051 Q1186.8438,735.727 1186.25,735.4614 Q1185.6563,735.1801 1185.0313,735.1801 Q1183.6875,735.1801 1183,736.2582 Q1182.3125,737.3207 1182.3125,739.4145 Q1182.3125,741.5082 1183,742.5864 Q1183.6875,743.6489 1185.0313,743.6489 Q1185.6563,743.6489 1186.25,743.3832 Q1186.8438,743.102 1187.4688,742.5239 L1187.4688,745.2426 Z " fill="#000000"/><text fill="#000000" font-family="sans-serif" font-size="14" lengthAdjust="spacing" textLength="95.0456" x="1198.5" y="745.034">num_last_reqs</text><line style="stroke:#181818;stroke-width:0.5;" x1="1170.5" x2="1295.5456" y1="755.602" y2="755.602"/><line style="stroke:#181818;stroke-width:0.5;" x1="1170.5" x2="1295.5456" y1="763.602" y2="763.602"/></g><!--class num_last_rsps--><g id="elem_num_last_rsps"><rect fill="#F1F1F1" height="48" id="num_last_rsps" rx="2.5" ry="2.5" style="stroke:#181818;stroke-width:0.5;" width="125.8557" x="1332" y="723.602"/><ellipse cx="1347" cy="739.602" fill="#ADD1B2" rx="11" ry="11" style="stroke:#181818;stroke-width:1.0;"/><path d="M1349.9688,745.2426 Q1349.3906,745.5395 1348.75,745.6801 Q1348.1094,745.8364 1347.4063,745.8364 Q1344.9063,745.8364 1343.5781,744.1957 Q1342.2656,742.5395 1342.2656,739.4145 Q1342.2656,736.2895 1343.5781,734.6332 Q1344.9063,732.977 1347.4063,732.977 Q1348.1094,732.977 1348.75,733.1332 Q1349.4063,733.2895 1349.9688,733.5864 L1349.9688,736.3051 Q1349.3438,735.727 1348.75,735.4614 Q1348.1563,735.1801 1347.5313,735.1801 Q1346.1875,735.1801 1345.5,736.2582 Q1344.8125,737.3207 1344.8125,739.4145 Q1344.8125,741.5082 1345.5,742.5864 Q1346.1875,743.6489 1347.5313,743.6489 Q1348.1563,743.6489 1348.75,743.3832 Q1349.3438,743.102 1349.9688,742.5239 L1349.9688,745.2426 Z " fill="#000000"/><text fill="#000000" font-family="sans-serif" font-size="14" lengthAdjust="spacing" textLength="93.8557" x="1361" y="745.034">num_last_rsps</text><line style="stroke:#181818;stroke-width:0.5;" x1="1333" x2="1456.8557" y1="755.602" y2="755.602"/><line style="stroke:#181818;stroke-width:0.5;" x1="1333" x2="1456.8557" y1="763.602" y2="763.602"/></g><!--class analysis_export--><g id="elem_analysis_export"><rect fill="#F1F1F1" height="48" id="analysis_export" rx="2.5" ry="2.5" style="stroke:#181818;stroke-width:0.5;" width="133.5696" x="1745" y="723.602"/><ellipse cx="1760" cy="739.602" fill="#ADD1B2" rx="11" ry="11" style="stroke:#181818;stroke-width:1.0;"/><path d="M1762.9688,745.2426 Q1762.3906,745.5395 1761.75,745.6801 Q1761.1094,745.8364 1760.4063,745.8364 Q1757.9063,745.8364 1756.5781,744.1957 Q1755.2656,742.5395 1755.2656,739.4145 Q1755.2656,736.2895 1756.5781,734.6332 Q1757.9063,732.977 1760.4063,732.977 Q1761.1094,732.977 1761.75,733.1332 Q1762.4063,733.2895 1762.9688,733.5864 L1762.9688,736.3051 Q1762.3438,735.727 1761.75,735.4614 Q1761.1563,735.1801 1760.5313,735.1801 Q1759.1875,735.1801 1758.5,736.2582 Q1757.8125,737.3207 1757.8125,739.4145 Q1757.8125,741.5082 1758.5,742.5864 Q1759.1875,743.6489 1760.5313,743.6489 Q1761.1563,743.6489 1761.75,743.3832 Q1762.3438,743.102 1762.9688,742.5239 L1762.9688,745.2426 Z " fill="#000000"/><text fill="#000000" font-family="sans-serif" font-size="14" lengthAdjust="spacing" textLength="101.5696" x="1774" y="745.034">analysis_export</text><line style="stroke:#181818;stroke-width:0.5;" x1="1746" x2="1877.5696" y1="755.602" y2="755.602"/><line style="stroke:#181818;stroke-width:0.5;" x1="1746" x2="1877.5696" y1="763.602" y2="763.602"/></g><!--class get_ap--><g id="elem_get_ap"><rect fill="#F1F1F1" height="48" id="get_ap" rx="2.5" ry="2.5" style="stroke:#181818;stroke-width:0.5;" width="76.2398" x="1914" y="723.602"/><ellipse cx="1929" cy="739.602" fill="#ADD1B2" rx="11" ry="11" style="stroke:#181818;stroke-width:1.0;"/><path d="M1931.9688,745.2426 Q1931.3906,745.5395 1930.75,745.6801 Q1930.1094,745.8364 1929.4063,745.8364 Q1926.9063,745.8364 1925.5781,744.1957 Q1924.2656,742.5395 1924.2656,739.4145 Q1924.2656,736.2895 1925.5781,734.6332 Q1926.9063,732.977 1929.4063,732.977 Q1930.1094,732.977 1930.75,733.1332 Q1931.4063,733.2895 1931.9688,733.5864 L1931.9688,736.3051 Q1931.3438,735.727 1930.75,735.4614 Q1930.1563,735.1801 1929.5313,735.1801 Q1928.1875,735.1801 1927.5,736.2582 Q1926.8125,737.3207 1926.8125,739.4145 Q1926.8125,741.5082 1927.5,742.5864 Q1928.1875,743.6489 1929.5313,743.6489 Q1930.1563,743.6489 1930.75,743.3832 Q1931.3438,743.102 1931.9688,742.5239 L1931.9688,745.2426 Z " fill="#000000"/><text fill="#000000" font-family="sans-serif" font-size="14" lengthAdjust="spacing" textLength="44.2398" x="1943" y="745.034">get_ap</text><line style="stroke:#181818;stroke-width:0.5;" x1="1915" x2="1989.2398" y1="755.602" y2="755.602"/><line style="stroke:#181818;stroke-width:0.5;" x1="1915" x2="1989.2398" y1="763.602" y2="763.602"/></g><!--class get_peek_export--><g id="elem_get_peek_export"><rect fill="#F1F1F1" height="48" id="get_peek_export" rx="2.5" ry="2.5" style="stroke:#181818;stroke-width:0.5;" width="141.0876" x="2025.5" y="723.602"/><ellipse cx="2040.5" cy="739.602" fill="#ADD1B2" rx="11" ry="11" style="stroke:#181818;stroke-width:1.0;"/><path d="M2043.4688,745.2426 Q2042.8906,745.5395 2042.25,745.6801 Q2041.6094,745.8364 2040.9063,745.8364 Q2038.4063,745.8364 2037.0781,744.1957 Q2035.7656,742.5395 2035.7656,739.4145 Q2035.7656,736.2895 2037.0781,734.6332 Q2038.4063,732.977 2040.9063,732.977 Q2041.6094,732.977 2042.25,733.1332 Q2042.9063,733.2895 2043.4688,733.5864 L2043.4688,736.3051 Q2042.8438,735.727 2042.25,735.4614 Q2041.6563,735.1801 2041.0313,735.1801 Q2039.6875,735.1801 2039,736.2582 Q2038.3125,737.3207 2038.3125,739.4145 Q2038.3125,741.5082 2039,742.5864 Q2039.6875,743.6489 2041.0313,743.6489 Q2041.6563,743.6489 2042.25,743.3832 Q2042.8438,743.102 2043.4688,742.5239 L2043.4688,745.2426 Z " fill="#000000"/><text fill="#000000" font-family="sans-serif" font-size="14" lengthAdjust="spacing" textLength="109.0876" x="2054.5" y="745.034">get_peek_export</text><line style="stroke:#181818;stroke-width:0.5;" x1="2026.5" x2="2165.5876" y1="755.602" y2="755.602"/><line style="stroke:#181818;stroke-width:0.5;" x1="2026.5" x2="2165.5876" y1="763.602" y2="763.602"/></g><!--class put_ap--><g id="elem_put_ap"><rect fill="#F1F1F1" height="48" id="put_ap" rx="2.5" ry="2.5" style="stroke:#181818;stroke-width:0.5;" width="76.9958" x="1493.5" y="723.602"/><ellipse cx="1508.5" cy="739.602" fill="#ADD1B2" rx="11" ry="11" style="stroke:#181818;stroke-width:1.0;"/><path d="M1511.4688,745.2426 Q1510.8906,745.5395 1510.25,745.6801 Q1509.6094,745.8364 1508.9063,745.8364 Q1506.4063,745.8364 1505.0781,744.1957 Q1503.7656,742.5395 1503.7656,739.4145 Q1503.7656,736.2895 1505.0781,734.6332 Q1506.4063,732.977 1508.9063,732.977 Q1509.6094,732.977 1510.25,733.1332 Q1510.9063,733.2895 1511.4688,733.5864 L1511.4688,736.3051 Q1510.8438,735.727 1510.25,735.4614 Q1509.6563,735.1801 1509.0313,735.1801 Q1507.6875,735.1801 1507,736.2582 Q1506.3125,737.3207 1506.3125,739.4145 Q1506.3125,741.5082 1507,742.5864 Q1507.6875,743.6489 1509.0313,743.6489 Q1509.6563,743.6489 1510.25,743.3832 Q1510.8438,743.102 1511.4688,742.5239 L1511.4688,745.2426 Z " fill="#000000"/><text fill="#000000" font-family="sans-serif" font-size="14" lengthAdjust="spacing" textLength="44.9958" x="1522.5" y="745.034">put_ap</text><line style="stroke:#181818;stroke-width:0.5;" x1="1494.5" x2="1569.4958" y1="755.602" y2="755.602"/><line style="stroke:#181818;stroke-width:0.5;" x1="1494.5" x2="1569.4958" y1="763.602" y2="763.602"/></g><!--class put_export--><g id="elem_put_export"><rect fill="#F1F1F1" height="48" id="put_export" rx="2.5" ry="2.5" style="stroke:#181818;stroke-width:0.5;" width="103.7497" x="1606" y="723.602"/><ellipse cx="1621" cy="739.602" fill="#ADD1B2" rx="11" ry="11" style="stroke:#181818;stroke-width:1.0;"/><path d="M1623.9688,745.2426 Q1623.3906,745.5395 1622.75,745.6801 Q1622.1094,745.8364 1621.4063,745.8364 Q1618.9063,745.8364 1617.5781,744.1957 Q1616.2656,742.5395 1616.2656,739.4145 Q1616.2656,736.2895 1617.5781,734.6332 Q1618.9063,732.977 1621.4063,732.977 Q1622.1094,732.977 1622.75,733.1332 Q1623.4063,733.2895 1623.9688,733.5864 L1623.9688,736.3051 Q1623.3438,735.727 1622.75,735.4614 Q1622.1563,735.1801 1621.5313,735.1801 Q1620.1875,735.1801 1619.5,736.2582 Q1618.8125,737.3207 1618.8125,739.4145 Q1618.8125,741.5082 1619.5,742.5864 Q1620.1875,743.6489 1621.5313,743.6489 Q1622.1563,743.6489 1622.75,743.3832 Q1623.3438,743.102 1623.9688,742.5239 L1623.9688,745.2426 Z " fill="#000000"/><text fill="#000000" font-family="sans-serif" font-size="14" lengthAdjust="spacing" textLength="71.7497" x="1635" y="745.034">put_export</text><line style="stroke:#181818;stroke-width:0.5;" x1="1607" x2="1708.7497" y1="755.602" y2="755.602"/><line style="stroke:#181818;stroke-width:0.5;" x1="1607" x2="1708.7497" y1="763.602" y2="763.602"/></g><!--link uvm_test_top to env--><g id="link_uvm_test_top_env"><path codeLine="52" d="M1159,111.662 C1159,129.622 1159,134.122 1159,153.422 " fill="none" id="uvm_test_top-to-env" style="stroke:#181818;stroke-width:1.0;"/><polygon fill="none" points="1159,171.422,1165,153.422,1153,153.422,1159,171.422" style="stroke:#181818;stroke-width:1.0;"/></g><!--link env to agent--><g id="link_env_agent"><path codeLine="53" d="M1130.65,225.072 C1046.54,253.162 815.5528,330.3193 723.2228,361.1593 " fill="none" id="env-to-agent" style="stroke:#181818;stroke-width:1.0;"/><polygon fill="none" points="706.15,366.862,725.1237,366.8503,721.3219,355.4684,706.15,366.862" style="stroke:#181818;stroke-width:1.0;"/></g><!--link env to sco--><g id="link_env_sco"><path codeLine="54" d="M1187.05,224.952 C1267.61,251.802 1483.3037,323.6999 1583.8037,357.1999 " fill="none" id="env-to-sco" style="stroke:#181818;stroke-width:1.0;"/><polygon fill="none" points="1600.88,362.892,1585.7011,351.5078,1581.9063,362.892,1600.88,362.892" style="stroke:#181818;stroke-width:1.0;"/></g><!--link agent to d--><g id="link_agent_d"><path codeLine="55" d="M635.94,391.312 C572.98,410.892 436.97,454.782 326,501.602 C299.11,512.942 286.4784,518.5995 260.8484,531.4595 " fill="none" id="agent-to-d" style="stroke:#181818;stroke-width:1.0;"/><polygon fill="none" points="244.76,539.532,263.5392,536.8223,258.1576,526.0968,244.76,539.532" style="stroke:#181818;stroke-width:1.0;"/></g><!--link agent to m--><g id="link_agent_m"><path codeLine="56" d="M635.97,410.692 C592.75,447.822 533.1856,498.9849 488.6456,537.2349 " fill="none" id="agent-to-m" style="stroke:#181818;stroke-width:1.0;"/><polygon fill="none" points="474.99,548.962,492.5546,541.7867,484.7365,532.683,474.99,548.962" style="stroke:#181818;stroke-width:1.0;"/></g><!--link agent to mref--><g id="link_agent_mref"><path codeLine="57" d="M671,441.732 C671,477.072 671,502.132 671,531.062 " fill="none" id="agent-to-mref" style="stroke:#181818;stroke-width:1.0;"/><polygon fill="none" points="671,549.062,677,531.062,665,531.062,671,549.062" style="stroke:#181818;stroke-width:1.0;"/></g><!--link agent to seqr--><g id="link_agent_seqr"><path codeLine="58" d="M706.27,405.052 C740.91,429.062 780.8848,456.77 830.7748,491.34 " fill="none" id="agent-to-seqr" style="stroke:#181818;stroke-width:1.0;"/><polygon fill="none" points="845.57,501.592,834.1921,486.4083,827.3575,496.2718,845.57,501.592" style="stroke:#181818;stroke-width:1.0;"/></g><!--link d to rsp_port--><g id="link_d_rsp_port"><path codeLine="59" d="M139.25,626.002 C120.34,657.132 104.724,682.8473 89.364,708.1373 " fill="none" id="d-to-rsp_port" style="stroke:#181818;stroke-width:1.0;"/><polygon fill="none" points="80.02,723.522,94.4922,711.2519,84.2357,705.0226,80.02,723.522" style="stroke:#181818;stroke-width:1.0;"/></g><!--link d to seq_item_port--><g id="link_d_seq_item_port"><path codeLine="60" d="M175.93,626.002 C183.95,657.132 190.0528,680.8002 196.5628,706.0902 " fill="none" id="d-to-seq_item_port" style="stroke:#181818;stroke-width:1.0;"/><polygon fill="none" points="201.05,723.522,202.3734,704.5945,190.7523,707.586,201.05,723.522" style="stroke:#181818;stroke-width:1.0;"/></g><!--link m to send--><g id="link_m_send"><path codeLine="61" d="M417,616.192 C397.51,647.972 377.7693,680.1371 360.5693,708.1871 " fill="none" id="m-to-send" style="stroke:#181818;stroke-width:1.0;"/><polygon fill="none" points="351.16,723.532,365.6843,711.3236,355.4544,705.0507,351.16,723.532" style="stroke:#181818;stroke-width:1.0;"/></g><!--link mref to send_ref--><g id="link_mref_send_ref"><path codeLine="62" d="M626.61,616.192 C583.33,647.972 533.1386,684.8284 494.9386,712.8784 " fill="none" id="mref-to-send_ref" style="stroke:#181818;stroke-width:1.0;"/><polygon fill="none" points="480.43,723.532,498.4898,717.7146,491.3874,708.0422,480.43,723.532" style="stroke:#181818;stroke-width:1.0;"/></g><!--link seqr to rsp_export--><g id="link_seqr_rsp_export"><path codeLine="63" d="M811.94,655.702 C805.9,658.402 799.9,661.052 794,663.602 C739.32,687.262 692.4102,705.3422 648.7902,721.4922 " fill="none" id="seqr-to-rsp_export" style="stroke:#181818;stroke-width:1.0;"/><polygon fill="none" points="631.91,727.742,650.8734,727.1189,646.7069,715.8655,631.91,727.742" style="stroke:#181818;stroke-width:1.0;"/></g><!--link seqr to seq_item_export--><g id="link_seqr_seq_item_export"><path codeLine="64" d="M850.97,663.672 C820.87,685.572 805.1441,697.0105 783.3641,712.8605 " fill="none" id="seqr-to-seq_item_export" style="stroke:#181818;stroke-width:1.0;"/><polygon fill="none" points="768.81,723.452,786.8946,717.7119,779.8336,708.0092,768.81,723.452" style="stroke:#181818;stroke-width:1.0;"/></g><!--link seqr to arbitration_queue--><g id="link_seqr_arbitration_queue"><path codeLine="65" d="M939.88,663.672 C934.1,685.572 932.8801,690.1971 928.7001,706.0471 " fill="none" id="seqr-to-arbitration_queue" style="stroke:#181818;stroke-width:1.0;"/><polygon fill="none" points="924.11,723.452,934.5017,707.5771,922.8984,704.517,924.11,723.452" style="stroke:#181818;stroke-width:1.0;"/></g><!--link seqr to lock_queue--><g id="link_seqr_lock_queue"><path codeLine="66" d="M1019.95,663.672 C1036.07,685.572 1041.6177,693.1071 1053.2877,708.9571 " fill="none" id="seqr-to-lock_queue" style="stroke:#181818;stroke-width:1.0;"/><polygon fill="none" points="1063.96,723.452,1058.1194,705.3996,1048.4561,712.5145,1063.96,723.452" style="stroke:#181818;stroke-width:1.0;"/></g><!--link seqr to num_last_reqs--><g id="link_seqr_num_last_reqs"><path codeLine="67" d="M1094.61,663.672 C1131.15,685.572 1152.4915,698.3471 1178.9315,714.1971 " fill="none" id="seqr-to-num_last_reqs" style="stroke:#181818;stroke-width:1.0;"/><polygon fill="none" points="1194.37,723.452,1182.0165,709.0509,1175.8466,719.3432,1194.37,723.452" style="stroke:#181818;stroke-width:1.0;"/></g><!--link seqr to num_last_rsps--><g id="link_seqr_num_last_rsps"><path codeLine="68" d="M1110.05,639.582 C1186.58,668.322 1258.7993,695.4532 1316.7093,717.2032 " fill="none" id="seqr-to-num_last_rsps" style="stroke:#181818;stroke-width:1.0;"/><polygon fill="none" points="1333.56,723.532,1318.8189,711.5863,1314.5997,722.82,1333.56,723.532" style="stroke:#181818;stroke-width:1.0;"/></g><!--link sco to sco_data--><g id="link_sco_sco_data"><path codeLine="69" d="M1648,422.742 C1648,448.292 1648,463.552 1648,493.032 " fill="none" id="sco-to-sco_data" style="stroke:#181818;stroke-width:1.0;"/><polygon fill="none" points="1648,511.032,1654,493.032,1642,493.032,1648,511.032" style="stroke:#181818;stroke-width:1.0;"/></g><!--link sco to sco_data_ref--><g id="link_sco_sco_data_ref"><path codeLine="70" d="M1695.17,411.792 C1735.11,438.192 1778.8658,467.1236 1830.1158,501.0136 " fill="none" id="sco-to-sco_data_ref" style="stroke:#181818;stroke-width:1.0;"/><polygon fill="none" points="1845.13,510.942,1833.4253,496.0088,1826.8063,506.0183,1845.13,510.942" style="stroke:#181818;stroke-width:1.0;"/></g><!--link sco_data to analysis_export--><g id="link_sco_data_analysis_export"><path codeLine="71" d="M1718.98,654.152 C1743.91,678.932 1757.4637,692.3926 1775.7137,710.5326 " fill="none" id="sco_data-to-analysis_export" style="stroke:#181818;stroke-width:1.0;"/><polygon fill="none" points="1788.48,723.222,1779.9435,706.2771,1771.4839,714.788,1788.48,723.222" style="stroke:#181818;stroke-width:1.0;"/></g><!--link sco_data to get_ap--><g id="link_sco_data_get_ap"><path codeLine="72" d="M1779.57,654.152 C1828.35,680.302 1864.1261,699.4869 1898.0361,717.6669 " fill="none" id="sco_data-to-get_ap" style="stroke:#181818;stroke-width:1.0;"/><polygon fill="none" points="1913.9,726.172,1900.8711,712.379,1895.2011,722.9549,1913.9,726.172" style="stroke:#181818;stroke-width:1.0;"/></g><!--link sco_data to get_peek_export--><g id="link_sco_data_get_peek_export"><path codeLine="73" d="M1777.75,654.162 C1785.21,657.502 1792.66,660.682 1800,663.602 C1821.07,671.992 1927.3128,701.1482 2007.9828,722.9382 " fill="none" id="sco_data-to-get_peek_export" style="stroke:#181818;stroke-width:1.0;"/><polygon fill="none" points="2025.36,727.632,2009.5474,717.1458,2006.4182,728.7306,2025.36,727.632" style="stroke:#181818;stroke-width:1.0;"/></g><!--link sco_data to put_ap--><g id="link_sco_data_put_ap"><path codeLine="74" d="M1597.8,654.152 C1580.16,678.932 1571.987,690.4168 1559.077,708.5568 " fill="none" id="sco_data-to-put_ap" style="stroke:#181818;stroke-width:1.0;"/><polygon fill="none" points="1548.64,723.222,1563.9654,712.0358,1554.1886,705.0778,1548.64,723.222" style="stroke:#181818;stroke-width:1.0;"/></g><!--link sco_data to put_export--><g id="link_sco_data_put_export"><path codeLine="75" d="M1652.33,654.152 C1653.85,678.932 1654.3408,687.1162 1655.4608,705.2562 " fill="none" id="sco_data-to-put_export" style="stroke:#181818;stroke-width:1.0;"/><polygon fill="none" points="1656.57,723.222,1661.4494,704.8864,1649.4722,705.6259,1656.57,723.222" style="stroke:#181818;stroke-width:1.0;"/></g><!--link sco_data_ref to analysis_export--><g id="link_sco_data_ref_analysis_export"><path codeLine="76" d="M1891.41,654.152 C1870.13,678.932 1859.3879,691.4271 1843.8079,709.5671 " fill="none" id="sco_data_ref-to-analysis_export" style="stroke:#181818;stroke-width:1.0;"/><polygon fill="none" points="1832.08,723.222,1848.3595,713.4764,1839.2562,705.6578,1832.08,723.222" style="stroke:#181818;stroke-width:1.0;"/></g><!--link sco_data_ref to get_ap--><g id="link_sco_data_ref_get_ap"><path codeLine="77" d="M1952,654.152 C1952,678.932 1952,687.082 1952,705.222 " fill="none" id="sco_data_ref-to-get_ap" style="stroke:#181818;stroke-width:1.0;"/><polygon fill="none" points="1952,723.222,1958,705.222,1946,705.222,1952,723.222" style="stroke:#181818;stroke-width:1.0;"/></g><!--link sco_data_ref to get_peek_export--><g id="link_sco_data_ref_get_peek_export"><path codeLine="78" d="M2014.32,654.152 C2036.21,678.932 2047.4007,691.5938 2063.4307,709.7338 " fill="none" id="sco_data_ref-to-get_peek_export" style="stroke:#181818;stroke-width:1.0;"/><polygon fill="none" points="2075.35,723.222,2067.9268,705.7607,2058.9347,713.7069,2075.35,723.222" style="stroke:#181818;stroke-width:1.0;"/></g><!--link sco_data_ref to put_ap--><g id="link_sco_data_ref_put_ap"><path codeLine="79" d="M1822.24,654.132 C1814.78,657.482 1807.34,660.662 1800,663.602 C1709.49,699.832 1681.23,691.982 1589,723.602 C1583.04,725.642 1593.5809,721.4246 1587.5009,723.7946 " fill="none" id="sco_data_ref-to-put_ap" style="stroke:#181818;stroke-width:1.0;"/><polygon fill="none" points="1570.73,730.332,1589.68,729.3849,1585.3218,718.2043,1570.73,730.332" style="stroke:#181818;stroke-width:1.0;"/></g><!--link sco_data_ref to put_export--><g id="link_sco_data_ref_put_export"><path codeLine="80" d="M1824.76,654.152 C1779.91,679.012 1748.3028,696.5347 1715.5628,714.6847 " fill="none" id="sco_data_ref-to-put_export" style="stroke:#181818;stroke-width:1.0;"/><polygon fill="none" points="1699.82,723.412,1718.4719,719.9323,1712.6537,709.4371,1699.82,723.412" style="stroke:#181818;stroke-width:1.0;"/></g><!--SRC=[rLJ9Ri8m4Btp5HRNYX_WKAaNf4f5lT1UBPDCQOGtR0U1MlwzZfDuYqDxRIxOxxtPpCn8KXt90T1ozx95JvpGgsuqsZnlNX5S29CKqDlx5kr0cptmwXFjX1HK7AvBzBL0zgieqHgrPuQDrM0Zv41q7_2pEzyYgSKYXOtDZR_fIapqJX5PrFx4mad1Ht029pNnKaSU7fIMM0fbrYvlCbJje22oRd1ZW4NA0BMK1daSXyLnDF1wBaPYPDFFxR35_cBRLPlN1fT2TJrOg2zMfnKsJ0OzKVl6A68QmV6fXHRMY2X5ha51HNMSeNZBi4tNsAfEUeqQRk2W22q9jCm5IRcLYAgrDrmJGoO07XiYitLa_5pPysHlbZp00GmcycxFT189S4oyUJ3n9jjVlNMIs55t7tsKwi9P6_tVsjnFibDMg-z7lqww5UA0i3qyDAwGVcqugCu1DW76TeamlqRg_ZukZHXBTeGZs4ZmFgeRRG_vjdHJwzr6enc8R3upTZAD6HzcCIEIIPpbx10kXddopnecROA6kiOHwvCix9vKqVVT315rMq7HDzaCKR32_f-ubrPG5L9BoRdqWggGOaeErhSV]--></g></svg>