<svg xmlns="http://www.w3.org/2000/svg" xmlns:xlink="http://www.w3.org/1999/xlink" contentStyleType="text/css" height="756px" preserveAspectRatio="none" style="width:1257px;height:756px;background:#FFFFFF;" version="1.1" viewBox="0 0 1257 756" width="1257px" zoomAndPan="magnify"><defs/><g><!--cluster AXI RAM UVM Testbench Topology--><g id="cluster_AXI RAM UVM Testbench Topology"><path d="M8.5,6.602 L249.6971,6.602 A3.75,3.75 0 0 1 252.1971,9.102 L259.1971,31.6699 L1247.5,31.6699 A2.5,2.5 0 0 1 1250,34.1699 L1250,747.102 A2.5,2.5 0 0 1 1247.5,749.602 L8.5,749.602 A2.5,2.5 0 0 1 6,747.102 L6,9.102 A2.5,2.5 0 0 1 8.5,6.602 " fill="none" style="stroke:#000000;stroke-width:1.5;"/><line style="stroke:#000000;stroke-width:1.5;" x1="6" x2="259.1971" y1="31.6699" y2="31.6699"/><text fill="#000000" font-family="sans-serif" font-size="14" font-weight="bold" lengthAdjust="spacing" textLength="240.1971" x="10" y="23.5679">AXI RAM UVM Testbench Topology</text></g><!--class uvm_test_top--><g id="elem_uvm_test_top"><rect codeLine="2" fill="#F1F1F1" height="67.0679" id="uvm_test_top" rx="2.5" ry="2.5" style="stroke:#181818;stroke-width:0.5;" width="120.1297" x="388" y="44.602"/><ellipse cx="403" cy="60.602" fill="#ADD1B2" rx="11" ry="11" style="stroke:#181818;stroke-width:1.0;"/><path d="M405.9688,66.2426 Q405.3906,66.5395 404.75,66.6801 Q404.1094,66.8364 403.4063,66.8364 Q400.9063,66.8364 399.5781,65.1957 Q398.2656,63.5395 398.2656,60.4145 Q398.2656,57.2895 399.5781,55.6332 Q400.9063,53.977 403.4063,53.977 Q404.1094,53.977 404.75,54.1332 Q405.4063,54.2895 405.9688,54.5864 L405.9688,57.3051 Q405.3438,56.727 404.75,56.4614 Q404.1563,56.1801 403.5313,56.1801 Q402.1875,56.1801 401.5,57.2582 Q400.8125,58.3207 400.8125,60.4145 Q400.8125,62.5082 401.5,63.5864 Q402.1875,64.6489 403.5313,64.6489 Q404.1563,64.6489 404.75,64.3832 Q405.3438,64.102 405.9688,63.5239 L405.9688,66.2426 Z " fill="#000000"/><text fill="#000000" font-family="sans-serif" font-size="14" lengthAdjust="spacing" textLength="88.1297" x="417" y="66.034">uvm_test_top</text><line style="stroke:#181818;stroke-width:0.5;" x1="389" x2="507.1297" y1="76.602" y2="76.602"/><text fill="#000000" font-family="sans-serif" font-size="14" lengthAdjust="spacing" textLength="23.6599" x="394" y="95.5679">env</text><line style="stroke:#181818;stroke-width:0.5;" x1="389" x2="507.1297" y1="103.6699" y2="103.6699"/></g><!--class env--><g id="elem_env"><rect codeLine="5" fill="#F1F1F1" height="67.0679" id="env" rx="2.5" ry="2.5" style="stroke:#181818;stroke-width:0.5;" width="55.6599" x="420" y="171.602"/><ellipse cx="435" cy="187.602" fill="#ADD1B2" rx="11" ry="11" style="stroke:#181818;stroke-width:1.0;"/><path d="M437.9688,193.2426 Q437.3906,193.5395 436.75,193.6801 Q436.1094,193.8364 435.4063,193.8364 Q432.9063,193.8364 431.5781,192.1957 Q430.2656,190.5395 430.2656,187.4145 Q430.2656,184.2895 431.5781,182.6332 Q432.9063,180.977 435.4063,180.977 Q436.1094,180.977 436.75,181.1332 Q437.4063,181.2895 437.9688,181.5864 L437.9688,184.3051 Q437.3438,183.727 436.75,183.4614 Q436.1563,183.1801 435.5313,183.1801 Q434.1875,183.1801 433.5,184.2582 Q432.8125,185.3207 432.8125,187.4145 Q432.8125,189.5082 433.5,190.5864 Q434.1875,191.6489 435.5313,191.6489 Q436.1563,191.6489 436.75,191.3832 Q437.3438,191.102 437.9688,190.5239 L437.9688,193.2426 Z " fill="#000000"/><text fill="#000000" font-family="sans-serif" font-size="14" lengthAdjust="spacing" textLength="23.6599" x="449" y="193.034">env</text><line style="stroke:#181818;stroke-width:0.5;" x1="421" x2="474.6599" y1="203.602" y2="203.602"/><text fill="#000000" font-family="sans-serif" font-size="14" lengthAdjust="spacing" textLength="7.854" x="426" y="222.5679">a</text><line style="stroke:#181818;stroke-width:0.5;" x1="421" x2="474.6599" y1="230.6699" y2="230.6699"/></g><!--class a--><g id="elem_a"><rect codeLine="8" fill="#F1F1F1" height="105.2038" id="a" rx="2.5" ry="2.5" style="stroke:#181818;stroke-width:0.5;" width="40.9939" x="427.5" y="298.602"/><ellipse cx="443.013" cy="314.602" fill="#ADD1B2" rx="11" ry="11" style="stroke:#181818;stroke-width:1.0;"/><path d="M445.9817,320.2426 Q445.4036,320.5395 444.763,320.6801 Q444.1223,320.8364 443.4192,320.8364 Q440.9192,320.8364 439.5911,319.1957 Q438.2786,317.5395 438.2786,314.4145 Q438.2786,311.2895 439.5911,309.6332 Q440.9192,307.977 443.4192,307.977 Q444.1223,307.977 444.763,308.1332 Q445.4192,308.2895 445.9817,308.5864 L445.9817,311.3051 Q445.3567,310.727 444.763,310.4614 Q444.1692,310.1801 443.5442,310.1801 Q442.2005,310.1801 441.513,311.2582 Q440.8255,312.3207 440.8255,314.4145 Q440.8255,316.5082 441.513,317.5864 Q442.2005,318.6489 443.5442,318.6489 Q444.1692,318.6489 444.763,318.3832 Q445.3567,318.102 445.9817,317.5239 L445.9817,320.2426 Z " fill="#000000"/><text fill="#000000" font-family="sans-serif" font-size="14" lengthAdjust="spacing" textLength="7.854" x="457.127" y="320.034">a</text><line style="stroke:#181818;stroke-width:0.5;" x1="428.5" x2="467.4939" y1="330.602" y2="330.602"/><text fill="#000000" font-family="sans-serif" font-size="14" lengthAdjust="spacing" textLength="8.61" x="433.5" y="349.5679">d</text><text fill="#000000" font-family="sans-serif" font-size="14" lengthAdjust="spacing" textLength="13.09" x="433.5" y="368.6358">m</text><text fill="#000000" font-family="sans-serif" font-size="14" lengthAdjust="spacing" textLength="28.9939" x="433.5" y="387.7038">seqr</text><line style="stroke:#181818;stroke-width:0.5;" x1="428.5" x2="467.4939" y1="395.8057" y2="395.8057"/></g><!--class d--><g id="elem_d"><rect codeLine="13" fill="#F1F1F1" height="86.1358" id="d" rx="2.5" ry="2.5" style="stroke:#181818;stroke-width:0.5;" width="285.587" x="64" y="501.602"/><ellipse cx="198.2385" cy="517.602" fill="#ADD1B2" rx="11" ry="11" style="stroke:#181818;stroke-width:1.0;"/><path d="M201.2073,523.2426 Q200.6291,523.5395 199.9885,523.6801 Q199.3479,523.8364 198.6448,523.8364 Q196.1448,523.8364 194.8166,522.1957 Q193.5041,520.5395 193.5041,517.4145 Q193.5041,514.2895 194.8166,512.6332 Q196.1448,510.977 198.6448,510.977 Q199.3479,510.977 199.9885,511.1332 Q200.6448,511.2895 201.2073,511.5864 L201.2073,514.3051 Q200.5823,513.727 199.9885,513.4614 Q199.3948,513.1801 198.7698,513.1801 Q197.426,513.1801 196.7385,514.2582 Q196.051,515.3207 196.051,517.4145 Q196.051,519.5082 196.7385,520.5864 Q197.426,521.6489 198.7698,521.6489 Q199.3948,521.6489 199.9885,521.3832 Q200.5823,521.102 201.2073,520.5239 L201.2073,523.2426 Z " fill="#000000"/><text fill="#000000" font-family="sans-serif" font-size="14" lengthAdjust="spacing" textLength="8.61" x="218.7385" y="523.034">d</text><line style="stroke:#181818;stroke-width:0.5;" x1="65" x2="348.587" y1="533.602" y2="533.602"/><ellipse cx="75" cy="548.6359" fill="none" rx="3" ry="3" style="stroke:#038048;stroke-width:1.0;"/><text fill="#000000" font-family="sans-serif" font-size="14" lengthAdjust="spacing" textLength="183.9593" x="84" y="552.5679">rsp_port: uvm_analysis_port</text><ellipse cx="75" cy="567.7039" fill="none" rx="3" ry="3" style="stroke:#038048;stroke-width:1.0;"/><text fill="#000000" font-family="sans-serif" font-size="14" lengthAdjust="spacing" textLength="259.587" x="84" y="571.6358">seq_item_port: uvm_seq_item_pull_port</text><line style="stroke:#181818;stroke-width:0.5;" x1="65" x2="348.587" y1="579.7378" y2="579.7378"/></g><!--class m--><g id="elem_m"><rect codeLine="17" fill="#F1F1F1" height="48" id="m" rx="2.5" ry="2.5" style="stroke:#181818;stroke-width:0.5;" width="45.09" x="425.5" y="520.602"/><ellipse cx="440.5" cy="536.602" fill="#ADD1B2" rx="11" ry="11" style="stroke:#181818;stroke-width:1.0;"/><path d="M443.4688,542.2426 Q442.8906,542.5395 442.25,542.6801 Q441.6094,542.8364 440.9063,542.8364 Q438.4063,542.8364 437.0781,541.1957 Q435.7656,539.5395 435.7656,536.4145 Q435.7656,533.2895 437.0781,531.6332 Q438.4063,529.977 440.9063,529.977 Q441.6094,529.977 442.25,530.1332 Q442.9063,530.2895 443.4688,530.5864 L443.4688,533.3051 Q442.8438,532.727 442.25,532.4614 Q441.6563,532.1801 441.0313,532.1801 Q439.6875,532.1801 439,533.2582 Q438.3125,534.3207 438.3125,536.4145 Q438.3125,538.5082 439,539.5864 Q439.6875,540.6489 441.0313,540.6489 Q441.6563,540.6489 442.25,540.3832 Q442.8438,540.102 443.4688,539.5239 L443.4688,542.2426 Z " fill="#000000"/><text fill="#000000" font-family="sans-serif" font-size="14" lengthAdjust="spacing" textLength="13.09" x="454.5" y="542.034">m</text><line style="stroke:#181818;stroke-width:0.5;" x1="426.5" x2="469.59" y1="552.602" y2="552.602"/><line style="stroke:#181818;stroke-width:0.5;" x1="426.5" x2="469.59" y1="560.602" y2="560.602"/></g><!--class seqr--><g id="elem_seqr"><rect codeLine="18" fill="#F1F1F1" height="162.4075" id="seqr" rx="2.5" ry="2.5" style="stroke:#181818;stroke-width:0.5;" width="298.285" x="545" y="463.602"/><ellipse cx="675.3955" cy="479.602" fill="#ADD1B2" rx="11" ry="11" style="stroke:#181818;stroke-width:1.0;"/><path d="M678.3643,485.2426 Q677.7862,485.5395 677.1455,485.6801 Q676.5049,485.8364 675.8018,485.8364 Q673.3018,485.8364 671.9737,484.1957 Q670.6612,482.5395 670.6612,479.4145 Q670.6612,476.2895 671.9737,474.6332 Q673.3018,472.977 675.8018,472.977 Q676.5049,472.977 677.1455,473.1332 Q677.8018,473.2895 678.3643,473.5864 L678.3643,476.3051 Q677.7393,475.727 677.1455,475.4614 Q676.5518,475.1801 675.9268,475.1801 Q674.583,475.1801 673.8955,476.2582 Q673.208,477.3207 673.208,479.4145 Q673.208,481.5082 673.8955,482.5864 Q674.583,483.6489 675.9268,483.6489 Q676.5518,483.6489 677.1455,483.3832 Q677.7393,483.102 678.3643,482.5239 L678.3643,485.2426 Z " fill="#000000"/><text fill="#000000" font-family="sans-serif" font-size="14" lengthAdjust="spacing" textLength="28.9939" x="695.8955" y="485.034">seqr</text><line style="stroke:#181818;stroke-width:0.5;" x1="546" x2="842.285" y1="495.602" y2="495.602"/><ellipse cx="556" cy="510.6359" fill="none" rx="3" ry="3" style="stroke:#038048;stroke-width:1.0;"/><text fill="#000000" font-family="sans-serif" font-size="14" lengthAdjust="spacing" textLength="214.5632" x="565" y="514.5679">rsp_export: uvm_analysis_export</text><ellipse cx="556" cy="529.7039" fill="none" rx="3" ry="3" style="stroke:#038048;stroke-width:1.0;"/><text fill="#000000" font-family="sans-serif" font-size="14" lengthAdjust="spacing" textLength="272.285" x="565" y="533.6358">seq_item_export: uvm_seq_item_pull_imp</text><ellipse cx="556" cy="548.7718" fill="none" rx="3" ry="3" style="stroke:#038048;stroke-width:1.0;"/><text fill="#000000" font-family="sans-serif" font-size="14" lengthAdjust="spacing" textLength="160.0614" x="565" y="552.7038">arbitration_queue: array</text><ellipse cx="556" cy="567.8397" fill="none" rx="3" ry="3" style="stroke:#038048;stroke-width:1.0;"/><text fill="#000000" font-family="sans-serif" font-size="14" lengthAdjust="spacing" textLength="116.0035" x="565" y="571.7717">lock_queue: array</text><ellipse cx="556" cy="586.9076" fill="none" rx="3" ry="3" style="stroke:#038048;stroke-width:1.0;"/><text fill="#000000" font-family="sans-serif" font-size="14" lengthAdjust="spacing" textLength="153.5094" x="565" y="590.8396">num_last_reqs: integral</text><ellipse cx="556" cy="605.9755" fill="none" rx="3" ry="3" style="stroke:#038048;stroke-width:1.0;"/><text fill="#000000" font-family="sans-serif" font-size="14" lengthAdjust="spacing" textLength="152.3194" x="565" y="609.9075">num_last_rsps: integral</text><line style="stroke:#181818;stroke-width:0.5;" x1="546" x2="842.285" y1="618.0095" y2="618.0095"/></g><!--class rsp_port--><g id="elem_rsp_port"><rect fill="#F1F1F1" height="48" id="rsp_port" rx="2.5" ry="2.5" style="stroke:#181818;stroke-width:0.5;" width="87.2298" x="22.5" y="685.602"/><ellipse cx="37.5" cy="701.602" fill="#ADD1B2" rx="11" ry="11" style="stroke:#181818;stroke-width:1.0;"/><path d="M40.4688,707.2426 Q39.8906,707.5395 39.25,707.6801 Q38.6094,707.8364 37.9063,707.8364 Q35.4063,707.8364 34.0781,706.1957 Q32.7656,704.5395 32.7656,701.4145 Q32.7656,698.2895 34.0781,696.6332 Q35.4063,694.977 37.9063,694.977 Q38.6094,694.977 39.25,695.1332 Q39.9063,695.2895 40.4688,695.5864 L40.4688,698.3051 Q39.8438,697.727 39.25,697.4614 Q38.6563,697.1801 38.0313,697.1801 Q36.6875,697.1801 36,698.2582 Q35.3125,699.3207 35.3125,701.4145 Q35.3125,703.5082 36,704.5864 Q36.6875,705.6489 38.0313,705.6489 Q38.6563,705.6489 39.25,705.3832 Q39.8438,705.102 40.4688,704.5239 L40.4688,707.2426 Z " fill="#000000"/><text fill="#000000" font-family="sans-serif" font-size="14" lengthAdjust="spacing" textLength="55.2298" x="51.5" y="707.034">rsp_port</text><line style="stroke:#181818;stroke-width:0.5;" x1="23.5" x2="108.7298" y1="717.602" y2="717.602"/><line style="stroke:#181818;stroke-width:0.5;" x1="23.5" x2="108.7298" y1="725.602" y2="725.602"/></g><!--class seq_item_port--><g id="elem_seq_item_port"><rect fill="#F1F1F1" height="48" id="seq_item_port" rx="2.5" ry="2.5" style="stroke:#181818;stroke-width:0.5;" width="125.2117" x="144.5" y="685.602"/><ellipse cx="159.5" cy="701.602" fill="#ADD1B2" rx="11" ry="11" style="stroke:#181818;stroke-width:1.0;"/><path d="M162.4688,707.2426 Q161.8906,707.5395 161.25,707.6801 Q160.6094,707.8364 159.9063,707.8364 Q157.4063,707.8364 156.0781,706.1957 Q154.7656,704.5395 154.7656,701.4145 Q154.7656,698.2895 156.0781,696.6332 Q157.4063,694.977 159.9063,694.977 Q160.6094,694.977 161.25,695.1332 Q161.9063,695.2895 162.4688,695.5864 L162.4688,698.3051 Q161.8438,697.727 161.25,697.4614 Q160.6563,697.1801 160.0313,697.1801 Q158.6875,697.1801 158,698.2582 Q157.3125,699.3207 157.3125,701.4145 Q157.3125,703.5082 158,704.5864 Q158.6875,705.6489 160.0313,705.6489 Q160.6563,705.6489 161.25,705.3832 Q161.8438,705.102 162.4688,704.5239 L162.4688,707.2426 Z " fill="#000000"/><text fill="#000000" font-family="sans-serif" font-size="14" lengthAdjust="spacing" textLength="93.2117" x="173.5" y="707.034">seq_item_port</text><line style="stroke:#181818;stroke-width:0.5;" x1="145.5" x2="268.7117" y1="717.602" y2="717.602"/><line style="stroke:#181818;stroke-width:0.5;" x1="145.5" x2="268.7117" y1="725.602" y2="725.602"/></g><!--class rsp_export--><g id="elem_rsp_export"><rect fill="#F1F1F1" height="48" id="rsp_export" rx="2.5" ry="2.5" style="stroke:#181818;stroke-width:0.5;" width="102.5318" x="304.5" y="685.602"/><ellipse cx="319.5" cy="701.602" fill="#ADD1B2" rx="11" ry="11" style="stroke:#181818;stroke-width:1.0;"/><path d="M322.4688,707.2426 Q321.8906,707.5395 321.25,707.6801 Q320.6094,707.8364 319.9063,707.8364 Q317.4063,707.8364 316.0781,706.1957 Q314.7656,704.5395 314.7656,701.4145 Q314.7656,698.2895 316.0781,696.6332 Q317.4063,694.977 319.9063,694.977 Q320.6094,694.977 321.25,695.1332 Q321.9063,695.2895 322.4688,695.5864 L322.4688,698.3051 Q321.8438,697.727 321.25,697.4614 Q320.6563,697.1801 320.0313,697.1801 Q318.6875,697.1801 318,698.2582 Q317.3125,699.3207 317.3125,701.4145 Q317.3125,703.5082 318,704.5864 Q318.6875,705.6489 320.0313,705.6489 Q320.6563,705.6489 321.25,705.3832 Q321.8438,705.102 322.4688,704.5239 L322.4688,707.2426 Z " fill="#000000"/><text fill="#000000" font-family="sans-serif" font-size="14" lengthAdjust="spacing" textLength="70.5318" x="333.5" y="707.034">rsp_export</text><line style="stroke:#181818;stroke-width:0.5;" x1="305.5" x2="406.0318" y1="717.602" y2="717.602"/><line style="stroke:#181818;stroke-width:0.5;" x1="305.5" x2="406.0318" y1="725.602" y2="725.602"/></g><!--class seq_item_export--><g id="elem_seq_item_export"><rect fill="#F1F1F1" height="48" id="seq_item_export" rx="2.5" ry="2.5" style="stroke:#181818;stroke-width:0.5;" width="140.5136" x="442.5" y="685.602"/><ellipse cx="457.5" cy="701.602" fill="#ADD1B2" rx="11" ry="11" style="stroke:#181818;stroke-width:1.0;"/><path d="M460.4688,707.2426 Q459.8906,707.5395 459.25,707.6801 Q458.6094,707.8364 457.9063,707.8364 Q455.4063,707.8364 454.0781,706.1957 Q452.7656,704.5395 452.7656,701.4145 Q452.7656,698.2895 454.0781,696.6332 Q455.4063,694.977 457.9063,694.977 Q458.6094,694.977 459.25,695.1332 Q459.9063,695.2895 460.4688,695.5864 L460.4688,698.3051 Q459.8438,697.727 459.25,697.4614 Q458.6563,697.1801 458.0313,697.1801 Q456.6875,697.1801 456,698.2582 Q455.3125,699.3207 455.3125,701.4145 Q455.3125,703.5082 456,704.5864 Q456.6875,705.6489 458.0313,705.6489 Q458.6563,705.6489 459.25,705.3832 Q459.8438,705.102 460.4688,704.5239 L460.4688,707.2426 Z " fill="#000000"/><text fill="#000000" font-family="sans-serif" font-size="14" lengthAdjust="spacing" textLength="108.5136" x="471.5" y="707.034">seq_item_export</text><line style="stroke:#181818;stroke-width:0.5;" x1="443.5" x2="582.0136" y1="717.602" y2="717.602"/><line style="stroke:#181818;stroke-width:0.5;" x1="443.5" x2="582.0136" y1="725.602" y2="725.602"/></g><!--class arbitration_queue--><g id="elem_arbitration_queue"><rect fill="#F1F1F1" height="48" id="arbitration_queue" rx="2.5" ry="2.5" style="stroke:#181818;stroke-width:0.5;" width="150.2576" x="619" y="685.602"/><ellipse cx="634" cy="701.602" fill="#ADD1B2" rx="11" ry="11" style="stroke:#181818;stroke-width:1.0;"/><path d="M636.9688,707.2426 Q636.3906,707.5395 635.75,707.6801 Q635.1094,707.8364 634.4063,707.8364 Q631.9063,707.8364 630.5781,706.1957 Q629.2656,704.5395 629.2656,701.4145 Q629.2656,698.2895 630.5781,696.6332 Q631.9063,694.977 634.4063,694.977 Q635.1094,694.977 635.75,695.1332 Q636.4063,695.2895 636.9688,695.5864 L636.9688,698.3051 Q636.3438,697.727 635.75,697.4614 Q635.1563,697.1801 634.5313,697.1801 Q633.1875,697.1801 632.5,698.2582 Q631.8125,699.3207 631.8125,701.4145 Q631.8125,703.5082 632.5,704.5864 Q633.1875,705.6489 634.5313,705.6489 Q635.1563,705.6489 635.75,705.3832 Q636.3438,705.102 636.9688,704.5239 L636.9688,707.2426 Z " fill="#000000"/><text fill="#000000" font-family="sans-serif" font-size="14" lengthAdjust="spacing" textLength="118.2576" x="648" y="707.034">arbitration_queue</text><line style="stroke:#181818;stroke-width:0.5;" x1="620" x2="768.2576" y1="717.602" y2="717.602"/><line style="stroke:#181818;stroke-width:0.5;" x1="620" x2="768.2576" y1="725.602" y2="725.602"/></g><!--class lock_queue--><g id="elem_lock_queue"><rect fill="#F1F1F1" height="48" id="lock_queue" rx="2.5" ry="2.5" style="stroke:#181818;stroke-width:0.5;" width="106.1997" x="804" y="685.602"/><ellipse cx="819" cy="701.602" fill="#ADD1B2" rx="11" ry="11" style="stroke:#181818;stroke-width:1.0;"/><path d="M821.9688,707.2426 Q821.3906,707.5395 820.75,707.6801 Q820.1094,707.8364 819.4063,707.8364 Q816.9063,707.8364 815.5781,706.1957 Q814.2656,704.5395 814.2656,701.4145 Q814.2656,698.2895 815.5781,696.6332 Q816.9063,694.977 819.4063,694.977 Q820.1094,694.977 820.75,695.1332 Q821.4063,695.2895 821.9688,695.5864 L821.9688,698.3051 Q821.3438,697.727 820.75,697.4614 Q820.1563,697.1801 819.5313,697.1801 Q818.1875,697.1801 817.5,698.2582 Q816.8125,699.3207 816.8125,701.4145 Q816.8125,703.5082 817.5,704.5864 Q818.1875,705.6489 819.5313,705.6489 Q820.1563,705.6489 820.75,705.3832 Q821.3438,705.102 821.9688,704.5239 L821.9688,707.2426 Z " fill="#000000"/><text fill="#000000" font-family="sans-serif" font-size="14" lengthAdjust="spacing" textLength="74.1997" x="833" y="707.034">lock_queue</text><line style="stroke:#181818;stroke-width:0.5;" x1="805" x2="909.1997" y1="717.602" y2="717.602"/><line style="stroke:#181818;stroke-width:0.5;" x1="805" x2="909.1997" y1="725.602" y2="725.602"/></g><!--class num_last_reqs--><g id="elem_num_last_reqs"><rect fill="#F1F1F1" height="48" id="num_last_reqs" rx="2.5" ry="2.5" style="stroke:#181818;stroke-width:0.5;" width="127.0456" x="945.5" y="685.602"/><ellipse cx="960.5" cy="701.602" fill="#ADD1B2" rx="11" ry="11" style="stroke:#181818;stroke-width:1.0;"/><path d="M963.4688,707.2426 Q962.8906,707.5395 962.25,707.6801 Q961.6094,707.8364 960.9063,707.8364 Q958.4063,707.8364 957.0781,706.1957 Q955.7656,704.5395 955.7656,701.4145 Q955.7656,698.2895 957.0781,696.6332 Q958.4063,694.977 960.9063,694.977 Q961.6094,694.977 962.25,695.1332 Q962.9063,695.2895 963.4688,695.5864 L963.4688,698.3051 Q962.8438,697.727 962.25,697.4614 Q961.6563,697.1801 961.0313,697.1801 Q959.6875,697.1801 959,698.2582 Q958.3125,699.3207 958.3125,701.4145 Q958.3125,703.5082 959,704.5864 Q959.6875,705.6489 961.0313,705.6489 Q961.6563,705.6489 962.25,705.3832 Q962.8438,705.102 963.4688,704.5239 L963.4688,707.2426 Z " fill="#000000"/><text fill="#000000" font-family="sans-serif" font-size="14" lengthAdjust="spacing" textLength="95.0456" x="974.5" y="707.034">num_last_reqs</text><line style="stroke:#181818;stroke-width:0.5;" x1="946.5" x2="1071.5456" y1="717.602" y2="717.602"/><line style="stroke:#181818;stroke-width:0.5;" x1="946.5" x2="1071.5456" y1="725.602" y2="725.602"/></g><!--class num_last_rsps--><g id="elem_num_last_rsps"><rect fill="#F1F1F1" height="48" id="num_last_rsps" rx="2.5" ry="2.5" style="stroke:#181818;stroke-width:0.5;" width="125.8557" x="1108" y="685.602"/><ellipse cx="1123" cy="701.602" fill="#ADD1B2" rx="11" ry="11" style="stroke:#181818;stroke-width:1.0;"/><path d="M1125.9688,707.2426 Q1125.3906,707.5395 1124.75,707.6801 Q1124.1094,707.8364 1123.4063,707.8364 Q1120.9063,707.8364 1119.5781,706.1957 Q1118.2656,704.5395 1118.2656,701.4145 Q1118.2656,698.2895 1119.5781,696.6332 Q1120.9063,694.977 1123.4063,694.977 Q1124.1094,694.977 1124.75,695.1332 Q1125.4063,695.2895 1125.9688,695.5864 L1125.9688,698.3051 Q1125.3438,697.727 1124.75,697.4614 Q1124.1563,697.1801 1123.5313,697.1801 Q1122.1875,697.1801 1121.5,698.2582 Q1120.8125,699.3207 1120.8125,701.4145 Q1120.8125,703.5082 1121.5,704.5864 Q1122.1875,705.6489 1123.5313,705.6489 Q1124.1563,705.6489 1124.75,705.3832 Q1125.3438,705.102 1125.9688,704.5239 L1125.9688,707.2426 Z " fill="#000000"/><text fill="#000000" font-family="sans-serif" font-size="14" lengthAdjust="spacing" textLength="93.8557" x="1137" y="707.034">num_last_rsps</text><line style="stroke:#181818;stroke-width:0.5;" x1="1109" x2="1232.8557" y1="717.602" y2="717.602"/><line style="stroke:#181818;stroke-width:0.5;" x1="1109" x2="1232.8557" y1="725.602" y2="725.602"/></g><!--link uvm_test_top to env--><g id="link_uvm_test_top_env"><path codeLine="27" d="M448,111.622 C448,129.992 448,134.892 448,153.312 " fill="none" id="uvm_test_top-to-env" style="stroke:#181818;stroke-width:1.0;"/><polygon fill="none" points="448,171.312,454,153.312,442,153.312,448,171.312" style="stroke:#181818;stroke-width:1.0;"/></g><!--link env to a--><g id="link_env_a"><path codeLine="28" d="M448,238.782 C448,256.372 448,260.482 448,280.352 " fill="none" id="env-to-a" style="stroke:#181818;stroke-width:1.0;"/><polygon fill="none" points="448,298.352,454,280.352,442,280.352,448,298.352" style="stroke:#181818;stroke-width:1.0;"/></g><!--link a to d--><g id="link_a_d"><path codeLine="29" d="M427.45,368.432 C390.69,397.642 326.6619,448.5129 274.0019,490.3629 " fill="none" id="a-to-d" style="stroke:#181818;stroke-width:1.0;"/><polygon fill="none" points="259.91,501.562,277.7349,495.0602,270.2688,485.6656,259.91,501.562" style="stroke:#181818;stroke-width:1.0;"/></g><!--link a to m--><g id="link_a_m"><path codeLine="30" d="M448,403.672 C448,441.782 448,473.852 448,502.602 " fill="none" id="a-to-m" style="stroke:#181818;stroke-width:1.0;"/><polygon fill="none" points="448,520.602,454,502.602,442,502.602,448,520.602" style="stroke:#181818;stroke-width:1.0;"/></g><!--link a to seqr--><g id="link_a_seqr"><path codeLine="31" d="M468.55,368.102 C495.63,389.182 530.9978,416.7031 576.7678,452.3431 " fill="none" id="a-to-seqr" style="stroke:#181818;stroke-width:1.0;"/><polygon fill="none" points="590.97,463.402,580.4541,447.6091,573.0816,457.0772,590.97,463.402" style="stroke:#181818;stroke-width:1.0;"/></g><!--link d to rsp_port--><g id="link_d_rsp_port"><path codeLine="32" d="M170.32,588.002 C143.39,619.132 119.614,646.6168 97.744,671.9068 " fill="none" id="d-to-rsp_port" style="stroke:#181818;stroke-width:1.0;"/><polygon fill="none" points="85.97,685.522,102.2824,675.8315,93.2056,667.9821,85.97,685.522" style="stroke:#181818;stroke-width:1.0;"/></g><!--link d to seq_item_port--><g id="link_d_seq_item_port"><path codeLine="33" d="M207,588.002 C207,619.132 207,642.232 207,667.522 " fill="none" id="d-to-seq_item_port" style="stroke:#181818;stroke-width:1.0;"/><polygon fill="none" points="207,685.522,213,667.522,201,667.522,207,685.522" style="stroke:#181818;stroke-width:1.0;"/></g><!--link seqr to rsp_export--><g id="link_seqr_rsp_export"><path codeLine="34" d="M544.76,617.572 C494.01,642.052 457.0522,659.8613 420.1322,677.6713 " fill="none" id="seqr-to-rsp_export" style="stroke:#181818;stroke-width:1.0;"/><polygon fill="none" points="403.92,685.492,422.7391,683.0754,417.5253,672.2672,403.92,685.492" style="stroke:#181818;stroke-width:1.0;"/></g><!--link seqr to seq_item_export--><g id="link_seqr_seq_item_export"><path codeLine="35" d="M605.09,625.672 C580.77,647.572 569.6755,657.5564 552.0755,673.4064 " fill="none" id="seqr-to-seq_item_export" style="stroke:#181818;stroke-width:1.0;"/><polygon fill="none" points="538.7,685.452,556.0907,677.8649,548.0603,668.9479,538.7,685.452" style="stroke:#181818;stroke-width:1.0;"/></g><!--link seqr to arbitration_queue--><g id="link_seqr_arbitration_queue"><path codeLine="36" d="M694,625.672 C694,647.572 694,651.602 694,667.452 " fill="none" id="seqr-to-arbitration_queue" style="stroke:#181818;stroke-width:1.0;"/><polygon fill="none" points="694,685.452,700,667.452,688,667.452,694,685.452" style="stroke:#181818;stroke-width:1.0;"/></g><!--link seqr to lock_queue--><g id="link_seqr_lock_queue"><path codeLine="37" d="M774.07,625.672 C795.97,647.572 805.2721,656.8741 821.1221,672.7241 " fill="none" id="seqr-to-lock_queue" style="stroke:#181818;stroke-width:1.0;"/><polygon fill="none" points="833.85,685.452,825.3647,668.4814,816.8794,676.9667,833.85,685.452" style="stroke:#181818;stroke-width:1.0;"/></g><!--link seqr to num_last_reqs--><g id="link_seqr_num_last_reqs"><path codeLine="38" d="M843.2,622.802 C887.41,645.682 916.5029,660.7409 948.4729,677.2809 " fill="none" id="seqr-to-num_last_reqs" style="stroke:#181818;stroke-width:1.0;"/><polygon fill="none" points="964.46,685.552,951.2299,671.9518,945.7158,682.6099,964.46,685.552" style="stroke:#181818;stroke-width:1.0;"/></g><!--link seqr to num_last_rsps--><g id="link_seqr_num_last_rsps"><path codeLine="39" d="M843.29,596.622 C932.38,627.062 1023.8471,658.3113 1090.9171,681.2313 " fill="none" id="seqr-to-num_last_rsps" style="stroke:#181818;stroke-width:1.0;"/><polygon fill="none" points="1107.95,687.052,1092.8573,675.5537,1088.9769,686.9089,1107.95,687.052" style="stroke:#181818;stroke-width:1.0;"/></g><!--SRC=[TP5DReCm48Ntd6AKRPKBiAYKPHVPL6dLdJK1YrhnNsmJ5QNSlGOQF1ZY3PvvdvdHUnQh2pOSTeUlDtW_7E7ZymWdxiEPw-eRJiOQQPfk1_S2ugaaUW_jJR4G6HQC_HU6m_LjlFS4ZJr2u4f7ejRpJSqtpwzkzQWcZrwSjymQ5yfnBTGeEo_ys4fG_0qJWIj2fbOhPSBf70LtMWwxv9FvpyRigRandTBB-KBPnACxY-0m2AFPjUKjBm6TmouHqbIN9v9k5Olh1kRurPSWTE2DGxa5U9i3VJ5-5W7lzx-lSxP3dcDZYXAdegQ5eiMSNptLZxHeRn5EyKWzySJE96IUPkhAmKnF_cN2mhsdMZIkwFy0]--></g></svg>